<?xml version="1.0" encoding="utf-8"?>
<!-- Generator: Adobe Illustrator 24.3.0, SVG Export Plug-In . SVG Version: 6.00 Build 0)  -->
<svg version="1.1" id="Layer_5" xmlns="http://www.w3.org/2000/svg" xmlns:xlink="http://www.w3.org/1999/xlink" x="0px" y="0px"
	 viewBox="0 0 264 228" style="enable-background:new 0 0 264 228;" xml:space="preserve">
<style type="text/css">
	.st0{fill:#3F3E3C;}
	.st1{fill:#302F2F;}
	.st2{fill:#EFEFEF;}
	.st3{fill:#A7B7B7;}
	.st4{fill:#FFCC73;}
	.st5{fill:#FF886C;}
	.st6{fill:#9B8C76;}
	.st7{fill:#91B7B7;}
	.st8{fill:#EEEEEE;}
	.st9{fill:#020202;}
	.st10{fill:#604B32;}
	.st11{fill:#E8AB74;}
	.st12{fill:#FCDBB1;}
	.st13{fill:#313238;}
	.st14{fill:#EF7348;}
	.st15{fill:#222226;}
	.st16{fill:#0F0100;}
	.st17{fill:#FF7F5C;}
	.st18{fill:#606168;}
	.st19{fill:#443A32;}
</style>
<g>
	<g>
		<g>
			<rect x="6.7" y="2.9" class="st0" width="151.2" height="10.1"/>
		</g>
		<g>
			<path class="st1" d="M6.8,13.3c0,0.9-0.9,1.7-2,1.7H2.6c-1.1,0-2-0.7-2-1.7V2.9c0-0.9,0.9-1.7,2-1.7h2.1c1.1,0,2,0.7,2,1.7v10.4
				H6.8z"/>
		</g>
		<g>
			<path class="st1" d="M163.3,13.1c0,0.9-0.9,1.7-2,1.7h-2.1c-1.1,0-2-0.7-2-1.7V2.7c0-0.9,0.9-1.7,2-1.7h2.1c1.1,0,2,0.7,2,1.7
				V13.1z"/>
		</g>
		<g>
			<rect x="8.1" y="12.3" class="st1" width="147.3" height="140.4"/>
		</g>
		<g>
			<path class="st2" d="M152.2,148.8c0,0.9-0.9,1.7-2,1.7H13.4c-1.1,0-2-0.7-2-1.7V16.1c0-0.9,0.9-1.7,2-1.7h136.7
				c1.1,0,2,0.7,2,1.7v132.7H152.2z"/>
		</g>
		<g>
			<polygon class="st1" points="89.3,157.4 74.2,157.4 69.5,153.4 71,151.6 75.1,154.8 88.5,154.8 92.7,151.7 94.1,153.7 			"/>
		</g>
		<g>
			<path class="st3" d="M101.1,90"/>
		</g>
		<g>
			<path class="st3" d="M52.8,88.6"/>
		</g>
		<g>
			<path class="st4" d="M81.6,113.5c0,0-0.3,0-0.4,0c-17.4,0-31.6-14.1-31.6-31.6c0-17.4,14.2-31.6,31.7-31.6c0.1,0,0.4,0,0.4,0V39
				h-0.2c-23.7,0-43,19.2-43,42.9s19.2,42.9,43,42.9h0.2v-11.3H81.6z"/>
		</g>
		<g>
			<g>
				<path class="st5" d="M80.7,124.9L80.7,124.9L80.7,124.9L80.7,124.9z"/>
			</g>
			<g>
				<path class="st5" d="M123.6,83.2h-11.1c-0.6,16.6-14.6,30.4-31.6,30.4c-0.1,0-0.3-0.1-0.3-0.1v11.4
					C104,124.9,123,106,123.6,83.2z"/>
			</g>
		</g>
		<g>
			<g>
				<path class="st6" d="M80.6,38.9L80.6,38.9L80.6,38.9L80.6,38.9z"/>
			</g>
			<g>
				<path class="st6" d="M80.5,38.9v11.5c0,0,0.3,0,0.4,0c17.4,0,31.6,14.2,31.6,31.7c0,0.4,0,1.2,0,1.2h11.1c0,0-0.1-0.8-0.1-1.2
					C123.5,58.3,104.4,39,80.5,38.9z"/>
			</g>
		</g>
		<g>
			<rect x="19" y="124.1" class="st4" width="17.4" height="5.1"/>
		</g>
		<g>
			<rect x="19" y="131.3" class="st6" width="17.4" height="5.8"/>
		</g>
		<g>
			<rect x="19" y="138.6" class="st5" width="17.4" height="5.4"/>
		</g>
	</g>
	<g>
		<g>
			<path class="st7" d="M263.4,220c0,3.9-23.9,7-53.5,7c-29.5,0-53.5-3.1-53.5-7s23.9-7,53.5-7S263.4,216.1,263.4,220z"/>
		</g>
		<g>
			<g>
				<rect x="179.7" y="212" class="st8" width="4.7" height="5.1"/>
			</g>
		</g>
		<g>
			<g>
				<path class="st9" d="M185.3,218c0,1.3-1.1,2.4-2.5,2.4h-7.1c-1.4,0-2.5-1.1-2.5-2.4l0,0c0-1.3,1.1-2.4,2.5-2.4h8.7
					C185.7,215.6,185.3,216.7,185.3,218L185.3,218z"/>
			</g>
		</g>
		<g>
			<g>
				<rect x="237.3" y="212" class="st8" width="4.7" height="5.1"/>
			</g>
		</g>
		<g>
			<g>
				<path class="st9" d="M236.8,218c0,1.3,1.1,2.4,2.5,2.4h7.1c1.4,0,2.5-1.1,2.5-2.4l0,0c0-1.3-1.1-2.4-2.5-2.4h-8.7
					C236.3,215.6,236.8,216.7,236.8,218L236.8,218z"/>
			</g>
		</g>
		<g>
			<g>
				<path class="st10" d="M245.1,104.7c0,0,1.1-0.2,1.1-2.9c0-2.7,0.4-30,0.4-30s18.5-16.3,3.8-36.6c0,0-1.3,14-12.6,12
					s-36.8-5.9-44.5-5.6c-7.7,0.4-22.6,6.1-21.2,26.2c1.4,20.1,3.4,43.4,4.7,47.2c1.5,4.4,57.2-3.9,57.2-3.9L245.1,104.7z"/>
			</g>
		</g>
		<g>
			<g>
				<path class="st11" d="M183.4,108.9c0,1.6-1.3,2.9-2.9,2.9h-3.6c-1.6,0-2.9-1.3-2.9-2.9v-6.2c0-1.6,1.3-2.9,2.9-2.9h3.6
					c1.6,0,2.9,1.3,2.9,2.9V108.9z"/>
			</g>
		</g>
		<g>
			<g>
				<path class="st11" d="M247.4,108.9c0,1.6-1.3,2.9-2.9,2.9h-3.6c-1.6,0-2.9-1.3-2.9-2.9v-6.2c0-1.6,1.3-2.9,2.9-2.9h3.6
					c1.6,0,2.9,1.3,2.9,2.9V108.9z"/>
			</g>
		</g>
		<g>
			<g>
				<path class="st12" d="M136.9,105.9c1.2,0.9,1.3,2.6,0.4,3.8l0,0c-0.9,1.2-2.6,1.3-3.8,0.4l-10.3-8.4c-1.2-0.9-1.3-2.6-0.4-3.8
					l0,0c0.9-1.2,2.6-1.3,3.8-0.4L136.9,105.9z"/>
			</g>
		</g>
		<g>
			<g>
				<path class="st12" d="M254.6,180.5c0,1.4-1.1,2.5-2.5,2.5l0,0c-1.4,0-2.5-1.1-2.5-2.5v-13.7c0-1.4,1.1-2.5,2.5-2.5l0,0
					c1.4,0,2.5,1.1,2.5,2.5V180.5z"/>
			</g>
		</g>
		<g>
			<path class="st13" d="M234.1,181.6h-46h-8.7v8.5v24.8h5.8v-18.2c0.4-3.5,3.2-6.4,6.7-6.7h38.5c3.4,0.4,6.2,3.1,6.5,6.5v18.4h5.8
				v-24.8v-8.5H234.1z"/>
		</g>
		<g>
			<path class="st8" d="M251.1,121.5c-2.6-2.3-5.8-3.1-8-3.3c-0.2-0.1-64-0.1-64.2,0c-0.3,0-0.6,0.1-1.3,0.2v6.8l0,0v57.4
				c0,0.9,1.2,1.8,2.1,1.8h62.7c0.9,0,1.7-0.8,1.7-1.8V125c0.7,0.3,1.7,0.7,2.5,1.4c1.5,1.4,2.2,3.6,2.2,6.7V178h6.9v-44.9
				C255.7,128,254.1,124.1,251.1,121.5z"/>
		</g>
		<g>
			<g>
				<polygon class="st14" points="215.4,162.4 211.3,165.4 207.2,162.4 209,137.5 213.7,137.5 				"/>
			</g>
		</g>
		<g>
			<path class="st15" d="M251.1,121.5c-2.6-2.3-5.8-3.1-8-3.3c0,0-1.7,0-4.3,0l-27.4,43l-28.1-43c-2.6,0-4.3,0-4.3,0
				c-0.3,0-0.6,0.1-1.3,0.2v6.8l0,0v57.4c0,0.9,1.2,1.7,2.1,1.7h62.7c0.9,0,1.7-0.8,1.7-1.7V125c0.7,0.3,1.7,0.7,2.5,1.4
				c1.5,1.4,2.2,3.6,2.2,6.7v42h6.9v-42C255.7,128,254.1,124.1,251.1,121.5z"/>
		</g>
		<g>
			<path class="st8" d="M132.7,102.5c-1.5-1.2-2.9-2.4-4.1-3.7l-4.3,3.9c1.4,1.6,3,3,4.8,4.3L132.7,102.5z"/>
		</g>
		<g>
			<g>
				<path class="st15" d="M179.2,124.6c-1.6-0.2-38.5-4.1-53.7-20.5l4.6-4.2c13.6,14.8,49.4,18.5,49.8,18.6L179.2,124.6z"/>
			</g>
		</g>
		<g>
			<g>
				<polygon class="st13" points="211.1,161.1 193,148 192.2,141.7 184.3,133.4 183,118.1 				"/>
			</g>
		</g>
		<g>
			<g>
				<polygon class="st13" points="211.1,161.1 229.2,148 230,141.7 237.9,133.4 238.5,118.1 				"/>
			</g>
		</g>
		<g>
			<g>
				<path class="st12" d="M242.3,134.2c0,3.2-3,5.8-6.8,5.8h-49.4c-3.7,0-6.8-2.6-6.8-5.8V80c0-3.2,3-5.8,6.8-5.8h49.4
					c3.7,0,6.8,2.6,6.8,5.8V134.2z"/>
			</g>
		</g>
		<g>
			<g>
				<path class="st16" d="M195.2,111.3c0,1.8-1.4,3.2-3.2,3.2s-3.2-1.4-3.2-3.2c0-1.8,1.4-3.2,3.2-3.2
					C193.7,108,195.2,109.5,195.2,111.3z"/>
			</g>
		</g>
		<g>
			<g>
				<path class="st8" d="M191.6,110.4c0,0.5-0.4,0.8-0.8,0.8c-0.5,0-0.8-0.4-0.8-0.8c0-0.5,0.4-0.8,0.8-0.8
					C191.2,109.6,191.6,110,191.6,110.4z"/>
			</g>
		</g>
		<g>
			<g>
				<path class="st16" d="M233.4,111.3c0,1.8-1.4,3.2-3.2,3.2s-3.2-1.4-3.2-3.2c0-1.8,1.4-3.2,3.2-3.2
					C231.9,108,233.4,109.5,233.4,111.3z"/>
			</g>
		</g>
		<g>
			<path class="st17" d="M218.5,123.7c-0.2-0.3-0.6-0.4-0.9-0.4H204c-0.4,0-0.8,0.1-1,0.4s-0.2,0.7-0.1,1.1c0.1,0.3,3.2,6.6,8.2,6.6
				s7.4-6.4,7.5-6.7S218.7,124.1,218.5,123.7z"/>
		</g>
		<g>
			<g>
				<polygon class="st10" points="224.3,72.7 197.5,72.7 210.9,84.8 				"/>
			</g>
		</g>
		<g>
			<g>
				<path class="st8" d="M229.8,110.4c0,0.5-0.4,0.8-0.8,0.8c-0.5,0-0.8-0.4-0.8-0.8c0-0.5,0.4-0.8,0.8-0.8
					C229.5,109.6,229.8,110,229.8,110.4z"/>
			</g>
		</g>
		<g>
			<g>
				<path class="st18" d="M133.9,104.5c0,0.6-0.5,1.2-1.2,1.2c-0.6,0-1.2-0.5-1.2-1.2c0-0.6,0.5-1.2,1.2-1.2
					C133.3,103.4,133.9,103.9,133.9,104.5z"/>
			</g>
		</g>
		<g>
			<g>
				<path class="st18" d="M254.9,173.7c0,0.6-0.5,1.2-1.2,1.2c-0.6,0-1.2-0.5-1.2-1.2c0-0.6,0.5-1.2,1.2-1.2
					C254.3,172.6,254.9,173.1,254.9,173.7z"/>
			</g>
		</g>
		<g>
			<g>
				<path class="st18" d="M131.2,102.5c0,0.6-0.5,1.2-1.2,1.2c-0.6,0-1.2-0.5-1.2-1.2c0-0.6,0.5-1.2,1.2-1.2
					C130.7,101.4,131.2,101.9,131.2,102.5z"/>
			</g>
		</g>
		<g>
			<g>
				<path class="st18" d="M254.9,170.8c0,0.6-0.5,1.2-1.2,1.2c-0.6,0-1.2-0.5-1.2-1.2c0-0.6,0.5-1.2,1.2-1.2
					C254.3,169.6,254.9,170.1,254.9,170.8z"/>
			</g>
		</g>
		<g>
			<path class="st19" d="M128.2,110.2c-0.2,0-0.5-0.2-0.6-0.4l-15.8-52.2c-0.1-0.3,0.1-0.6,0.4-0.7c0.3-0.1,0.6,0.1,0.7,0.4
				l15.8,52.2c0.1,0.3-0.1,0.6-0.4,0.7H128.2z"/>
		</g>
	</g>
</g>
</svg>
