<?xml version="1.0" encoding="utf-8"?>
<!-- Generator: Adobe Illustrator 24.3.0, SVG Export Plug-In . SVG Version: 6.00 Build 0)  -->
<svg version="1.1" id="Layer_5" xmlns="http://www.w3.org/2000/svg" xmlns:xlink="http://www.w3.org/1999/xlink" x="0px" y="0px"
	 viewBox="0 0 264 228" style="enable-background:new 0 0 264 228;" xml:space="preserve">
<style type="text/css">
	.st0{fill:#3F3E3C;}
	.st1{fill:#302F2F;}
	.st2{fill:#EFEFEF;}
	.st3{fill:#A7B7B7;}
	.st4{fill:#FFCC73;}
	.st5{fill:#FF886C;}
	.st6{fill:#9B8C76;}
</style>
<g>
	<g>
		<rect x="6.7" y="2.9" class="st0" width="151.2" height="10.1"/>
	</g>
	<g>
		<path class="st1" d="M6.8,13.3c0,0.9-0.9,1.7-2,1.7H2.6c-1.1,0-2-0.7-2-1.7V2.9c0-0.9,0.9-1.7,2-1.7h2.1c1.1,0,2,0.7,2,1.7v10.4
			C6.7,13.3,6.8,13.3,6.8,13.3z"/>
	</g>
	<g>
		<path class="st1" d="M163.3,13.1c0,0.9-0.9,1.7-2,1.7h-2.1c-1.1,0-2-0.7-2-1.7V2.7c0-0.9,0.9-1.7,2-1.7h2.1c1.1,0,2,0.7,2,1.7
			V13.1z"/>
	</g>
	<g>
		<rect x="8.1" y="12.3" class="st1" width="147.3" height="140.4"/>
	</g>
	<g>
		<path class="st2" d="M152.2,148.8c0,0.9-0.9,1.7-2,1.7H13.4c-1.1,0-2-0.7-2-1.7V16.1c0-0.9,0.9-1.7,2-1.7h136.7c1.1,0,2,0.7,2,1.7
			v132.7H152.2z"/>
	</g>
	<g>
		<polygon class="st1" points="89.3,157.4 74.2,157.4 69.5,153.4 71,151.6 75.1,154.8 88.5,154.8 92.7,151.7 94.1,153.7 		"/>
	</g>
	<g>
		<path class="st3" d="M101.1,90"/>
	</g>
	<g>
		<path class="st3" d="M52.8,88.6"/>
	</g>
	<g>
		<path class="st4" d="M81.6,113.5c0,0-0.3,0-0.4,0c-17.4,0-31.6-14.1-31.6-31.6c0-17.4,14.2-31.6,31.7-31.6c0.1,0,0.4,0,0.4,0V39
			h-0.2c-23.7,0-43,19.2-43,42.9s19.2,42.9,43,42.9h0.2v-11.3H81.6z"/>
	</g>
	<g>
		<g>
			<path class="st5" d="M80.7,124.9L80.7,124.9L80.7,124.9L80.7,124.9z"/>
		</g>
		<g>
			<path class="st5" d="M123.6,83.2h-11.1c-0.6,16.6-14.6,30.4-31.6,30.4c-0.1,0-0.3-0.1-0.3-0.1v11.4C104,124.9,123,106,123.6,83.2
				z"/>
		</g>
	</g>
	<g>
		<g>
			<path class="st6" d="M80.6,38.9L80.6,38.9L80.6,38.9L80.6,38.9z"/>
		</g>
		<g>
			<path class="st6" d="M80.5,38.9v11.5c0,0,0.3,0,0.4,0c17.4,0,31.6,14.2,31.6,31.7c0,0.4,0,1.2,0,1.2h11.1c0,0-0.1-0.8-0.1-1.2
				C123.5,58.3,104.4,39,80.5,38.9z"/>
		</g>
	</g>
	<g>
		<rect x="19" y="124.1" class="st4" width="17.4" height="5.1"/>
	</g>
	<g>
		<rect x="19" y="131.3" class="st6" width="17.4" height="5.8"/>
	</g>
	<g>
		<rect x="19" y="138.6" class="st5" width="17.4" height="5.4"/>
	</g>
</g>
</svg>
