<?xml version="1.0" encoding="utf-8"?>
<!-- Generator: Adobe Illustrator 24.3.0, SVG Export Plug-In . SVG Version: 6.00 Build 0)  -->
<svg version="1.1" id="Layer_5" xmlns="http://www.w3.org/2000/svg" xmlns:xlink="http://www.w3.org/1999/xlink" x="0px" y="0px"
	 viewBox="0 0 264 228" style="enable-background:new 0 0 264 228;" xml:space="preserve">
<style type="text/css">
	.st0{fill:#FCDBB1;}
	.st1{fill:#EEEEEE;}
	.st2{fill:#222226;}
	.st3{fill:#606168;}
	.st4{fill:#443A32;}
</style>
<g>
	<g>
		<g>
			<path class="st0" d="M136.9,105.9c1.2,0.9,1.3,2.6,0.4,3.8l0,0c-0.9,1.2-2.6,1.3-3.8,0.4l-10.3-8.4c-1.2-0.9-1.3-2.6-0.4-3.8l0,0
				c0.9-1.2,2.6-1.3,3.8-0.4L136.9,105.9z"/>
		</g>
	</g>
	<g>
		<path class="st1" d="M132.7,102.5c-1.5-1.2-2.9-2.4-4.1-3.7l-4.3,3.9c1.4,1.6,3,3,4.8,4.3L132.7,102.5z"/>
	</g>
	<g>
		<g>
			<path class="st2" d="M179.2,124.6c-1.6-0.2-38.5-4.1-53.7-20.5l4.6-4.2c13.6,14.8,49.4,18.5,49.8,18.6L179.2,124.6z"/>
		</g>
	</g>
	<g>
		<g>
			<path class="st3" d="M133.9,104.5c0,0.6-0.5,1.2-1.2,1.2c-0.6,0-1.2-0.5-1.2-1.2c0-0.6,0.5-1.2,1.2-1.2
				C133.3,103.4,133.9,103.9,133.9,104.5z"/>
		</g>
	</g>
	<g>
		<g>
			<path class="st3" d="M131.2,102.5c0,0.6-0.5,1.2-1.2,1.2c-0.6,0-1.2-0.5-1.2-1.2c0-0.6,0.5-1.2,1.2-1.2
				C130.7,101.4,131.2,101.9,131.2,102.5z"/>
		</g>
	</g>
	<g>
		<path class="st4" d="M128.2,110.2c-0.2,0-0.5-0.2-0.6-0.4l-15.8-52.2c-0.1-0.3,0.1-0.6,0.4-0.7c0.3-0.1,0.6,0.1,0.7,0.4l15.8,52.2
			c0.1,0.3-0.1,0.6-0.4,0.7H128.2z"/>
	</g>
</g>
</svg>
