<?xml version="1.0" encoding="utf-8"?>
<!-- Generator: Adobe Illustrator 24.3.0, SVG Export Plug-In . SVG Version: 6.00 Build 0)  -->
<svg version="1.1" id="圖層_1" xmlns="http://www.w3.org/2000/svg" xmlns:xlink="http://www.w3.org/1999/xlink" x="0px" y="0px"
	 viewBox="0 0 100 40" style="enable-background:new 0 0 100 40;" xml:space="preserve">
<style type="text/css">
	.st0{fill:#FFFFFF;}
	.st1{fill:#00961E;}
	.st2{fill:#07B53B;}
</style>
<g>
	<g>
		<path class="st0" d="M30.2,7.4c-3.2-3.2-7.7-5.2-12.6-5.2C7.8,2.3,0,10.2,0,20c0,4.9,2,9.4,5.3,12.6c3.2,3.2,7.7,5.2,12.6,5.2
			c9.8,0,17.6-8,17.6-17.8C35.4,15.1,33.4,10.6,30.2,7.4z"/>
		<g>
			<g>
				<g>
					<path class="st1" d="M21.9,17.7C21.9,17.7,21.9,17.7,21.9,17.7c0-0.1,0-0.1,0-0.2c0,0,0-0.1,0-0.1c0,0,0-0.1,0-0.1
						c0,0,0,0,0-0.1c-0.3-1-1.2-1.7-2.3-1.7l-0.1,0l-2.8,0h0l0,0c-0.2,0-0.4,0.1-0.4,0.3l0,4.2c0,0.2,0.2,0.3,0.4,0.3l2.9,0v0
						c0,0,0,0,0,0c0.1,0,0.2,0,0.2,0c0,0,0.1,0,0.1,0c0.1,0,0.1,0,0.2,0c0,0,0.1,0,0.1,0c0,0,0.1,0,0.1,0c0,0,0.1,0,0.1,0
						c0,0,0.1,0,0.1,0c0,0,0.1,0,0.1,0c0,0,0.1,0,0.1-0.1c0,0,0.1,0,0.1-0.1c0,0,0.1,0,0.1-0.1c0,0,0.1,0,0.1-0.1
						c0,0,0.1-0.1,0.1-0.1c0,0,0.1,0,0.1-0.1c0,0,0.1-0.1,0.1-0.1c0,0,0-0.1,0.1-0.1c0,0,0.1-0.1,0.1-0.1c0,0,0-0.1,0.1-0.1
						c0,0,0-0.1,0.1-0.1c0,0,0-0.1,0.1-0.1c0,0,0-0.1,0.1-0.1c0,0,0-0.1,0-0.1c0,0,0-0.1,0-0.1c0,0,0-0.1,0-0.1c0,0,0-0.1,0-0.1
						c0,0,0-0.1,0-0.1c0,0,0-0.1,0-0.1c0,0,0-0.1,0-0.1c0,0,0-0.1,0-0.1c0,0,0-0.1,0-0.1c0,0,0,0,0,0C21.9,17.8,21.9,17.8,21.9,17.7
						C21.9,17.7,21.9,17.7,21.9,17.7z"/>
					<path class="st1" d="M17.7,2.4c-9.8,0-17.6,8-17.6,17.8c0,9.8,8,17.7,17.7,17.6c9.8,0,17.6-8,17.6-17.8
						C35.4,10.2,27.5,2.3,17.7,2.4z M19.9,23.9l-3.2,0c-0.2,0-0.3,0.1-0.3,0.3l0,4.6c0,0.4-0.3,0.7-0.7,0.7l-2.7,0
						c-0.4,0-0.7-0.3-0.7-0.7l-0.1-16.2c0-0.4,0.3-0.7,0.7-0.7l6.9,0l0.1,0l0,0c3.3,0,5.9,2.7,5.9,6C25.9,21.2,23.2,23.9,19.9,23.9z
						"/>
				</g>
			</g>
			<g>
				<path class="st2" d="M21.8,17.6C21.8,17.5,21.8,17.5,21.8,17.6c0-0.1,0-0.1,0-0.2c0,0,0-0.1,0-0.1c0,0,0-0.1,0-0.1
					c0,0,0,0,0-0.1c-0.3-1-1.2-1.7-2.3-1.7l-0.1,0l-2.8,0h0l0,0c-0.2,0-0.3,0.1-0.3,0.3l0,4.3c0,0.2,0.1,0.3,0.3,0.3l2.9,0v0
					c0,0,0,0,0,0c0.1,0,0.2,0,0.2,0c0,0,0.1,0,0.1,0c0.1,0,0.1,0,0.2,0c0,0,0.1,0,0.1,0c0,0,0.1,0,0.1,0c0,0,0.1,0,0.1,0
					c0,0,0.1,0,0.1,0c0,0,0.1,0,0.1,0c0,0,0.1,0,0.1-0.1c0,0,0.1,0,0.1-0.1c0,0,0.1,0,0.1-0.1c0,0,0.1,0,0.1-0.1
					c0,0,0.1-0.1,0.1-0.1c0,0,0.1,0,0.1-0.1c0,0,0.1-0.1,0.1-0.1c0,0,0-0.1,0.1-0.1c0,0,0.1-0.1,0.1-0.1c0,0,0-0.1,0.1-0.1
					c0,0,0-0.1,0.1-0.1c0,0,0-0.1,0.1-0.1c0,0,0-0.1,0.1-0.1c0,0,0-0.1,0-0.1c0,0,0-0.1,0-0.1c0,0,0-0.1,0-0.1c0,0,0-0.1,0-0.1
					c0,0,0-0.1,0-0.1c0,0,0-0.1,0-0.1c0,0,0-0.1,0-0.1c0,0,0-0.1,0-0.1c0,0,0-0.1,0-0.1c0,0,0,0,0,0C21.8,17.7,21.8,17.7,21.8,17.6
					C21.8,17.6,21.8,17.6,21.8,17.6z"/>
				<path class="st2" d="M17.6,2.2C7.8,2.3,0,10.2,0,20c0,9.8,8,17.7,17.7,17.6s17.6-8,17.6-17.8C35.3,10.1,27.4,2.2,17.6,2.2z
					 M19.7,23.8l-3.2,0c-0.2,0-0.3,0.1-0.3,0.3l0,4.6c0,0.4-0.3,0.7-0.7,0.7l-2.7,0c-0.4,0-0.7-0.3-0.7-0.7L12,12.5
					c0-0.4,0.3-0.7,0.7-0.7l6.9,0l0.1,0l0,0c3.3,0,5.9,2.7,5.9,6C25.7,21,23,23.8,19.7,23.8z"/>
			</g>
		</g>
	</g>
	<g>
		<g>
			<path class="st2" d="M74.1,9c0.3,0,0.5-0.2,0.5-0.5V6.8c0-0.3-0.2-0.5-0.5-0.5h-5.3h-1.8h0h0c-0.3,0-0.5,0.2-0.5,0.5v0v0v10.9v0
				v0c0,0.3,0.2,0.5,0.5,0.5h0h0h1.8h5.3c0.3,0,0.5-0.2,0.5-0.5v-1.8c0-0.3-0.2-0.5-0.5-0.5h-4.8v-1.8h4.8c0.3,0,0.5-0.2,0.5-0.5
				v-1.8c0-0.3-0.2-0.5-0.5-0.5h-4.8V9H74.1z"/>
			<path class="st2" d="M48.1,15.4h-4.8V6.8c0-0.3-0.2-0.5-0.5-0.5H41c-0.3,0-0.5,0.2-0.5,0.5v10.9v0v0c0,0.3,0.2,0.5,0.5,0.5h0h0
				h1.8h5.3c0.3,0,0.5-0.2,0.5-0.5v-1.8C48.5,15.7,48.3,15.4,48.1,15.4z"/>
			<path class="st2" d="M52.3,6.3h-1.8c-0.3,0-0.5,0.2-0.5,0.5v10.9c0,0.3,0.2,0.5,0.5,0.5h1.8c0.3,0,0.5-0.2,0.5-0.5V6.8
				C52.8,6.5,52.6,6.3,52.3,6.3z"/>
			<path class="st2" d="M64.4,6.3h-1.8c-0.3,0-0.5,0.2-0.5,0.5v6.5l-5-6.8c0,0,0,0,0,0c0,0,0,0,0,0c0,0,0,0,0,0c0,0,0,0,0,0
				c0,0,0,0,0,0c0,0,0,0,0,0c0,0,0,0,0,0c0,0,0,0,0,0c0,0,0,0,0,0c0,0,0,0,0,0c0,0,0,0,0,0c0,0,0,0,0,0c0,0,0,0,0,0c0,0,0,0,0,0
				c0,0,0,0,0,0c0,0,0,0,0,0c0,0,0,0,0,0c0,0,0,0,0,0c0,0,0,0,0,0H55c-0.3,0-0.5,0.2-0.5,0.5v10.9c0,0.3,0.2,0.5,0.5,0.5h1.8
				c0.3,0,0.5-0.2,0.5-0.5v-6.5l5,6.8c0,0,0.1,0.1,0.1,0.1c0,0,0,0,0,0c0,0,0,0,0,0c0,0,0,0,0,0c0,0,0,0,0,0c0,0,0,0,0,0
				c0,0,0,0,0,0c0,0,0,0,0,0c0,0,0,0,0,0c0,0,0.1,0,0.1,0h1.8c0.3,0,0.5-0.2,0.5-0.5V6.8C64.9,6.5,64.7,6.3,64.4,6.3z"/>
		</g>
		<g>
			<path class="st2" d="M40.6,22.4c0-0.3,0.2-0.5,0.5-0.5h3.7c2.9,0,4.9,1.6,4.9,4c0,2.4-1.9,4-4.9,4h-1.2v3c0,0.3-0.2,0.5-0.5,0.5
				h-2c-0.3,0-0.5-0.2-0.5-0.5V22.4z M43.5,24.5v2.8H45c0.9,0,1.5-0.6,1.5-1.4c0-0.8-0.6-1.4-1.5-1.4H43.5z"/>
			<path class="st2" d="M62.8,27.7c0,3.3-2.7,6-6,6c-3.3,0-6-2.7-6-6c0-3.3,2.7-6,6-6C60.1,21.6,62.8,24.3,62.8,27.7z M59.6,27.7
				c0-1.7-1.3-3.1-2.9-3.1c-1.6,0-2.9,1.4-2.9,3.1c0,1.7,1.3,3.1,2.9,3.1C58.4,30.7,59.6,29.4,59.6,27.7z"/>
			<path class="st2" d="M64.6,21.9h2c0.3,0,0.5,0.2,0.5,0.5V33c0,0.3-0.2,0.5-0.5,0.5h-2c-0.3,0-0.5-0.2-0.5-0.5V22.4
				C64.1,22.1,64.3,21.9,64.6,21.9z"/>
			<path class="st2" d="M72.2,26.9V33c0,0.3-0.2,0.5-0.5,0.5h-2c-0.3,0-0.5-0.2-0.5-0.5V22.4c0-0.3,0.2-0.5,0.5-0.5h2.4
				c0.2,0,0.3,0.1,0.4,0.2l4.1,6.5v-6.2c0-0.3,0.2-0.5,0.5-0.5h2c0.3,0,0.5,0.2,0.5,0.5V33c0,0.3-0.2,0.5-0.5,0.5h-2.4
				c-0.2,0-0.3-0.1-0.4-0.2L72.2,26.9z"/>
			<path class="st2" d="M87,24.7V33c0,0.3-0.2,0.5-0.5,0.5h-2c-0.3,0-0.5-0.2-0.5-0.5v-8.3h-2.7c-0.3,0-0.5-0.2-0.5-0.5v-1.8
				c0-0.3,0.2-0.5,0.5-0.5h8.3c0.3,0,0.5,0.2,0.5,0.5v1.8c0,0.3-0.2,0.5-0.5,0.5H87z"/>
			<path class="st2" d="M98.4,25.4c-0.2,0.2-0.5,0.2-0.7,0c-0.5-0.5-1.3-0.9-2.2-0.9c-0.7,0-1.1,0.3-1.1,0.7c0,1.5,5.6,0.8,5.6,4.8
				c0,2.1-1.9,3.7-4.6,3.7c-2.3,0-3.7-0.8-4.4-1.8c-0.2-0.2-0.1-0.5,0-0.6l1.4-1.3c0.2-0.2,0.5-0.2,0.7,0c0.6,0.7,1.4,1,2.3,1
				c0.9,0,1.4-0.3,1.4-0.8c0-1.6-5.6-0.8-5.6-4.9c0-2.1,1.9-3.6,4.4-3.6c1.8,0,3.2,0.7,4.1,1.8c0.2,0.2,0.1,0.5,0,0.6L98.4,25.4z"/>
		</g>
	</g>
</g>
</svg>
