<?xml version="1.0" encoding="utf-8"?>
<!-- Generator: Adobe Illustrator 24.3.0, SVG Export Plug-In . SVG Version: 6.00 Build 0)  -->
<svg version="1.1" id="圖層_1" xmlns="http://www.w3.org/2000/svg" xmlns:xlink="http://www.w3.org/1999/xlink" x="0px" y="0px"
	 viewBox="0 0 100 40" style="enable-background:new 0 0 100 40;" xml:space="preserve">
<style type="text/css">
	.st0{fill:#009FE8;}
	.st1{fill:#E4006E;}
	.st2{fill:#C2D500;}
	.st3{fill:#006AB7;}
	.st4{fill:#F29700;}
	.st5{fill:#E61218;}
	.st6{fill:#DA6AA4;}
</style>
<g>
	<path class="st0" d="M1.6,6.6C1.5,6.8,0,26.1,0,26.1s9,0.1,9,0C9,26,8.8,13,9,12.3c0.3-0.7,1.2-1,1.9,1.7
		c0.8,2.9,3.6,12.6,3.6,12.4c0-0.1,3.2-13.2,3.2-13.2s0.2-1,1.3-0.7c1.1,0.3,0.9,1.4,1,4.3c0.1,2.8,0,9.6,0,9.6l8.1-0.2
		c0,0-0.8-11.3-1.4-13.3c-0.6-2.1-2.9-7.1-6.1-6.1c-1.7,0.5-2.7,1.5-3.1,2.3c-0.2,0.4-0.7,0.4-0.9,0c-0.5-1-1.6-2.3-3.4-2.2
		C11.2,7,10,8,9.3,8.6C9.1,8.8,8.8,8.7,8.8,8.4L8.7,6.5L1.6,6.6z"/>
	<path class="st1" d="M28.4,11.3h5.4c0,0,0.7,4.3,0.7,4.1s1.1-4.1,1.1-4.1h5.2c0,0-3.3,12.8-4.1,18.7c-0.9,5.9-0.9,8.9-1.5,9.4
		c-0.6,0.5-1.7,0-3.9-1.5s-6.2-3.8-9.7-3.9S17,33.8,17,33.8l2.8-5.4c0,0,3.9,0.9,6.8-0.3s5.3-2,5.2-4.8S28.4,11.3,28.4,11.3z"/>
	<g>
		<path class="st2" d="M47,21.6c0-4.4,4.4-7.6,9.9-7.6c1.1,0,2.2,0.2,3.2,0.4l0-7.1c-1.8-0.9-3.8-1-6-1c-7,0-12.7,5.7-12.7,12.7
			c0,7,5.3,12.7,12.3,12.7c3.7,0,7.7-1.1,9.4-4.4c-1.8,1.3-4.1,2.2-6.7,2.2C51,29.7,47,26.1,47,21.6z"/>
	</g>
	<path class="st3" d="M94.4,7.4v4.7c-0.3,0-0.6-0.1-0.8-0.1c-3.5,0-6,3.3-6.3,7.3c-0.4,7,7.1,7.3,7.1,7.3h5.6V7.4H94.4z M93.6,23
		c-1.3,0-2.4-1.3-2.4-2.9c0-1.6,1.1-2.9,2.4-2.9c0.3,0,0.5,0.1,0.8,0.1v5.4C94.2,22.9,93.9,23,93.6,23z"/>
	<path class="st4" d="M80.5,19.7l0.7,6.3h-6.6V11.4h5l0.3,2.3c0,0,0.5-2.4,3-2.4c1.5,0,3.3,0.8,3.3,3.6c0,2.5-1.2,3.2-2.3,3.2
		c-1.1,0-2.2-0.8-2.8-0.8C80.4,17.2,80.2,17.2,80.5,19.7z"/>
	<polygon class="st5" points="72.7,0.4 74.2,3.3 77.4,3.8 75,6 75.6,9.2 72.7,7.7 69.8,9.2 70.4,6 68.1,3.8 71.3,3.3 	"/>
	<path class="st6" d="M71.8,16c-0.8-3-2.8-4.8-5.8-4.6c-3,0.2-4,3.6-4.1,4.9c0,0,1.6-1.4,3.2-0.7C66.9,16.1,67,18,67,18
		s-3-0.3-4.5,1c-1.5,1.4-1.2,4.1-0.2,5.4c0.8,0.9,2.3,1.9,4.5,0.7l0.1,0.4h5.8C72.7,25.5,72.7,18.9,71.8,16z M65.9,24.1
		c-0.9,0-1.7-0.7-1.7-1.7c0-0.9,0.7-1.7,1.7-1.7c0.9,0,1.7,0.7,1.7,1.7C67.6,23.3,66.8,24.1,65.9,24.1z"/>
</g>
</svg>
