<?xml version="1.0" encoding="utf-8"?>
<!-- Generator: Adobe Illustrator 24.3.0, SVG Export Plug-In . SVG Version: 6.00 Build 0)  -->
<svg version="1.1" id="圖層_1" xmlns="http://www.w3.org/2000/svg" xmlns:xlink="http://www.w3.org/1999/xlink" x="0px" y="0px"
	 viewBox="0 0 50 50" style="enable-background:new 0 0 50 50;" xml:space="preserve">
<style type="text/css">
	.st0{opacity:0.9;fill:#FFFFFF;}
	.st1{opacity:0.9;fill:none;stroke:#DD553E;stroke-width:2.8147;stroke-miterlimit:10;}
	.st2{opacity:0.9;}
	.st3{fill:#DD553E;}
</style>
<ellipse transform="matrix(0.2588 -0.9659 0.9659 0.2588 -5.6022 42.1035)" class="st0" cx="24.6" cy="24.7" rx="23" ry="22.9"/>
<ellipse transform="matrix(0.2588 -0.9659 0.9659 0.2588 -5.6022 42.1035)" class="st1" cx="24.6" cy="24.7" rx="23" ry="22.9"/>
<g class="st2">
	<path class="st3" d="M10.7,17.5l4.8,1.3l0.5,0.1c-0.4-0.8-0.9-1.5-1.4-2.3L16,16c1.2,1.7,2.1,3.5,2.9,5.1l-1.5,0.6
		c-0.2-0.5-0.4-1-0.7-1.5l-0.6,2.4l-0.2,0.7L15.7,24l-1.8-0.5l-0.5,2c-0.1,0.3,0.1,0.6,0.5,0.7l1.1,0.3c0.3,0.1,0.6-0.1,0.7-0.5
		l0.2-0.8l1.4,0.7L17,27c-0.3,1-0.9,1.4-1.8,1.2l-2.3-0.6c-1-0.3-1.4-0.9-1.1-1.9l0.6-2.4l-1.4-0.4c-0.7,2.3-2.5,3.4-5.3,3.1
		l-0.4-1.6c2.3,0.3,3.7-0.4,4.2-1.9l-1.6-0.4L8,21.2l0.2-0.7l0.5-1.8c-0.3,0.2-0.7,0.3-1,0.5l-0.8-1.4c1.9-0.7,3.4-1.7,4.6-2.9
		l1.1,1C12,16.5,11.4,17,10.7,17.5z M15.1,20.2l-4.8-1.3l-0.5,2l4.8,1.3L15.1,20.2z"/>
	<path class="st3" d="M30.9,23.1l-1.2,4.6l0.5,0.1l-0.4,1.4l-3-0.8c0.5,0.9,1.4,1.7,2.6,2.4l-1.1,1.1c-1.4-0.9-2.3-2-2.8-3.2
		c-1,0.8-2.4,1.3-4.4,1.4l-0.4-1.5c1.5,0,2.7-0.3,3.5-0.8l-2.6-0.7l0.4-1.4l0.6,0.2l0.9-3.3l0.2-0.7l-0.4-0.8l-0.2,0.6l-0.8-0.2
		l-0.5,2c0.3,0,0.6,0,0.9,0L22.4,25c-0.3,0-0.7,0-1,0l-0.9,3.4c-0.2,0.8-0.8,1.2-1.6,0.9l-1.2-0.3l0.1-1.6l0.8,0.2
		c0.3,0.1,0.5,0,0.5-0.3l0.6-2.4c-0.4,0-0.8-0.1-1.2-0.1l0.2-1.6c0.5,0.1,1,0.1,1.5,0.2l0.6-2.3l-1.2-0.3l0.4-1.4l1.2,0.3l0.5-2
		l1.5,0.4l-0.5,2l0.8,0.2l-0.1,0.4c1-0.3,1.9-0.9,2.7-1.8l1.5,0.4c-0.2,0.2-0.4,0.4-0.5,0.6l3.4,0.9L30.1,22l-0.9,0.7l0.3,0.1
		l0.7,0.2L30.9,23.1z M28.5,21.6l-2.6-0.7c-0.3,0.2-0.7,0.5-1.1,0.6l2.7,0.7L28.5,21.6z M24.3,24.8c0.9-0.3,1.6-0.8,2.3-1.4
		l-1.8-0.5L24.3,24.8z M26.6,25c-0.5,0.4-1.1,0.6-1.7,0.9l-0.6-1l-0.4,1.4l1.3,0.4c0-0.1,0.1-0.2,0.1-0.3l0.2-0.6l1.5,0.4l-0.2,0.6
		c0,0.1-0.1,0.2-0.1,0.3l1.7,0.4l0.4-1.3l-0.9,0.5C27.5,26.1,27.1,25.5,26.6,25z M28,23.9c-0.1,0.1-0.3,0.3-0.4,0.4
		c0.5,0.5,0.9,1,1.3,1.6l0.5-1.7l-1.5-0.4L28,23.9z"/>
	<path class="st3" d="M42,32.7l-0.4,1.5c-0.2,0.7-0.6,1-1.3,0.8l-3.1-0.8c-0.7-0.2-0.9-0.6-0.7-1.4l0.8-3.1l-1.7-0.4l0,0.2
		c-0.5,1.9-2.3,3-5.3,3.1L30,30.9c2.4,0,3.7-0.6,4.1-1.9l0-0.2l-3-0.8l0.4-1.5l11.2,3L42.3,31l-3.4-0.9l-0.7,2.5
		c0,0.2,0,0.3,0.3,0.4l1.4,0.4c0.2,0.1,0.4,0,0.4-0.2l0.3-1.1L42,32.7z M41.9,25.8l-8-2.1l-0.4,1.6L32,24.9l0.4-1.6l0.2-0.7l0.2-0.7
		l4.7,1.3c0-0.3,0.1-0.7,0.1-1.1l1.6,0.3c0,0.4,0,0.8-0.1,1.2l3.2,0.9l0.8,0.2l0.8,0.2L43,27.8l-1.5-0.4L41.9,25.8z M34.2,24.7
		l7,1.9L40.8,28l-7-1.9L34.2,24.7z"/>
</g>
</svg>
