<?xml version="1.0" encoding="utf-8"?>
<!-- Generator: Adobe Illustrator 24.3.0, SVG Export Plug-In . SVG Version: 6.00 Build 0)  -->
<svg version="1.1" id="Layer_5" xmlns="http://www.w3.org/2000/svg" xmlns:xlink="http://www.w3.org/1999/xlink" x="0px" y="0px"
	 viewBox="0 0 223 228" style="enable-background:new 0 0 223 228;" xml:space="preserve">
<style type="text/css">
	.st0{fill:#EEEEEE;}
	.st1{fill:#020202;}
	.st2{fill:#313238;}
	.st3{fill:#604B32;}
	.st4{fill:#E8AB74;}
	.st5{fill:#FCDBB1;}
	.st6{fill:#0F0100;}
	.st7{fill:#FF7F5C;}
	.st8{fill:#FFC871;}
	.st9{fill:#F7B85C;}
	.st10{fill:#FFD18F;}
</style>
<g>
	<g>
		<g>
			<rect x="23.8" y="218.8" class="st0" width="6.4" height="6.4"/>
		</g>
		<g>
			<path class="st1" d="M30.9,225.2c0,1.6-1.4,2.8-3.1,2.8H19c-1.7,0-3.1-1.3-3.1-2.8l0,0c0-1.6,1.4-2.8,3.1-2.8h10.7
				C31.4,222.3,30.9,223.6,30.9,225.2L30.9,225.2z"/>
		</g>
		<g>
			<rect x="95.2" y="218.8" class="st0" width="5.7" height="6.4"/>
		</g>
		<g>
			<path class="st1" d="M94.3,225.2c0,1.6,1.4,2.8,3.1,2.8h8.7c1.7,0,3.1-1.3,3.1-2.8l0,0c0-1.6-1.4-2.8-3.1-2.8H95.5
				C93.7,222.3,94.3,223.6,94.3,225.2L94.3,225.2z"/>
		</g>
		<path class="st2" d="M90.9,180.6H34.3H23.1v10.7v31h7.8v-22.9c0-4.3,3.7-7.5,8-8.2h47.4c4.2,0.7,7.5,3.7,8.2,7.9v23.2h7.1v-31
			v-10.7H90.9z"/>
	</g>
	<path class="st3" d="M104.4,85.7c0,0,1.3-0.2,1.3-3.5s0.4-37,0.4-37S129,25,110.9,0c0,0-1.6,17.3-15.5,14.8
		c-14-2.4-45.4-7.3-54.9-6.9c-9.5,0.4-27.9,7.5-26.1,32.3C16,65.1,18.5,94,20,98.6c1.8,5.5,70.7-4.9,70.7-4.9L104.4,85.7z"/>
	<path class="st4" d="M28.8,91.5c0,2-1.6,3.6-3.6,3.6h-4.9c-2,0-3.6-1.6-3.6-3.6v-7.7c0-2,1.6-3.6,3.6-3.6h4.9c2,0,3.6,1.6,3.6,3.6
		V91.5z"/>
	<path class="st4" d="M108,91.5c0,2-1.6,3.6-3.6,3.6h-4.9c-2,0-3.6-1.6-3.6-3.6v-7.7c0-2,1.6-3.6,3.6-3.6h4.9c2,0,3.6,1.6,3.6,3.6
		V91.5z"/>
	<path class="st0" d="M101.7,102.3c-0.2-0.1-78.6-0.1-78.9,0c-0.4,0-1.2,0.1-1.2,0.2v8.3v68v2.9c0,1.1,0.8,2.5,1.9,2.5h77.5
		c1.1,0,1.9-1.4,1.9-2.5v-70.8v-0.1v-8.3C103,102.4,102.2,102.3,101.7,102.3z"/>
	<path class="st5" d="M7.5,52.2c0,1.8-1.4,3.2-3.2,3.2l0,0c-1.8,0-3.2-1.4-3.2-3.2v-17c0-1.8,1.4-3.2,3.2-3.2l0,0
		c1.8,0,3.2,1.4,3.2,3.2V52.2z"/>
	<path class="st5" d="M160.1,116.9l4.5-1.6c1.7-0.6,2.7-2.4,2.1-4.1c-0.6-1.7-2.5-2.5-4.2-1.9l-4.5,1.6L160.1,116.9z"/>
	<polygon class="st1" points="67.8,156.9 62.7,160.6 57.6,156.9 59.8,126.2 65.7,126.2 	"/>
	<path class="st5" d="M100.9,121.8c0,4-3.7,7.2-8.3,7.2H31.4c-4.6,0-8.3-3.2-8.3-7.2V54.9c0-4,3.7-7.2,8.3-7.2h61.1
		c4.6,0,8.3,3.2,8.3,7.2V121.8z"/>
	<path class="st6" d="M42.8,93.8c0,2.2-1.8,4-4,4c-2.2,0-4-1.8-4-4c0-2.2,1.8-4,4-4C41,89.8,42.8,91.6,42.8,93.8z"/>
	<path class="st0" d="M38.3,92.8c0,0.6-0.5,1-1,1c-0.6,0-1-0.5-1-1s0.5-1,1-1C37.9,91.8,38.3,92.2,38.3,92.8z"/>
	<path class="st6" d="M89.9,93.8c0,2.2-1.8,4-4,4c-2.2,0-4-1.8-4-4c0-2.2,1.8-4,4-4C88.1,89.8,89.9,91.6,89.9,93.8z"/>
	<path class="st7" d="M72.3,108.3c-0.4-0.6-1.1-1.3-1.9-1.3H53.6c-0.8,0-1.5,0.7-1.9,1.4c-0.4,0.7-0.5,1.6-0.1,2.4
		c0.4,0.9,4.4,8.8,10.9,8.8c6.8,0,10-8.7,10.1-9C72.8,109.8,72.7,108.9,72.3,108.3z"/>
	<polygon class="st3" points="78.8,46.2 45.6,46.2 62.2,61.2 	"/>
	<path class="st0" d="M85.6,92.8c0,0.6-0.5,1-1,1c-0.6,0-1-0.5-1-1s0.5-1,1-1C85.1,91.8,85.6,92.2,85.6,92.8z"/>
	<g>
		<path class="st0" d="M138.8,121.2c-6.1,0-12.3-1.1-17.1-4.5c-9-6.3-20.1-6.5-20.2-6.5l0.1-8.1c0.6,0,13.7,0.2,24.7,7.9
			c9,6.2,27.6,1.4,34-1l2.8,7.5C162.4,116.9,150.7,121.2,138.8,121.2z"/>
	</g>
	<g>
		<path class="st0" d="M19.6,110.4c-3.6,0-9.2-0.7-13.4-4.3c-3.7-3.1-5.7-7.7-5.7-13.5V38.5H9v54.2c0,3.4,0.8,5.8,2.6,7.3
			c3.1,2.7,8.6,2.5,10.5,2.2l1.3,8C22.9,110.2,21.5,110.4,19.6,110.4z"/>
	</g>
	<g>
		<path class="st8" d="M209.5,140.8c-1.7-2.4-3.5-5.8-4.8-9.5c-1.5-4.2-1.9-8.4-2.4-11.6l-2.5-7.2l-7.1,2.5l2.4,6.8
			c2.2,2.8,4.3,6.5,5.9,10.9c1.3,3.7,2.2,7.4,2.4,10.4L209.5,140.8z"/>
		<path class="st9" d="M169.9,93c-7.4,2.6-11.3,10.7-8.7,18.1c2.6,7.4,10.7,11.3,18.1,8.7c7.4-2.6,11.3-10.7,8.7-18.1
			C185.4,94.3,177.3,90.4,169.9,93z M178.2,116.7c-5.7,2-11.9-1-13.9-6.6c-2-5.7,1-11.9,6.6-13.9c5.7-2,11.9,1,13.9,6.6
			C186.9,108.4,183.9,114.7,178.2,116.7z"/>
		<path class="st9" d="M203.6,81.1c-7.4,2.6-11.3,10.7-8.7,18.1c2.6,7.4,10.7,11.3,18.1,8.7c7.4-2.6,11.3-10.7,8.7-18.1
			C219.1,82.4,211,78.5,203.6,81.1z M211.9,104.8c-5.7,2-11.9-1-13.9-6.6c-2-5.7,1-11.9,6.6-13.9c5.7-2,11.9,1,13.9,6.6
			C220.6,96.5,217.6,102.8,211.9,104.8z"/>
		<path class="st10" d="M169.9,92l6.6,18.7c3.3,9.3,13.5,14.2,22.8,11c9.3-3.3,14.2-13.5,10.9-22.8l-6.6-18.7L169.9,92z"/>
		<polygon class="st10" points="221.2,140.4 194.5,149.8 195,145.4 218,137.2 		"/>
	</g>
</g>
</svg>
