<?xml version="1.0" encoding="utf-8"?>
<!-- Generator: Adobe Illustrator 24.3.0, SVG Export Plug-In . SVG Version: 6.00 Build 0)  -->
<svg version="1.1" id="artwork" xmlns="http://www.w3.org/2000/svg" xmlns:xlink="http://www.w3.org/1999/xlink" x="0px" y="0px"
	 viewBox="0 0 165 59" style="enable-background:new 0 0 165 59;" xml:space="preserve">
<style type="text/css">
	.st0{fill:#FFFFFF;}
	.st1{fill:url(#SVGID_1_);}
	.st2{fill:url(#SVGID_2_);}
	.st3{fill:url(#SVGID_3_);}
	.st4{fill:url(#SVGID_4_);}
	.st5{fill:url(#SVGID_5_);}
	.st6{fill:url(#SVGID_6_);}
	.st7{fill:url(#SVGID_7_);}
	.st8{fill:url(#SVGID_8_);}
	.st9{fill:#1FB78F;}
</style>
<g>
	<g>
		<g>
			<polygon class="st0" points="83.6,44 65.6,33 69.5,30.6 87.5,41.7 			"/>
			<polygon class="st0" points="31.5,48.5 27.7,46.1 52.8,30.7 56.7,33 			"/>
			<path class="st0" d="M98.3,44.5v-1.7l-1.9-1.2l41.2-25.4l3.8,2.4L100.2,44C99.7,44.3,99,44.5,98.3,44.5z"/>
			<path class="st0" d="M23.3,58.4c-6.5,0-11.7-3.2-11.7-7.2S16.9,44,23.3,44c6.5,0,11.7,3.2,11.7,7.2S29.8,58.4,23.3,58.4z"/>
			<path class="st0" d="M61.2,35.1c-6.5,0-11.7-3.2-11.7-7.2s5.3-7.2,11.7-7.2c6.5,0,11.7,3.2,11.7,7.2S67.6,35.1,61.2,35.1z"/>
			<path class="st0" d="M91.9,53.9c-6.5,0-11.7-3.2-11.7-7.2s5.3-7.2,11.7-7.2c6.5,0,11.7,3.2,11.7,7.2S98.4,53.9,91.9,53.9z"/>
			<path class="st0" d="M145.8,20.7c-6.5,0-11.7-3.2-11.7-7.2s5.3-7.2,11.7-7.2c6.5,0,11.7,3.2,11.7,7.2S152.3,20.7,145.8,20.7z"/>
		</g>
	</g>
	<g>
		
			<linearGradient id="SVGID_1_" gradientUnits="userSpaceOnUse" x1="9.8742" y1="41.4328" x2="30.4437" y2="25.0672" gradientTransform="matrix(1 0 0 -1 0 82.0012)">
			<stop  offset="0" style="stop-color:#FFFFFF"/>
			<stop  offset="1" style="stop-color:#808285"/>
		</linearGradient>
		<path class="st1" d="M21.1,58.4c-7.5,0-13.6-4-13.6-8.9s6.1-8.9,13.6-8.9s13.6,4,13.6,8.9S28.6,58.4,21.1,58.4z"/>
		
			<linearGradient id="SVGID_2_" gradientUnits="userSpaceOnUse" x1="11.6" y1="29.0513" x2="35" y2="29.0513" gradientTransform="matrix(1 0 0 -1 0 82.0012)">
			<stop  offset="0" style="stop-color:#005D50"/>
			<stop  offset="1" style="stop-color:#0F9978"/>
		</linearGradient>
		<path class="st2" d="M23.3,54.4c-6.5,0-11.7-3.2-11.7-7.2v4.3c0,4,5.3,7.2,11.7,7.2c6.5,0,11.7-3.2,11.7-7.2v-4.3
			C35,51.2,29.8,54.4,23.3,54.4z"/>
	</g>
	
		<linearGradient id="SVGID_3_" gradientUnits="userSpaceOnUse" x1="47.7405" y1="65.0095" x2="68.31" y2="48.644" gradientTransform="matrix(1 0 0 -1 0 82.0012)">
		<stop  offset="0" style="stop-color:#FFFFFF"/>
		<stop  offset="1" style="stop-color:#808285"/>
	</linearGradient>
	<path class="st3" d="M59,34.9c-7.5,0-13.6-4-13.6-8.9s6.1-9,13.6-9s13.6,4,13.6,8.9S66.5,34.9,59,34.9z"/>
	
		<linearGradient id="SVGID_4_" gradientUnits="userSpaceOnUse" x1="49.4688" y1="57.4513" x2="72.8688" y2="57.4513" gradientTransform="matrix(1 0 0 -1 0 82.0012)">
		<stop  offset="0" style="stop-color:#005D50"/>
		<stop  offset="1" style="stop-color:#0F9978"/>
	</linearGradient>
	<path class="st4" d="M61.2,21.2c-6.5,0-11.7-3.2-11.7-7.2v13.9c0,4,5.3,7.2,11.7,7.2c6.5,0,11.7-3.2,11.7-7.2V14
		C72.9,18,67.6,21.2,61.2,21.2z"/>
	<g>
		
			<linearGradient id="SVGID_5_" gradientUnits="userSpaceOnUse" x1="78.4349" y1="46.164" x2="99.0045" y2="29.7984" gradientTransform="matrix(1 0 0 -1 0 82.0012)">
			<stop  offset="0" style="stop-color:#FFFFFF"/>
			<stop  offset="1" style="stop-color:#808285"/>
		</linearGradient>
		<path class="st5" d="M89.7,53.7c-7.5,0-13.6-4-13.6-8.9s6.1-8.9,13.6-8.9s13.6,4,13.6,8.9C103.3,49.6,97.2,53.7,89.7,53.7z"/>
		
			<linearGradient id="SVGID_6_" gradientUnits="userSpaceOnUse" x1="80.2" y1="34.7513" x2="103.6" y2="34.7513" gradientTransform="matrix(1 0 0 -1 0 82.0012)">
			<stop  offset="0" style="stop-color:#005D50"/>
			<stop  offset="1" style="stop-color:#0F9978"/>
		</linearGradient>
		<path class="st6" d="M91.9,47.8c-6.5,0-11.7-3.2-11.7-7.2v6.1c0,4,5.3,7.2,11.7,7.2c6.5,0,11.7-3.2,11.7-7.2v-6.1
			C103.6,44.6,98.4,47.8,91.9,47.8z"/>
	</g>
	
		<linearGradient id="SVGID_7_" gradientUnits="userSpaceOnUse" x1="132.3295" y1="79.3683" x2="152.8991" y2="63.0028" gradientTransform="matrix(1 0 0 -1 0 82.0012)">
		<stop  offset="0" style="stop-color:#FFFFFF"/>
		<stop  offset="1" style="stop-color:#808285"/>
	</linearGradient>
	<path class="st7" d="M143.6,20.5c-7.5,0-13.6-4-13.6-8.9s6.1-8.9,13.6-8.9s13.6,4,13.6,8.9S151.1,20.5,143.6,20.5z"/>
	
		<linearGradient id="SVGID_8_" gradientUnits="userSpaceOnUse" x1="134.1" y1="67.9513" x2="157.5" y2="67.9513" gradientTransform="matrix(1 0 0 -1 0 82.0012)">
		<stop  offset="0" style="stop-color:#005D50"/>
		<stop  offset="1" style="stop-color:#0F9978"/>
	</linearGradient>
	<path class="st8" d="M145.8,14.6c-6.5,0-11.7-3.2-11.7-7.2v6.1c0,4,5.3,7.2,11.7,7.2c6.5,0,11.7-3.2,11.7-7.2V7.4
		C157.5,11.4,152.3,14.6,145.8,14.6z"/>
	<path class="st9" d="M24.7,40.1c-0.4,0-0.9-0.1-1.4-0.1c-3.1,0-5.9,0.8-8,2c-2.3,1.3-3.7,3.2-3.7,5.2c0,4,5.3,7.2,11.7,7.2
		c6.5,0,11.7-3.2,11.7-7.2C35,43.5,30.5,40.5,24.7,40.1z"/>
	<path class="st9" d="M62.9,6.9c-0.6,0-1.1-0.1-1.7-0.1c-3.2,0-6.1,0.8-8.2,2.1c-2.2,1.3-3.5,3.1-3.5,5.1c0,4,5.3,7.2,11.7,7.2
		c6.5,0,11.7-3.2,11.7-7.2C72.9,10.4,68.5,7.4,62.9,6.9z"/>
	<path class="st9" d="M147.5,0.3c-0.6-0.1-1.1-0.1-1.7-0.1c-3.1,0-5.9,0.8-8,2c-2.3,1.3-3.7,3.2-3.7,5.2c0,4,5.3,7.2,11.7,7.2
		c6.5,0,11.7-3.2,11.7-7.2C157.5,3.8,153.2,0.8,147.5,0.3z"/>
	<path class="st9" d="M93,33.4c-0.3,0-0.7,0-1,0c-3.1,0-6,0.8-8.1,2c-2.2,1.3-3.6,3.2-3.6,5.2c0,4,5.3,7.2,11.7,7.2
		c6.5,0,11.7-3.2,11.7-7.2C103.6,36.9,98.9,33.8,93,33.4z"/>
</g>
</svg>
