<?xml version="1.0" encoding="utf-8"?>
<!-- Generator: Adobe Illustrator 24.3.0, SVG Export Plug-In . SVG Version: 6.00 Build 0)  -->
<svg version="1.1" id="圖層_1" xmlns="http://www.w3.org/2000/svg" xmlns:xlink="http://www.w3.org/1999/xlink" x="0px" y="0px"
	 viewBox="0 0 210 142" style="enable-background:new 0 0 210 142;" xml:space="preserve">
<style type="text/css">
	.st0{fill:#EEEEEE;}
	.st1{fill:#020202;}
	.st2{fill:#604B32;}
	.st3{fill:#E8AB74;}
	.st4{fill:#FCDBB1;}
	.st5{fill:#313238;}
	.st6{fill:#EF7348;}
	.st7{fill:#222226;}
	.st8{fill:#0F0100;}
	.st9{fill:#FF7F5C;}
	.st10{fill:#606168;}
</style>
<g>
	<g>
		<rect x="175" y="131.2" class="st0" width="3.5" height="3.8"/>
	</g>
	<g>
		<path class="st1" d="M174.3,135.6c0,0.9,0.8,1.7,1.9,1.7h5.3c1,0,1.9-0.8,1.9-1.7l0,0c0-0.9-0.8-1.7-1.9-1.7h-6.4
			C174,133.9,174.3,134.7,174.3,135.6L174.3,135.6z"/>
	</g>
	<g>
		<rect x="132" y="131.2" class="st0" width="3.8" height="3.8"/>
	</g>
	<g>
		<path class="st1" d="M136.2,135.6c0,0.9-0.8,1.7-1.9,1.7H129c-1,0-1.9-0.8-1.9-1.7l0,0c0-0.9,0.8-1.7,1.9-1.7h6.4
			C136.5,133.9,136.2,134.7,136.2,135.6L136.2,135.6z"/>
	</g>
	<g>
		<path class="st2" d="M130,51.6c0,0-0.8-0.1-0.8-2.1c0-2-0.3-22.2-0.3-22.2s-13.7-12.1-2.8-27.2c0,0,0.9,10.4,9.3,8.9
			c8.4-1.5,27.3-4.4,33-4.1c5.7,0.3,16.8,4.5,15.7,19.4c-1.1,14.9-2.5,32.2-3.5,35c-1.1,3.3-42.5-2.9-42.5-2.9L130,51.6z"/>
	</g>
	<g>
		<path class="st3" d="M182.6,50.1c0-1.2-1-2.1-2.1-2.1h-2.6c-1.2,0-2.1,1-2.1,2.1V55c0,1.2,1,2.1,2.1,2.1h2.6c1.2,0,2.1-1,2.1-2.1
			V50.1z"/>
	</g>
	<g>
		<path class="st3" d="M135,50.1c0-1.2-1-2.1-2.1-2.1h-2.6c-1.2,0-2.1,1-2.1,2.1V55c0,1.2,1,2.1,2.1,2.1h2.6c1.2,0,2.1-1,2.1-2.1
			V50.1z"/>
	</g>
	<g>
		<path class="st4" d="M187.6,97.4c0-1.1-0.9-1.9-1.9-1.9l0,0c-1.1,0-1.9,0.9-1.9,1.9v10c0,1.1,0.9,1.9,1.9,1.9l0,0
			c1.1,0,1.9-0.9,1.9-1.9V97.4z"/>
	</g>
	<path class="st5" d="M138.2,108.6h34.1h6.6v6.4v18.6h-4.6v-13.7c0-2.6-2.1-4.7-4.7-4.7h-28.6c-2.6,0-4.7,2-4.7,4.6v13.9h-4.6v-18.6
		v-6.4H138.2z"/>
	<polygon class="st0" points="155.6,95 143.4,77.5 167.8,77.5 	"/>
	<g>
		<polygon class="st6" points="152,94.4 155,96.6 158.1,94.4 156.8,75.9 153.3,75.9 		"/>
	</g>
	<polygon class="st0" points="183,101.5 183,105.9 188,105.9 188,101.5 	"/>
	<path class="st7" d="M136.9,65L155,93.4l20.9-31.9c1.9,0,3,0,3.1,0c1.6,0.2,3.9,0.8,5.8,2.5c2.2,2,3.3,4.9,3.3,8.6V104h-5V72.6
		c0-2.3-0.5-3.9-1.6-5c-0.6-0.5-1-0.8-1.8-1v42.6c0,0.7-0.4,1.3-1,1.3H132c-0.7,0-1.1-0.6-1.1-1.3V66.6v-3.8h3.9L136.9,65z"/>
	<g>
		<polygon class="st5" points="155.2,93.4 168.6,83.7 169.3,79 175.1,72.8 176.1,61.5 		"/>
	</g>
	<g>
		<polygon class="st5" points="155.2,93.4 141.8,83.7 141.2,79 135.3,72.8 134.9,61.5 		"/>
	</g>
	<g>
		<path class="st4" d="M178.4,33.1c0-2.4-2.2-4.3-5-4.3H137c-2.8,0-5,1.9-5,4.3v40.5c0,2.4,2.2,4.3,5,4.3h36.4c2.8,0,5-1.9,5-4.3
			V33.1z"/>
	</g>
	<g>
		<path class="st8" d="M167,56.4c0,1.3,1.1,2.4,2.4,2.4c1.3,0,2.4-1.1,2.4-2.4c0-1.3-1.1-2.4-2.4-2.4C168.1,54,167,55.1,167,56.4z"
			/>
	</g>
	<g>
		<path class="st0" d="M169.7,55.8c0,0.3,0.3,0.6,0.6,0.6c0.3,0,0.6-0.3,0.6-0.6c0-0.3-0.3-0.6-0.6-0.6
			C170,55.2,169.7,55.5,169.7,55.8z"/>
	</g>
	<g>
		<path class="st8" d="M138.7,56.4c0,1.3,1.1,2.4,2.4,2.4c1.3,0,2.4-1.1,2.4-2.4c0-1.3-1.1-2.4-2.4-2.4
			C139.8,54,138.7,55.1,138.7,56.4z"/>
	</g>
	<path class="st9" d="M149.7,65.6c0.2-0.2,0.4-0.4,0.7-0.4h10.1c0.3,0,0.6,0.2,0.7,0.4c0.2,0.2,0.2,0.6,0,0.8
		c-0.1,0.2-2.4,4.9-6.1,4.9c-3.7,0-5.5-4.8-5.6-5C149.5,66.1,149.6,65.8,149.7,65.6z"/>
	<g>
		<polygon class="st2" points="145.4,27.6 165.3,27.6 155.3,36.6 		"/>
	</g>
	<g>
		<path class="st0" d="M141.3,55.8c0,0.3,0.3,0.6,0.6,0.6s0.6-0.3,0.6-0.6c0-0.3-0.3-0.6-0.6-0.6S141.3,55.5,141.3,55.8z"/>
	</g>
	<g>
		<path class="st10" d="M186,102.8c0,0.5,0.4,0.9,0.9,0.9c0.5,0,0.9-0.4,0.9-0.9c0-0.5-0.4-0.9-0.9-0.9
			C186.4,101.9,186,102.3,186,102.8z"/>
	</g>
	<g>
		<path class="st10" d="M186,100.6c0,0.5,0.4,0.9,0.9,0.9c0.5,0,0.9-0.4,0.9-0.9c0-0.5-0.4-0.9-0.9-0.9
			C186.4,99.7,186,100.1,186,100.6z"/>
	</g>
</g>
</svg>
