<?xml version="1.0" encoding="utf-8"?>
<!-- Generator: Adobe Illustrator 24.3.0, SVG Export Plug-In . SVG Version: 6.00 Build 0)  -->
<svg version="1.1" id="圖層_1" xmlns="http://www.w3.org/2000/svg" xmlns:xlink="http://www.w3.org/1999/xlink" x="0px" y="0px"
	 viewBox="0 0 210 142" style="enable-background:new 0 0 210 142;" xml:space="preserve">
<style type="text/css">
	.st0{fill:#FCDBB1;}
	.st1{fill:#EEEEEE;}
	.st2{fill:#F2F2F2;}
	.st3{fill:#E8E4E2;}
	.st4{fill:#CCC8C4;}
	.st5{fill:#E76A4C;}
	.st6{fill:#222226;}
	.st7{fill:#606168;}
</style>
<g>
	<path class="st0" d="M96.2,72.1l-4.8-0.6c-1.1-0.1-2.1,0.7-2.3,1.8c-0.1,1.1,0.6,2.1,1.7,2.3l4.8,0.6L96.2,72.1z"/>
	<polygon class="st1" points="96.7,71.8 93.3,71.3 92.6,76.1 96.1,76.6 	"/>
	<g>
		<path class="st2" d="M90.5,82.9c0,0.7-0.6,1.3-1.4,1.3l-79-0.2c-0.7,0-1.3-0.6-1.3-1.4l0.1-40.5c0-0.7,0.6-1.3,1.4-1.3l79,0.2
			c0.7,0,1.3,0.6,1.3,1.4L90.5,82.9z"/>
		<path class="st3" d="M46.9,84.1l42.5,0.1c0,0,1,0.2,1-1.3c0-1.5-37.1-22-37.1-22s-4.4-3-8.1-0.5C41.6,62.8,8.9,81.8,8.9,81.8
			S8.2,84,10.1,84C12,84,46.9,84.1,46.9,84.1z"/>
		<path class="st4" d="M52.5,40.2L9.9,40.1c0,0-1-0.1-1,1.4c0,1.5,37.8,22.1,37.8,22.1s4.4,3.1,8.1,0.5c3.7-2.5,35.7-21.6,35.7-21.6
			s0.7-2.3-1.2-2.3C87.4,40.3,52.5,40.2,52.5,40.2z"/>
		<polygon class="st5" points="81,58.9 82.1,60 83.7,59.8 84,61.4 85.4,62.2 84.7,63.6 85.4,65.1 84,65.8 83.7,67.4 82.1,67.2 
			80.9,68.3 79.8,67.2 78.2,67.4 77.9,65.8 76.5,65.1 77.2,63.6 76.5,62.1 77.9,61.4 78.2,59.8 79.8,60 		"/>
	</g>
	<path class="st6" d="M136.9,65l-2.2-3.5c-2,0-3.2,0-3.2,0c-0.1,0-0.2,0-0.2,0l0,0c-0.3,0-8.5,1.1-16.7,6.6
		c-7.7,5.2-20.1,3.3-20.2,3.3l-0.8,4.9c0.2,0,2.7,0.4,6.2,0.4c5,0,12-0.8,17.6-4.5c5.5-3.7,11.1-5.2,13.4-5.7L136.9,65z"/>
	<g>
		<path class="st7" d="M96.7,72.7c0,0.5,0.4,0.9,0.9,0.9c0.5,0,0.9-0.4,0.9-0.9c0-0.5-0.4-0.9-0.9-0.9
			C97.1,71.9,96.7,72.2,96.7,72.7z"/>
	</g>
	<g>
		<path class="st7" d="M94.6,72.6c0,0.5,0.4,0.9,0.9,0.9c0.5,0,0.9-0.4,0.9-0.9c0-0.5-0.4-0.9-0.9-0.9C95,71.7,94.6,72.1,94.6,72.6z
			"/>
	</g>
</g>
</svg>
