<svg id="圖層_1" data-name="圖層 1" xmlns="http://www.w3.org/2000/svg" xmlns:xlink="http://www.w3.org/1999/xlink" viewBox="0 0 1010 1860"><defs><style>.cls-1{fill:#fff;}.cls-1,.cls-2,.cls-4,.cls-5{stroke:#030000;stroke-linejoin:bevel;stroke-width:4px;}.cls-2{fill:#02dd5b;}.cls-3{fill:none;}.cls-4,.cls-5{stroke-linecap:round;}.cls-4{fill:url(#未命名漸層_4);}.cls-5{fill:url(#未命名漸層_4-2);}</style><linearGradient id="未命名漸層_4" x1="213.71" y1="1713.92" x2="289.53" y2="1231.07" gradientUnits="userSpaceOnUse"><stop offset="0" stop-color="#fff"/><stop offset="1" stop-color="#ccc"/></linearGradient><linearGradient id="未命名漸層_4-2" x1="702.71" y1="1790.7" x2="778.53" y2="1307.85" xlink:href="#未命名漸層_4"/></defs><title>floor</title><polygon class="cls-1" points="505 1279.43 505 1279.43 505 1279.43 505 1279.43"/><polygon class="cls-2" points="505 700.86 3.94 990.15 505 1279.43 505 1279.43 1006.05 990.15 505 700.86"/><polygon class="cls-3" points="505 700.86 3.94 990.15 505 1279.43 505 1279.43 1006.05 990.15 505 700.86"/><polygon class="cls-1" points="505 1279.43 3.94 990.15 3.94 1050.66 505 1339.95 505 1279.43"/><polygon class="cls-4" points="3.94 1050.66 3.94 1568.71 505 1858 505 1339.95 3.94 1050.66"/><polygon class="cls-1" points="1006.05 990.15 505 1279.43 505 1279.43 505 1339.91 1006.05 1051.44 1006.05 990.15"/><polygon class="cls-5" points="505 1339.91 505 1858 1006.05 1568.71 1006.05 1051.44 505 1339.91"/></svg>