<svg id="圖層_1" data-name="圖層 1" xmlns="http://www.w3.org/2000/svg" viewBox="0 0 335 930"><defs><style>.cls-1,.cls-4{fill:#96b2ff;}.cls-1,.cls-2,.cls-3,.cls-4,.cls-5,.cls-6,.cls-9{stroke:#000;stroke-width:4px;}.cls-1,.cls-3,.cls-6,.cls-9{stroke-miterlimit:10;}.cls-2{fill:#c8c9c9;}.cls-2,.cls-4,.cls-5,.cls-7,.cls-9{stroke-linecap:round;}.cls-2,.cls-4,.cls-5,.cls-7{stroke-linejoin:round;}.cls-3{fill:#fcfcff;}.cls-5,.cls-9{fill:#fff;}.cls-6{fill:#3c3636;}.cls-10,.cls-7{fill:none;}.cls-7{stroke:#1b172c;stroke-width:3.67px;}</style></defs><title>shop_man</title><path class="cls-1" d="M121,858.87s-11.22,4.9-13.66,20.49c-2.33,14.9-1.38,21.77,48.55,39.24,29,10.16,48.2,11.33,53.51-6.87,4.55-15.63-54.07-54.65-54.07-54.65Z"/><path class="cls-2" d="M292.95,711s-29.15,11.06-86,3.49-27.68,6.16-55.62,2c-8.78-1.31-34.83,10-51.46,10s-37.24-12.19-37.24-12.19l104-63.29,81.25,26.27Z"/><path class="cls-3" d="M109.83,713.09c0,1.77,12,159.62,12,159.62s6.26,3.24,17.07,1.77a36.39,36.39,0,0,0,15.74-6.21l12-174.69"/><path class="cls-1" d="M193.56,836.28a23.15,23.15,0,0,0-12.37,17.23c-1.8,12.55-1.41,18.73,44,33s46.27,2,37.84-11.93-36.6-39.87-36.6-39.87Z"/><path class="cls-3" d="M181.07,684.91c0,1.77,13,163.86,13,163.86s3,3.22,15.08,1.58c13.4-1.81,17.74-6,17.74-6L237.82,665.4"/><path class="cls-4" d="M74,459.83c0,3-22.4,183.65-11.43,254.48,0,0,63.85,18,111.07-6S292.95,711,292.95,711,258,614.93,259.14,568.59c1.16-48.72-14.41-83.75-14.41-83.75Z"/><path class="cls-5" d="M226.07,216.13c1.23,1,21.4,76.64,14.75,93.93s-42.23,11-42.23,11l8.33-76.5Z"/><path class="cls-5" d="M241.11,302.09c.38-.38,19.7-26.9,27.91-27.15s-1.77,15.79-1.77,15.79,22.35-8.84,30.94-19.58,18.9,24.38-42.23,47.37"/><path class="cls-5" d="M243.63,298.81s-51.2,24.95-97.47,33.77c0,0-1.26-13.39-4.79-37.13S136,247,132.28,231.63c-6.33-26.17-22.8-22.83-28.29-22.4-25,2-27.14,33.06-19.53,73.76s24.59,84.36,39.91,93,74.34-2.7,131.6-57.43"/><path class="cls-6" d="M104.84,184c1.37.12,85.13,0,111.4,17.29s20,61.19,15.63,83.14,0,126,8.31,153c8.22,26.52,9.37,55,9.37,55s-60.71,4.58-84.32-6.73c-40.53-19.41-98.64,9.3-97.53,2.15,1.62-10.47,3.41-102.64,6.87-141.88S73.58,181.36,104.84,184Z"/><path class="cls-2" d="M275.65,288.33l44.68-34.43a4,4,0,0,1,4.87,0l3.27,2.89a4,4,0,0,1,.16,6.28L278.76,301"/><path class="cls-5" d="M249.55,306.75c.45-.45,23.34-31.86,33.06-32.16s-2.09,18.7-2.09,18.7S307,282.81,317.17,270.1s22.39,28.88-50,56.11"/><path class="cls-5" d="M143.66,163l-5.73,21.12s7.6,11.59,21.44,12.18c18.1.77,25.5-5.23,25.5-5.23l-1-28.07Z"/><path class="cls-5" d="M235.75,81s2.07,54.07-7.43,74.11-50.3,51.8-97.71.24,2.52-67.79,2.52-67.79l88-16.8Z"/><path class="cls-5" d="M252.55,302.86s-60.65,29.55-115.45,40c0,0-1.49-15.86-5.68-44s-6.38-57.45-10.77-75.6c-7.49-31-27-27-33.51-26.53C57.56,199.07,55,235.91,64,284.12s29.12,99.93,47.27,110.1,88.06-3.2,155.88-68"/><polyline class="cls-7" points="210.9 147.42 211.22 152.28 206.42 152.28"/><path class="cls-8" d="M187.05,117.73s9.18-.36,9.14,2.59c0,0-.09,2-8.1,2.19s-10.06-.32-10.71-2.22S182.76,117.64,187.05,117.73Z"/><path class="cls-7" d="M195.57,137s-4.09-5.84-11.67-.19"/><path class="cls-7" d="M226.94,138.17s-3.64-5.79-8.72-.38"/><path class="cls-7" d="M203.29,160.92S197,162.4,192,156.1"/><path class="cls-8" d="M223.67,118.93s-7.53-.81-8.27,1.95c0,0-.44,1.87,6.15,2.46s8.78,0,9.47-1.52C231.81,120.12,227.26,119.07,223.67,118.93Z"/><path class="cls-2" d="M196.93,81.43s-3.16,25.61-18.74,30c-24.41,6.95-32,33.06-30.8,57.33s7.94,27,7.79,51.84,8,81.54-71,69.66S-16.48,214,26.87,165.29s50-79.74,71-127.14C123.21-19.06,242.16,1,250.78,59.94c8.76,59.94-14.85,63.8-14.85,63.8S198.08,123.72,196.93,81.43Z"/><path class="cls-9" d="M168.5,117.66s-10.83-9.78-19.58,1.64,10.54,22,10.54,22"/></svg>