<svg id="圖層_1" data-name="圖層 1" xmlns="http://www.w3.org/2000/svg" viewBox="0 0 155 170"><defs><style>.cls-1{fill:#fff;}.cls-1,.cls-2{stroke:#000;stroke-linecap:round;stroke-linejoin:round;stroke-width:4px;}.cls-2{fill:#ff94f2;}</style></defs><title>shop_bubble</title><circle class="cls-1" cx="77.5" cy="77.41" r="73.88" transform="translate(-29.56 100.56) rotate(-57.17)"/><polyline class="cls-1" points="57.42 139.43 34.25 166.48 32.98 127.55"/><path class="cls-2" d="M89.15,67.13,89,62a30.76,30.76,0,0,1,7.71-19.71l-9.29-4.18a12.84,12.84,0,0,1-10.68,3.93A12.44,12.44,0,0,1,66,38.81l-9.13,4.72a26.27,26.27,0,0,1,7.83,18.29l-.07,5.06s-14.49,28.77-21.25,38a7.4,7.4,0,0,0,5.27,4.65c4.11.91,9.42-1.6,14.59,1.7s5.55,5.6,14.25,5.43,9-2.45,14.18-6,10.56-1.24,14.71-2.34a7.73,7.73,0,0,0,5.26-4.91C104.57,94.38,89.15,67.13,89.15,67.13Z"/></svg>