<svg id="圖層_1" data-name="圖層 1" xmlns="http://www.w3.org/2000/svg" viewBox="0 0 160 235"><defs><style>.cls-1{fill:#96b2ff;}.cls-1,.cls-2,.cls-3,.cls-4{stroke:#000;}.cls-1,.cls-2,.cls-3{stroke-linecap:round;stroke-linejoin:round;stroke-width:4px;}.cls-2{fill:#f8f8f8;}.cls-3{fill:#7b94d0;}.cls-4{stroke-miterlimit:10;}</style></defs><title>shop_bag_blue</title><polygon class="cls-1" points="100.98 10.96 16.24 60.2 4.13 200.63 54.17 232.11 155.87 167.54 148.6 16.61 129.26 20.61 115.51 2.89 100.98 10.96"/><polygon class="cls-1" points="16.24 60.2 30.77 88.44 55.79 73.99 54.17 232.11 4.13 200.63 16.24 60.2"/><polygon class="cls-2" points="55.79 73.99 148.6 16.61 155.87 167.54 54.17 232.11 55.79 73.99"/><ellipse cx="90.12" cy="80.87" rx="6.88" ry="3.91" transform="translate(-3.44 157.73) rotate(-81.31)"/><ellipse cx="120.57" cy="62.07" rx="6.88" ry="3.91" transform="translate(40.99 171.88) rotate(-81.31)"/><polyline class="cls-3" points="115.51 2.89 115.51 37.06 55.79 73.99 30.77 88.44 16.24 60.2 115.51 2.89"/><path class="cls-4" d="M106.06,117.5a9.23,9.23,0,0,1-5.26-1.66c-10.2-6.9-11.91-33.75-12-34.9l2.6-.15c0,.26,1.69,26.7,10.83,32.89a6.88,6.88,0,0,0,6.41.76c12.77-4.26,12-39.14,10.6-52.23l2.59-.28c.21,2,5,49.19-12.37,55A10.84,10.84,0,0,1,106.06,117.5Z"/></svg>