<?xml version="1.0" encoding="utf-8"?>
<!-- Generator: Adobe Illustrator 24.3.0, SVG Export Plug-In . SVG Version: 6.00 Build 0)  -->
<svg version="1.1" id="圖層_1" focusable="false" xmlns="http://www.w3.org/2000/svg" xmlns:xlink="http://www.w3.org/1999/xlink"
	 x="0px" y="0px" viewBox="0 0 512 512" style="enable-background:new 0 0 512 512;" xml:space="preserve">
<path d="M350.4,25.4c-208.6-77.5-402.4,116.3-325,325c23.4,63,73.2,112.8,136.2,136.2c208.6,77.5,402.4-116.3,325-325
	C463.2,98.6,413.4,48.8,350.4,25.4z M334.1,446.6C161.6,510.6,1.4,350.4,65.4,177.9c19.3-52,60.5-93.2,112.5-112.5
	c172.5-64.1,332.7,96.1,268.7,268.7C427.3,386.1,386.1,427.3,334.1,446.6z"/>
<path d="M226,128v131h-63c-10.7,0-16,12.9-8.5,20.5L256,384c0,0,0,0,0,0l102.5-104.5c7.6-7.6,2.2-20.5-8.5-20.5h-64V128H226z"/>
</svg>
