<?xml version="1.0" encoding="utf-8"?>
<!-- Generator: Adobe Illustrator 24.3.0, SVG Export Plug-In . SVG Version: 6.00 Build 0)  -->
<svg version="1.1" id="Layer_5" xmlns="http://www.w3.org/2000/svg" xmlns:xlink="http://www.w3.org/1999/xlink" x="0px" y="0px"
	 viewBox="0 0 130 61" style="enable-background:new 0 0 130 61;" xml:space="preserve">
<style type="text/css">
	.st0{fill:#E1EAEA;}
</style>
<g>
	<path class="st0" d="M61.6,31.5c-2.2-6.2-8.7-10.9-16.5-10.9c-0.6,0-1.2,0-1.8,0C43,12.5,36.3,5.9,28,5.9
		c-7.3,0-13.4,5.1-14.9,11.9c-0.1,0-0.2,0-0.3,0C5.8,17.8,0,23.7,0,30.8c0,0.2,0,0.4,0,0.7H61.6z"/>
	<path class="st0" d="M130,60.9c-2.2-6.2-8.7-10.9-16.5-10.9c-0.6,0-1.2,0-1.8,0c-0.3-8.2-7-14.8-15.3-14.8
		c-7.3,0-13.4,5.1-14.9,11.9c-0.1,0-0.2,0-0.3,0c-7.1,0-12.9,5.8-12.9,12.9c0,0.2,0,0.4,0,0.7H130z"/>
	<path class="st0" d="M110.8,11.5c-1-2.8-3.9-4.8-7.4-4.8c-0.3,0-0.5,0-0.8,0c-0.1-3.7-3.1-6.6-6.8-6.6c-3.3,0-6,2.3-6.7,5.4
		c0,0-0.1,0-0.1,0c-3.2,0-5.8,2.6-5.8,5.8c0,0.1,0,0.3,0,0.3H110.8z"/>
</g>
</svg>
