<?xml version="1.0" encoding="utf-8"?>
<!-- Generator: Adobe Illustrator 22.1.0, SVG Export Plug-In . SVG Version: 6.00 Build 0)  -->
<svg version="1.1" id="圖層_1" xmlns="http://www.w3.org/2000/svg" xmlns:xlink="http://www.w3.org/1999/xlink" x="0px" y="0px"
	 viewBox="0 0 636 351" style="enable-background:new 0 0 636 351;" xml:space="preserve">
<style type="text/css">
	.st0{fill:#FCDBB1;}
	.st1{fill:#EEEEEE;}
	.st2{fill:#020202;}
	.st3{fill:#604B32;}
	.st4{fill:#E8AB74;}
	.st5{fill:#313238;}
	.st6{fill:#EF7348;}
	.st7{fill:#222226;}
	.st8{fill:#0F0100;}
	.st9{fill:#FF7F5C;}
	.st10{fill:#606168;}
	.st11{fill:#A0856E;}
	.st12{fill:#314856;}
	.st13{fill:#F7F7F7;}
	.st14{fill:#9E9E9E;}
	.st15{fill:#E5E5E5;}
	.st16{fill:#665848;}
</style>
<g>
	<path class="st0" d="M395.8,186l-12.1-1.6c-2.8-0.4-5.3,1.7-5.6,4.4c-0.4,2.7,1.6,5.3,4.3,5.7l12.1,1.6L395.8,186z"/>
	<rect x="593.2" y="334" class="st1" width="8.6" height="9.6"/>
	<path class="st2" d="M591.6,345.1c0,2.4,2.1,4.3,4.7,4.3h13.2c2.6,0,4.7-2,4.7-4.3c0-2.4-2.1-4.3-4.7-4.3h-16.1
		C590.8,340.8,591.6,342.7,591.6,345.1"/>
	<rect x="485.5" y="334" class="st1" width="9.6" height="9.6"/>
	<path class="st2" d="M496,345.1c0,2.4-2.1,4.3-4.7,4.3h-13.2c-2.6,0-4.7-2-4.7-4.3c0-2.4,2.1-4.3,4.7-4.3h16.1
		C496.8,340.8,496,342.7,496,345.1"/>
	<path class="st3" d="M480.5,134.6c0,0-2-0.3-2-5.3c0-5-0.7-55.7-0.7-55.7s-34.3-30.3-7-68c0,0,2.3,26,23.3,22.3
		c21-3.7,68.4-11,82.7-10.3c14.3,0.7,42,11.3,39.3,48.7c-2.7,37.3-6.4,80.7-8.7,87.7c-2.7,8.2-106.4-7.3-106.4-7.3L480.5,134.6z"/>
	<path class="st4" d="M612.4,130.8c0-3-2.4-5.4-5.4-5.4h-6.5c-3,0-5.4,2.4-5.4,5.4v12.3c0,3,2.4,5.4,5.4,5.4h6.5
		c3,0,5.4-2.4,5.4-5.4V130.8z"/>
	<path class="st4" d="M493.2,130.8c0-3-2.4-5.4-5.4-5.4h-6.5c-3,0-5.4,2.4-5.4,5.4v12.3c0,3,2.4,5.4,5.4,5.4h6.5
		c3,0,5.4-2.4,5.4-5.4V130.8z"/>
	<path class="st0" d="M624.9,249.4c0-2.7-2.2-4.8-4.8-4.8s-4.8,2.2-4.8,4.8v25c0,2.7,2.2,4.8,4.8,4.8s4.8-2.2,4.8-4.8V249.4z"/>
	<path class="st5" d="M501,277.3h85.4h16.4v16v46.5h-11.5v-34.3c0-6.5-5.3-11.8-11.8-11.8h-71.6c-6.4,0-11.8,5.1-11.8,11.4v34.7
		h-11.5v-46.5v-16H501z"/>
	<polygon class="st1" points="544.7,243.5 514.1,199.5 575.2,199.5 	"/>
	<polygon class="st6" points="535.6,241.8 543.3,247.4 551,241.8 547.6,195.6 538.8,195.6 	"/>
	<polygon class="st1" points="613.4,259.7 613.4,270.6 625.9,270.6 625.9,259.5 	"/>
	<polygon class="st1" points="397.2,185.3 388.6,184.1 386.9,196 395.6,197.3 	"/>
	<path class="st7" d="M617.7,165.7c-4.8-4.3-10.4-5.7-14.5-6.2c-0.1,0-2.9,0-7.7-0.1l-52.2,79.9l-50.9-79.9c-5,0-7.9,0-8,0.1
		c-0.3,0-0.4,0-0.6,0.1c-0.9,0.1-21.4,2.9-41.7,16.5c-19.3,13-50.2,8.3-50.5,8.2l-2,12.4c0.6,0.1,6.8,1.1,15.5,1.1
		c12.5,0,30.2-2,44-11.3c13.7-9.2,27.8-12.9,33.6-14.2v106.6c0,1.7,1.2,3.2,2.9,3.2h116.6c1.7,0,2.6-1.5,2.6-3.2V172.3
		c1.9,0.5,3.1,1.3,4.5,2.5c2.8,2.5,4.1,6.7,4.1,12.4v78.5h12.5v-78.5C625.9,177.9,623.2,170.7,617.7,165.7"/>
	<polygon class="st5" points="543.7,239.3 577.3,215.1 578.9,203.3 593.5,187.9 596,159.5 	"/>
	<polygon class="st5" points="543.7,239.3 510.2,215.1 508.5,203.3 493.9,187.9 492.8,159.5 	"/>
	<path class="st0" d="M601.8,88.2c0-6-5.6-10.8-12.6-10.8h-91.2c-6.9,0-12.6,4.9-12.6,10.8v101.3c0,6,5.6,10.9,12.6,10.9h91.2
		c6.9,0,12.6-4.9,12.6-10.9V88.2z"/>
	<path class="st8" d="M573.3,146.7c0,3.3,2.7,6,6,6c3.3,0,6-2.7,6-6s-2.7-6-6-6C576,140.8,573.3,143.4,573.3,146.7"/>
	<path class="st1" d="M580,145.2c0,0.9,0.7,1.5,1.5,1.5c0.9,0,1.5-0.7,1.5-1.5c0-0.9-0.7-1.5-1.5-1.5
		C580.7,143.7,580,144.4,580,145.2"/>
	<path class="st8" d="M502.4,146.7c0,3.3,2.7,6,6,6c3.3,0,6-2.7,6-6s-2.7-6-6-6C505,140.8,502.4,143.4,502.4,146.7"/>
	<path class="st9" d="M530,169.7c0.4-0.6,1.1-1,1.8-1H557c0.7,0,1.4,0.4,1.8,1.1c0.4,0.6,0.4,1.4,0.1,2.1c-0.2,0.5-6,12.4-15.2,12.4
		c-9.3,0-13.8-12.1-14-12.6C529.5,171,529.6,170.3,530,169.7"/>
	<polygon class="st3" points="519.1,74.5 569,74.5 544.1,97 	"/>
	<path class="st1" d="M508.9,145.2c0,0.9,0.7,1.5,1.5,1.5c0.9,0,1.5-0.7,1.5-1.5c0-0.9-0.7-1.5-1.5-1.5
		C509.6,143.7,508.9,144.4,508.9,145.2"/>
	<path class="st10" d="M620.9,262.8c0,1.2,1,2.2,2.2,2.2c1.2,0,2.2-1,2.2-2.2s-1-2.2-2.2-2.2C621.9,260.7,620.9,261.6,620.9,262.8"
		/>
	<path class="st10" d="M397.2,187.5c0,1.2,1,2.2,2.2,2.2c1.2,0,2.2-1,2.2-2.2c0-1.2-1-2.2-2.2-2.2
		C398.2,185.4,397.2,186.4,397.2,187.5"/>
	<path class="st10" d="M620.9,257.3c0,1.2,1,2.2,2.2,2.2c1.2,0,2.2-1,2.2-2.2c0-1.2-1-2.2-2.2-2.2
		C621.9,255.2,620.9,256.1,620.9,257.3"/>
	<path class="st10" d="M392,187.2c0,1.2,1,2.2,2.2,2.2c1.2,0,2.2-1,2.2-2.2c0-1.2-1-2.2-2.2-2.2C393,185,392,186,392,187.2"/>
	<path class="st11" d="M88.8,276.4l-23.7-6.5l1.7-6.2l0.4-1.4l0.1-0.5c0.3-1.1-0.3-1.6-1.2-1.8l-20.7-5.7c-0.9-0.2-1.7-0.1-1.9,1
		l-0.1,0.5l-0.4,1.4l-1.7,6.2l-22.7-6.2c-2.7-0.7-5.3,0.4-6.1,3L0.4,304.7c-0.7,2.7,0.7,5.9,3.4,6.7L74,330.6c2.7,0.7,5.6-1.3,6.3-4
		l12.2-44.5C93.2,279.4,91.5,277.1,88.8,276.4 M45.3,260.4l18.1,5l-1,3.8l-18.1-5L45.3,260.4z"/>
	<path class="st0" d="M311.8,205.7l10.9-4.4c2.5-1,3.7-4,2.6-6.5c-1-2.5-3.9-3.9-6.4-2.8l-10.9,4.4L311.8,205.7z"/>
	<path class="st0" d="M54.2,248.4l-3.1,11.3c-0.7,2.6,1,5.3,3.6,6c2.6,0.7,5.4-0.8,6.1-3.4l3-11.3L54.2,248.4z"/>
	
		<rect x="112.2" y="329.2" transform="matrix(0.7617 -0.6479 0.6479 0.7617 -188.3568 155.2344)" class="st1" width="9.3" height="9.1"/>
	<path class="st2" d="M109,333c-1.8,1.5-1.8,4.3-0.2,6.2l8.3,9.8c1.6,1.9,4.4,2.3,6.1,0.8c1.8-1.5,1.8-4.3,0.2-6.2l-10.2-11.9
		C111.7,329.7,110.8,331.5,109,333"/>
	
		<rect x="264.8" y="297.9" transform="matrix(0.7313 -0.6821 0.6821 0.7313 -133.9965 265.0176)" class="st1" width="9.1" height="9.3"/>
	<path class="st2" d="M269,310.5c1.6,1.7,4.3,1.6,6.2-0.1l9.4-8.8c1.9-1.7,2.1-4.5,0.5-6.2c-1.6-1.7-4.3-1.6-6.2,0.1l-11.5,10.7
		C265.6,307.9,267.4,308.8,269,310.5"/>
	<path class="st3" d="M226.6,126.1c0,0,1.9-0.6,1.2-5.4c-0.7-4.8-7-53.8-7-53.8s29-34-2.5-66.6c0,0,1.3,25.4-19.5,24.7
		c-20.8-0.7-67.4-1.3-81.2,1.3C103.9,29,78.6,43,86.3,78.7c7.7,35.7,17.1,77,20.3,83.4c3.8,7.6,101.6-21.6,101.6-21.6L226.6,126.1z"
		/>
	<path class="st4" d="M117.2,150c0.4,2.9-1.6,5.5-4.5,5.9l-6.6,0.9c-2.9,0.4-5.5-1.6-5.9-4.5l-1.6-11.6c-0.4-2.9,1.6-5.5,4.5-5.9
		l6.6-0.9c2.9-0.4,5.5,1.6,5.9,4.5L117.2,150z"/>
	<path class="st4" d="M232,133.8c0.4,2.9-1.6,5.5-4.5,5.9l-6.6,0.9c-2.9,0.4-5.5-1.6-5.9-4.5l-1.6-11.6c-0.4-2.9,1.6-5.5,4.5-5.9
		l6.6-0.9c2.9-0.4,5.5,1.6,5.9,4.5L232,133.8z"/>
	<path class="st5" d="M224.2,268.1l-82.4,11.7L126,282l2.2,15.8l-1.2,20.6l-13.8,12.1l6.3,7.4l18.9-16.3c0,0,6.1-25.7,12.3-27.1
		l69-9.8c6.2-0.5,33.2,6.3,33.2,6.3l13.2,15.3l7.3-6.8l-13.7-15.5L240,265.9L224.2,268.1z"/>
	<path class="st1" d="M313.7,193c-0.2,0.1-21.6,8.8-39-13.8c-19.7-25.7-42-28.4-47-28.6c-0.5,0-1,0-1.5,0
		c-0.4-0.1-114.4,16.1-114.7,16.2c-0.5,0.1-1,0.3-1.5,0.4c-1.4,0.7-33.8,17.3-42.6,38.6c-8.3,20-15.6,47.7-15.9,48.9l11.4,3
		c0.1-0.3,7.5-28.2,15.4-47.4c5.6-13.5,24.6-25.9,33-30.9l0,0.1l14.5,102.8c0.2,1.6,1.9,2.6,3.5,2.4l112.5-15.9
		c1.6-0.2,2.4-1.6,2.2-3.2l-14.5-102.8c6,0.8,21.5,4.7,35.9,23.6c14.3,18.6,32.2,21.5,44.3,19.8c3.4-0.5,6.3-1.3,8.6-2.3L313.7,193z
		"/>
	<polygon class="st12" points="188,237.2 181.4,243.5 173.2,239.3 170.1,194.4 178.6,193.2 	"/>
	<path class="st0" d="M228.8,179.5c0.8,5.8-3.9,11.2-10.6,12.2l-88.4,12.5c-6.7,0.9-12.8-3-13.6-8.8l-13.8-97.3
		c-0.8-5.8,3.9-11.2,10.6-12.2l88.4-12.5c6.7-0.9,12.8,3,13.6,8.8L228.8,179.5z"/>
	<path class="st8" d="M138.7,150.5c0.4,3.2-1.8,6.1-4.9,6.6c-3.2,0.4-6.1-1.8-6.6-4.9c-0.4-3.2,1.8-6.1,4.9-6.6
		C135.3,145.1,138.2,147.3,138.7,150.5"/>
	<path class="st1" d="M132,149.9c0.1,0.8-0.5,1.6-1.3,1.7c-0.8,0.1-1.6-0.5-1.7-1.3c-0.1-0.8,0.5-1.6,1.3-1.7
		C131.2,148.6,131.9,149.1,132,149.9"/>
	<path class="st8" d="M207.1,140.8c0.5,3.2-1.8,6.1-4.9,6.6c-3.2,0.4-6.1-1.8-6.6-4.9c-0.4-3.2,1.8-6.1,4.9-6.6
		C203.7,135.4,206.7,137.6,207.1,140.8"/>
	<path class="st9" d="M182.8,164.4c-0.5-0.5-1.1-0.7-1.8-0.6l-24.3,3.4c-0.7,0.1-1.3,0.6-1.6,1.2c-0.3,0.7-0.2,1.4,0.2,2
		c0.3,0.5,9.3,21.6,18.1,20.4c8.9-1.3,9.9-24,10-24.5C183.4,165.6,183.2,164.9,182.8,164.4"/>
	<polygon class="st3" points="181.1,73.6 133,80.4 160.1,98.7 	"/>
	<path class="st1" d="M200.6,140.2c0.1,0.8-0.5,1.6-1.3,1.7c-0.8,0.1-1.6-0.5-1.7-1.3c-0.1-0.8,0.5-1.6,1.3-1.7
		C199.7,138.9,200.5,139.4,200.6,140.2"/>
	
		<rect x="268.6" y="180.3" transform="matrix(0.289 -0.9573 0.9573 0.289 57.142 452.1427)" class="st13" width="128.8" height="14.6"/>
	<path class="st14" d="M344.6,124c-0.2,0.8,2.7,2.3,6.6,3.5c3.9,1.2,7.2,1.5,7.4,0.7c0.2-0.8-2.7-2.3-6.6-3.5
		C348.1,123.5,344.8,123.2,344.6,124"/>
	<path class="st13" d="M307.3,247.3c-0.2,0.8,2.7,2.3,6.6,3.5c3.9,1.2,7.2,1.5,7.4,0.7c0.2-0.8-2.7-2.3-6.6-3.5
		C310.9,246.8,307.6,246.5,307.3,247.3"/>
	<path class="st15" d="M344.2,125.1l-6.4-1.9c0,0-7.2,53.1-20.6,91.3L344.2,125.1z"/>
	<path class="st16" d="M326.4,177.3c-0.2,0.7,0.2,1.4,0.9,1.7l14,4.2c0.7,0.2,1.4-0.2,1.7-0.9c0.2-0.7-0.2-1.4-0.9-1.7l-14-4.2
		C327.3,176.2,326.6,176.6,326.4,177.3"/>
	<path class="st16" d="M325.4,180.5c-0.2,0.7,0.2,1.4,0.9,1.7l14,4.2c0.7,0.2,1.4-0.2,1.7-0.9c0.2-0.7-0.2-1.4-0.9-1.7l-14-4.2
		C326.4,179.4,325.6,179.8,325.4,180.5"/>
</g>
</svg>
