<?xml version="1.0" encoding="utf-8"?>
<!-- Generator: Adobe Illustrator 22.1.0, SVG Export Plug-In . SVG Version: 6.00 Build 0)  -->
<svg version="1.1" id="圖層_1" xmlns="http://www.w3.org/2000/svg" xmlns:xlink="http://www.w3.org/1999/xlink" x="0px" y="0px"
	 viewBox="0 0 645 767" style="enable-background:new 0 0 645 767;" xml:space="preserve">
<style type="text/css">
	.st0{fill:#E5E1D3;}
	.st1{fill:#69A055;}
</style>
<path class="st0" d="M146,221.6c10.7-9.9,21.4-19.8,32.1-29.7c19.6,20.4,55.4,24.7,75,45.1c-8.9,9.7-17.8,19.4-26.7,29.1
	C205.2,245.7,167.2,242,146,221.6"/>
<path class="st1" d="M228.8,258c0,0-0.1,0.4-0.1,0.4c5.5-6,11-12,16.6-18c0,0-0.1-0.2-0.1-0.2c-1.9-1.7-2.9-4-0.7-6.5
	c-18.3-14.1-45.1-19.8-63.3-34.1c-2.7,2.4-5.2,2.3-7.1,0.5c-0.1,0,0,0.1,0,0.1c-6.6,6.1-13.1,12.2-19.7,18.3c0,0,0.1-0.4,0.2-0.3
	c2.1,1.8,1.5,4.9,0.2,6.1c19.3,14.3,47.5,19.6,67,33.7C223,256.8,226.8,256.2,228.8,258"/>
<path class="st0" d="M190.4,239.7c-8.1-3.3-9.7-10.6-3.9-16.3c5.8-5.6,16.5-7.2,24.1-3.9c7.6,3.3,9.3,10.7,3.9,16.3
	C209.2,241.3,198.5,243,190.4,239.7"/>
<path class="st1" d="M208.4,227.5c-0.2-0.3-0.4-0.6-0.5-0.9c-0.1-0.2-0.3-0.5-0.5-0.7c-0.2-0.2-0.4-0.5-0.7-0.7
	c-0.2-0.2-0.5-0.4-0.7-0.6c-0.2-0.2-0.4-0.3-0.6-0.4c-0.4-0.2-0.8-0.3-1.2-0.3c-0.4-0.1-0.8-0.1-1.3,0c-0.4,0-0.8,0.1-1.2,0.3
	c-0.4,0.1-0.7,0.3-0.9,0.6c-0.4,0.4-0.7,0.8-0.7,1.2c0,0.4,0,0.8,0.2,1.2c0.2,0.4,0.4,0.8,0.8,1.2c0.3,0.4,0.7,0.8,1.1,1.2
	c0.4,0.4,0.7,0.8,1,1.3c0.3,0.4,0.5,0.9,0.6,1.3c0.1,0.5,0.1,1,0,1.5c-0.1,0.5-0.5,1-1,1.6c0,0-0.1,0.1-0.1,0.1
	c-0.6,0.6-1.3,1.1-2,1.4c-0.7,0.3-1.5,0.5-2.3,0.6c-0.8,0.1-1.6,0-2.5-0.1c-0.8-0.2-1.7-0.4-2.5-0.7c-1.1-0.5-2-1-2.6-1.5
	c-0.6-0.5-1.1-1-1.4-1.4c-0.4-0.5-0.6-1-0.6-1.5c0.9-0.1,1.8-0.3,2.8-0.4c0.1,0.2,0.2,0.5,0.4,0.8c0.2,0.3,0.4,0.6,0.7,0.9
	c0.3,0.3,0.7,0.6,1.1,0.8c0.4,0.3,0.9,0.5,1.4,0.7c0.5,0.2,1,0.4,1.5,0.5c0.5,0.1,1,0.1,1.5,0.1c0.5,0,0.9-0.1,1.3-0.3
	c0.4-0.2,0.7-0.4,1-0.7c0.4-0.4,0.6-0.8,0.6-1.2c0-0.4-0.1-0.7-0.3-1.1c-0.2-0.4-0.5-0.7-0.9-1.1c-0.4-0.4-0.7-0.8-1.1-1.2
	c-0.4-0.4-0.7-0.8-1-1.3c-0.3-0.4-0.5-0.9-0.6-1.4c-0.1-0.5,0-1,0.2-1.6c0.2-0.6,0.7-1.2,1.3-1.8c0.6-0.6,1.3-1.1,2.1-1.4
	c0.8-0.3,1.5-0.5,2.3-0.5c0.8-0.1,1.5,0,2.3,0.1c0.8,0.2,1.5,0.4,2.1,0.6c0.7,0.3,1.2,0.6,1.6,0.9c0.4,0.3,0.8,0.7,1.1,1
	c0.3,0.4,0.6,0.7,0.8,1.1c0.2,0.4,0.4,0.8,0.6,1.1C210.3,227,209.3,227.2,208.4,227.5"/>
<path class="st1" d="M192.9,239.7c-1.2-0.5-2.3-1-3.5-1.5c6.2-6.1,12.3-12.3,18.5-18.4c1.1,0.5,2.3,1,3.4,1.5
	C205.1,227.4,199,233.5,192.9,239.7"/>
</svg>
