<?xml version="1.0" encoding="utf-8"?>
<!-- Generator: Adobe Illustrator 22.1.0, SVG Export Plug-In . SVG Version: 6.00 Build 0)  -->
<svg version="1.1" id="圖層_1" xmlns="http://www.w3.org/2000/svg" xmlns:xlink="http://www.w3.org/1999/xlink" x="0px" y="0px"
	 viewBox="0 0 407 406" style="enable-background:new 0 0 407 406;" xml:space="preserve">
<style type="text/css">
	.st0{fill:#EEEEEE;}
	.st1{fill:#020202;}
	.st2{fill:#313238;}
	.st3{fill:#FCDBB1;}
	.st4{fill:#604B32;}
	.st5{fill:#E8AB74;}
	.st6{fill:#EF7348;}
	.st7{fill:#222226;}
	.st8{fill:#0F0100;}
	.st9{fill:#FF7F5C;}
	.st10{fill:#606168;}
</style>
<g>
	
		<rect x="124.4" y="382.3" transform="matrix(0.6804 -0.7328 0.7328 0.6804 -242.4624 218.7818)" class="st0" width="10.4" height="10.2"/>
	<path class="st1" d="M120.8,387.6c-1.7,1.9-1.5,5,0.6,6.9l10.5,9.8c2.1,1.9,5.2,2,6.9,0.1c1.8-1.9,1.5-5-0.6-6.9l-12.8-11.9
		C123.3,383.6,122.5,385.7,120.8,387.6"/>
	<g>
		
			<rect x="289.7" y="327.7" transform="matrix(0.6467 -0.7627 0.7627 0.6467 -149.7505 342.4608)" class="st0" width="10.2" height="10.4"/>
		<path class="st1" d="M295.4,341.7c2,1.7,5,1.3,6.9-0.9l9.3-11c1.8-2.2,1.7-5.3-0.2-6.9c-2-1.7-5-1.3-6.9,0.9l-11.3,13.4
			C291.3,339.3,293.4,340,295.4,341.7"/>
		<path class="st2" d="M240.1,300.5l-89.9,23.7l-17.3,4.6l4.6,17.3l1.3,23l-13.7,15.3l7.9,7.4l18.9-20.5c0,0,3.4-29.4,10.1-31.6
			l75.4-19.9c6.9-1.3,37.7,2.6,37.7,2.6l16.7,15.3l7.2-8.5l-17.3-15.4L257.4,296L240.1,300.5z"/>
		<path class="st3" d="M320.4,129.4c-3-0.3-5.8,1.9-6.1,4.9l-1.7,16.5l11,1.5l1.8-16.7C325.7,132.5,323.5,129.7,320.4,129.4"/>
		
			<rect x="313.8" y="138.4" transform="matrix(0.1285 -0.9917 0.9917 0.1285 133.948 442.7084)" class="st0" width="10.1" height="13.5"/>
		<path class="st4" d="M223.6,141c0,0,2.1-0.9,0.7-6.3c-1.4-5.4-14.8-59.8-14.8-59.8s28.3-42-11.4-74.7c0,0,4.7,28.5-18.8,30.4
			S103.1,37.8,88,42.5c-15.2,4.7-41.8,23.8-28.6,63s29.2,84.6,33.6,91.4c5.2,8.1,111.8-37.4,111.8-37.4L223.6,141z"/>
		<path class="st5" d="M103.4,182c0.8,3.2-1.1,6.4-4.3,7.3l-7.3,1.9c-3.2,0.8-6.4-1.1-7.2-4.3L81.2,174c-0.8-3.2,1.1-6.4,4.3-7.3
			l7.3-1.9c3.2-0.8,6.4,1.1,7.2,4.3L103.4,182z"/>
		<path class="st5" d="M230.7,148.9c0.8,3.2-1.1,6.4-4.3,7.3l-7.3,1.9c-3.2,0.8-6.4-1.1-7.3-4.3l-3.3-12.8c-0.8-3.2,1.1-6.4,4.3-7.3
			l7.3-1.9c3.2-0.8,6.4,1.1,7.3,4.3L230.7,148.9z"/>
		<path class="st0" d="M226.3,168.7c-0.4-0.1-126.8,32.8-127.2,33.1c-0.6,0.2,3.6-1.6,2.9-1.3l3.2,13.2l23.9,111.6l1.2,4.7
			c0.5,1.8,2.1,2.4,3.9,2L259,299.6c1.8-0.5,2.8-1.8,2.4-3.6l-29.6-114.1l0,0l-3.5-13.4C227.3,168.5,227.2,168.6,226.3,168.7"/>
		<polygon class="st6" points="194.4,271.2 187.7,279.1 178,275.4 168.8,225.2 178.2,222.7 		"/>
		<path class="st7" d="M100.9,201.7l6,14.8l-5.7,1.2L130.4,330c0.5,1.8,2.1,2.4,3.9,2L259,299.6c1.8-0.5,2.8-1.8,2.4-3.6L232,182.9
			c8.1,0.3,23.8,1.5,31.6,6.2c10.2,6.2,20.3,8.1,29.4,5.7c1.7-0.4,3.4-1,5-1.8c14.1-6.4,23.5-22.8,28.2-49l-14.1-2.5
			c-3.7,20.6-10.8,34.2-20,38.4c-7.5,3.4-15.6,0.2-21.1-3.2c-13.7-8.3-37.4-8.4-42.7-8.2v-0.1c-1.3,0.1-1.1,0.1-1.9,0.2
			c-0.1,0-3.2,0.8-8.6,2.2l-32.3,99.6l-78.1-70.9c-5.1,1.4-3.8,0.2-3.8,0.2c-0.6,0.2,0.7-2.1,0-1.8"/>
		<polygon class="st2" points="185,270.6 142.4,254 137.4,241.8 117.4,229.3 106.9,199.7 		"/>
		<polygon class="st2" points="185,270.6 214.2,235.3 212.6,222.2 224,201.7 217.3,171 		"/>
		<path class="st3" d="M232.9,200.9c1.7,6.4-3,13.2-10.4,15.1l-98,25.5c-7.4,1.9-14.8-1.7-16.4-8.1L80,125.4
			c-1.7-6.4,3-13.2,10.4-15.1l98-25.5c7.4-1.9,14.8,1.7,16.4,8.1L232.9,200.9z"/>
		<path class="st8" d="M127.7,179.7c0.9,3.5-1.2,7.1-4.7,8s-7.1-1.2-8-4.7s1.2-7.1,4.7-8S126.8,176.2,127.7,179.7"/>
		<path class="st0" d="M120.1,180c0.2,0.9-0.3,1.8-1.2,2.1c-0.9,0.2-1.8-0.3-2.1-1.2c-0.2-0.9,0.3-1.8,1.2-2.1
			C118.9,178.5,119.9,179.1,120.1,180"/>
		<path class="st8" d="M203.5,160c0.9,3.5-1.2,7.1-4.7,8s-7.1-1.2-8-4.7s1.2-7.1,4.7-8C199,154.4,202.6,156.5,203.5,160"/>
		<path class="st9" d="M180.4,192.3c-0.6-0.5-1.4-0.7-2.1-0.5l-27,7c-0.8,0.2-1.4,0.8-1.7,1.6c-0.2,0.8-0.1,1.6,0.4,2.3
			c0.4,0.5,9.9,11.6,19.7,9c9.9-2.6,11.4-16.7,11.5-17.3C181.3,193.6,181,192.9,180.4,192.3"/>
		<polygon class="st4" points="165.6,87.6 112.3,101.5 145.2,118.6 		"/>
		<path class="st0" d="M196.1,160.2c0.2,0.9-0.3,1.8-1.2,2.1c-0.9,0.2-1.8-0.3-2.1-1.2c-0.2-0.9,0.3-1.8,1.2-2.1
			C195,158.8,195.9,159.3,196.1,160.2"/>
		<path class="st10" d="M324.8,146c0.3,1.3-0.4,2.6-1.7,2.9c-1.3,0.3-2.6-0.4-2.9-1.7s0.4-2.6,1.7-2.9
			C323.2,144,324.5,144.7,324.8,146"/>
		<path class="st10" d="M323,152c0.3,1.3-0.4,2.6-1.7,2.9c-1.3,0.3-2.6-0.4-2.9-1.7s0.4-2.6,1.7-2.9
			C321.4,149.9,322.7,150.7,323,152"/>
	</g>
</g>
</svg>
