<?xml version="1.0" encoding="utf-8"?>
<!-- Generator: Adobe Illustrator 22.1.0, SVG Export Plug-In . SVG Version: 6.00 Build 0)  -->
<svg version="1.1" id="圖層_1" xmlns="http://www.w3.org/2000/svg" xmlns:xlink="http://www.w3.org/1999/xlink" x="0px" y="0px"
	 viewBox="0 0 645 767" style="enable-background:new 0 0 645 767;" xml:space="preserve">
<style type="text/css">
	.st0{fill:#E5E1D3;}
	.st1{fill:#69A055;}
</style>
<path class="st0" d="M97.1,497.5c-4.8,11.2-9.5,22.4-14.3,33.5c-21.6-8.7-50,0.3-71.6-8.4c3.5-10.4,6.9-20.8,10.4-31.2
	C44.4,499.6,74.3,489.3,97.1,497.5"/>
<path class="st1" d="M22,497.8c0,0-0.4,0-0.4,0c-2.2,6.4-4.3,12.9-6.5,19.3c0,0,0.2,0.6,0.2,0.6c2.1,0.7,4,1.5,2.8,5.2
	c18.7,4.6,41.1-0.5,59.7,4.3c1.7-3.9,3.6-3.8,5.6-3.1c0.1,0,0.3-0.4,0.3-0.4c2.9-6.9,5.8-13.8,8.8-20.7c0,0,0-0.1-0.1-0.2
	c-2.2-0.7-3.1-3.1-2.3-5.1c-19.5-4.3-42.9,1.6-62.6-2.6C26.9,497,24.1,498.5,22,497.8"/>
<path class="st0" d="M57.5,499c7.3-0.3,11.1,4.7,8.6,11c-2.5,6.2-10.1,11.1-17,11.3c-7,0.1-10.7-4.9-8.6-11
	C42.6,504.3,50.2,499.3,57.5,499"/>
<path class="st1" d="M47.9,514.4c0.2,0.2,0.5,0.3,0.7,0.5c0.2,0.1,0.4,0.2,0.6,0.4c0.2,0.1,0.5,0.2,0.7,0.3c0.3,0.1,0.5,0.1,0.7,0.2
	c0.2,0,0.4,0.1,0.6,0.1c0.3,0,0.7-0.1,1-0.2c0.4-0.1,0.7-0.2,1-0.4c0.3-0.2,0.6-0.4,0.8-0.6c0.2-0.2,0.4-0.5,0.5-0.8
	c0.2-0.5,0.2-0.9,0.1-1.2c-0.1-0.3-0.3-0.6-0.6-0.8c-0.3-0.2-0.6-0.4-1-0.6c-0.4-0.2-0.8-0.4-1.2-0.6c-0.4-0.2-0.8-0.4-1.2-0.6
	c-0.4-0.2-0.7-0.5-1-0.8c-0.2-0.3-0.4-0.7-0.5-1.1c-0.1-0.4,0-1,0.3-1.6c0,0,0-0.1,0-0.1c0.3-0.7,0.6-1.2,1.1-1.7
	c0.5-0.5,1-0.9,1.6-1.2c0.6-0.3,1.2-0.6,1.9-0.8c0.7-0.2,1.4-0.3,2.2-0.3c1,0,1.9,0,2.5,0.2c0.6,0.2,1.2,0.4,1.5,0.6
	c0.4,0.3,0.8,0.6,1,0.9c-0.7,0.4-1.3,0.9-2,1.3c-0.1-0.1-0.3-0.3-0.5-0.5c-0.2-0.2-0.5-0.3-0.9-0.4c-0.3-0.1-0.7-0.2-1.1-0.3
	c-0.4-0.1-0.8-0.1-1.3-0.1c-0.5,0-0.9,0.1-1.3,0.2c-0.4,0.1-0.8,0.3-1.1,0.5c-0.3,0.2-0.6,0.4-0.9,0.7c-0.2,0.3-0.4,0.5-0.5,0.8
	c-0.2,0.4-0.2,0.8-0.1,1.1c0.1,0.3,0.3,0.5,0.6,0.7c0.3,0.2,0.6,0.4,1,0.5c0.4,0.2,0.8,0.3,1.2,0.5c0.4,0.2,0.8,0.4,1.2,0.6
	c0.4,0.2,0.7,0.5,0.9,0.9c0.2,0.3,0.4,0.8,0.4,1.3c0,0.5-0.1,1.1-0.4,1.8c-0.3,0.7-0.6,1.3-1.1,1.8c-0.5,0.5-1,0.9-1.6,1.2
	c-0.6,0.3-1.2,0.5-1.8,0.7c-0.6,0.1-1.2,0.2-1.8,0.2c-0.6,0-1.1,0-1.6-0.2c-0.5-0.1-0.8-0.2-1.2-0.4c-0.4-0.2-0.7-0.3-0.9-0.5
	c-0.3-0.2-0.6-0.4-0.9-0.7C46.7,515.5,47.3,515,47.9,514.4"/>
<path class="st1" d="M56,500.2c0.7,0,1.5-0.1,2.2-0.1c-2.4,6.4-4.9,12.7-7.3,19.1c-0.7,0-1.4,0-2.2,0
	C51.2,512.9,53.6,506.5,56,500.2"/>
</svg>
