<?xml version="1.0" encoding="utf-8"?>
<!-- Generator: Adobe Illustrator 22.1.0, SVG Export Plug-In . SVG Version: 6.00 Build 0)  -->
<svg version="1.1" id="圖層_1" xmlns="http://www.w3.org/2000/svg" xmlns:xlink="http://www.w3.org/1999/xlink" x="0px" y="0px"
	 viewBox="0 0 645 767" style="enable-background:new 0 0 645 767;" xml:space="preserve">
<style type="text/css">
	.st0{fill:#E5E1D3;}
	.st1{fill:#69A055;}
</style>
<path class="st0" d="M367.3,642.8c-0.7,17.1-1.4,34.3-2,51.4c-33.3-0.6-66.6,25.6-99.9,24.9c-0.7-15.5-1.4-30.9-2-46.4
	C298,672.1,332.6,643.5,367.3,642.8"/>
<path class="st1" d="M268.1,681.5c0,0-0.2-0.4-0.2-0.4c0.4,9.6,0.8,19.2,1.2,28.7c0,0,0.2,0.1,0.2,0.1c3.1-0.2,5.8,0.9,6,4.8
	c27-3.5,54-21.1,81-24.3c0.3-4.3,2.4-6.2,5.5-6.3c0.1,0-0.1-0.1-0.1-0.1c0.4-10.5,0.8-21.1,1.2-31.6c0,0,0.2,0.5,0.1,0.5
	c-3.2,0.2-5.3-2.8-5.3-4.9c-27.9,4.2-55.8,23.3-83.8,27.8C273.9,677.6,271.3,681.2,268.1,681.5"/>
<path class="st0" d="M315.3,664.7c9.4-4,17,0.7,16.8,10.2c-0.1,9.4-7.7,19.7-16.8,23.3c-9.1,3.6-16.6-1.1-16.8-10.2
	C298.3,679,305.8,668.7,315.3,664.7"/>
<path class="st1" d="M310.4,689.8c0.4,0.1,0.8,0.2,1.2,0.3c0.3,0.1,0.6,0.1,1,0.2c0.4,0,0.7,0,1.1,0c0.4,0,0.7-0.1,1.1-0.1
	c0.3-0.1,0.6-0.1,0.8-0.2c0.5-0.2,0.9-0.4,1.3-0.7c0.4-0.3,0.8-0.6,1.1-1c0.3-0.4,0.6-0.8,0.8-1.2c0.2-0.4,0.3-0.8,0.3-1.3
	c0-0.7-0.1-1.2-0.4-1.6c-0.3-0.4-0.7-0.7-1.2-0.8c-0.5-0.2-1-0.3-1.6-0.3c-0.6,0-1.2-0.1-1.9-0.1c-0.6,0-1.3-0.1-1.9-0.2
	c-0.6-0.1-1.2-0.3-1.7-0.6c-0.5-0.3-0.9-0.7-1.2-1.3c-0.3-0.5-0.5-1.3-0.5-2.2c0-0.1,0-0.1,0-0.2c0-1,0.2-1.9,0.5-2.8
	s0.9-1.7,1.5-2.4c0.6-0.7,1.4-1.4,2.2-2c0.8-0.6,1.7-1.1,2.7-1.5c1.3-0.6,2.5-0.9,3.4-1c0.9-0.1,1.7-0.1,2.3,0
	c0.7,0.1,1.3,0.4,1.8,0.7c-0.6,0.9-1.3,1.8-1.9,2.7c-0.2-0.1-0.5-0.2-0.9-0.3c-0.4-0.1-0.8-0.1-1.3-0.1c-0.5,0-1,0.1-1.6,0.2
	c-0.6,0.1-1.1,0.3-1.7,0.5c-0.6,0.3-1.2,0.6-1.7,0.9c-0.5,0.4-0.9,0.7-1.3,1.2c-0.4,0.4-0.6,0.9-0.8,1.3c-0.2,0.4-0.3,0.9-0.3,1.4
	c0,0.7,0.1,1.2,0.4,1.5c0.3,0.3,0.7,0.6,1.2,0.7c0.5,0.1,1,0.2,1.7,0.2c0.6,0,1.2,0,1.9,0c0.6,0,1.3,0.1,1.9,0.2
	c0.6,0.1,1.2,0.3,1.6,0.7c0.5,0.3,0.9,0.8,1.2,1.5c0.3,0.6,0.4,1.5,0.4,2.6c0,1.1-0.2,2-0.6,2.9c-0.4,0.9-0.9,1.7-1.5,2.4
	c-0.6,0.7-1.3,1.3-2,1.8c-0.8,0.5-1.5,0.9-2.3,1.2c-0.8,0.3-1.5,0.5-2.2,0.6c-0.7,0.1-1.2,0.1-1.7,0.1c-0.6,0-1.1-0.1-1.5-0.2
	c-0.5-0.1-1-0.3-1.5-0.4C309.3,691.9,309.9,690.8,310.4,689.8"/>
<path class="st1" d="M313.2,666.8c1.4-0.6,2.8-1.1,4.1-1.7c0,10.2,0,20.4-0.1,30.7c-1.3,0.5-2.7,1.1-4,1.6
	C313.3,687.2,313.3,677,313.2,666.8"/>
</svg>
