<?xml version="1.0" encoding="utf-8"?>
<!-- Generator: Adobe Illustrator 22.1.0, SVG Export Plug-In . SVG Version: 6.00 Build 0)  -->
<svg version="1.1" id="圖層_1" xmlns="http://www.w3.org/2000/svg" xmlns:xlink="http://www.w3.org/1999/xlink" x="0px" y="0px"
	 viewBox="0 0 645 767" style="enable-background:new 0 0 645 767;" xml:space="preserve">
<style type="text/css">
	.st0{fill:#E5E1D3;}
	.st1{fill:#69A055;}
</style>
<path class="st0" d="M621.2,544.8c7.8,6.9,15.7,13.8,23.5,20.8c-13.1,15.5-13.6,41.3-26.7,56.8c-7.6-5.6-15.1-11.3-22.7-16.9
	C608.3,588.9,608.1,561.5,621.2,544.8"/>
<path class="st1" d="M601.2,606.6c0,0-0.3,0-0.3,0c4.7,3.5,9.3,7,14,10.5c0,0,0.1-0.1,0.1-0.1c1.1-1.5,2.7-2.4,4.6-1
	c8.7-14.1,10.8-33.6,19.7-47.6c-1.9-1.8-2-3.5-0.9-5c0,0-0.1,0-0.1,0c-4.8-4.2-9.7-8.5-14.5-12.7c0,0,0.3,0.1,0.3,0.1
	c-1.1,1.6-3.4,1.4-4.3,0.6c-8.8,14.8-10.5,35.3-19.1,50.3C601.7,602.3,602.3,605,601.2,606.6"/>
<path class="st0" d="M611.5,577.8c1.7-6,6.9-7.7,11.3-4c4.4,3.7,6.4,11.2,4.6,16.9c-1.8,5.7-7,7.4-11.3,4
	C611.7,591.3,609.7,583.8,611.5,577.8"/>
<path class="st1" d="M621.5,589.8c0.2-0.2,0.4-0.3,0.6-0.5c0.2-0.1,0.3-0.3,0.5-0.4c0.2-0.2,0.3-0.3,0.4-0.5
	c0.1-0.2,0.3-0.4,0.4-0.6c0.1-0.2,0.2-0.3,0.2-0.5c0.1-0.3,0.1-0.6,0.2-0.9c0-0.3,0-0.6-0.1-0.9c-0.1-0.3-0.1-0.6-0.3-0.8
	c-0.1-0.3-0.3-0.5-0.5-0.6c-0.3-0.3-0.6-0.4-0.9-0.4c-0.3,0-0.6,0.1-0.8,0.2c-0.3,0.2-0.5,0.4-0.8,0.6c-0.3,0.3-0.5,0.6-0.8,0.8
	c-0.3,0.3-0.5,0.6-0.8,0.8c-0.3,0.3-0.6,0.4-0.9,0.6c-0.3,0.1-0.7,0.1-1,0.1c-0.4-0.1-0.8-0.3-1.2-0.6c0,0-0.1,0-0.1-0.1
	c-0.5-0.4-0.8-0.8-1.1-1.3c-0.3-0.5-0.5-1-0.6-1.6c-0.1-0.6-0.1-1.2-0.1-1.8c0.1-0.6,0.2-1.2,0.4-1.8c0.3-0.8,0.5-1.5,0.9-2
	c0.3-0.5,0.6-0.8,0.9-1.1c0.3-0.3,0.7-0.5,1-0.6c0.2,0.6,0.3,1.3,0.5,2c-0.2,0.1-0.3,0.2-0.5,0.3c-0.2,0.1-0.4,0.3-0.6,0.6
	c-0.2,0.2-0.4,0.5-0.5,0.8c-0.2,0.3-0.3,0.7-0.4,1c-0.1,0.4-0.2,0.8-0.2,1.1c0,0.4,0,0.7,0.1,1c0.1,0.3,0.2,0.6,0.3,0.9
	s0.3,0.5,0.5,0.6c0.3,0.3,0.6,0.4,0.9,0.4c0.3,0,0.5-0.1,0.8-0.3c0.2-0.2,0.5-0.4,0.7-0.7c0.2-0.3,0.5-0.6,0.7-0.9
	c0.3-0.3,0.5-0.6,0.8-0.8c0.3-0.2,0.6-0.4,1-0.5c0.3-0.1,0.7-0.1,1.1,0c0.4,0.1,0.9,0.4,1.4,0.8c0.5,0.4,0.9,0.9,1.2,1.4
	c0.3,0.5,0.5,1.1,0.6,1.6c0.1,0.6,0.1,1.1,0.1,1.7c-0.1,0.6-0.2,1.1-0.3,1.5c-0.2,0.5-0.3,0.9-0.6,1.2c-0.2,0.3-0.4,0.6-0.6,0.8
	c-0.2,0.3-0.5,0.5-0.7,0.6c-0.3,0.2-0.5,0.4-0.8,0.5C622,591.1,621.7,590.4,621.5,589.8"/>
<path class="st1" d="M611.7,579.6c0.3-0.9,0.5-1.7,0.8-2.6c4.8,3.9,9.6,7.9,14.5,11.8c-0.3,0.8-0.5,1.7-0.8,2.5
	C621.3,587.4,616.5,583.5,611.7,579.6"/>
</svg>
