<?xml version="1.0" encoding="utf-8"?>
<!-- Generator: Adobe Illustrator 22.1.0, SVG Export Plug-In . SVG Version: 6.00 Build 0)  -->
<svg version="1.1" id="圖層_1" xmlns="http://www.w3.org/2000/svg" xmlns:xlink="http://www.w3.org/1999/xlink" x="0px" y="0px"
	 viewBox="0 0 645 767" style="enable-background:new 0 0 645 767;" xml:space="preserve">
<style type="text/css">
	.st0{fill:#F4F4F4;}
	.st1{fill:#F76A4D;}
	.st2{fill:#DD553E;}
	.st3{fill:#EEEEEE;}
	.st4{fill:#020202;}
	.st5{fill:#604B32;}
	.st6{fill:#E8AB74;}
	.st7{fill:#FCDBB1;}
	.st8{fill:#313238;}
	.st9{fill:#314856;}
	.st10{fill:#0F0100;}
	.st11{fill:#FF7F5C;}
</style>
<path class="st0" d="M373.3,518.4L373.3,518.4c-2.6,0-4.6-2.3-4.6-4.8c0-4.3-0.3-7.1-0.3-7.1c-0.3-2.5,1.4-4.8,3.9-5.2
	c2.5-0.3,4.8,1.4,5.1,3.9c0,0.1,0.4,3.4,0.4,8.4C377.8,516.2,375.8,518.4,373.3,518.4"/>
<path class="st0" d="M18.5,744.6c-0.9,0-1.9-0.3-2.7-0.9c-2-1.5-2.5-4.4-1-6.4c2.9-4,6.2-7.9,9.8-11.8c1.7-1.8,4.6-1.9,6.5-0.2
	c1.8,1.7,1.9,4.6,0.2,6.5c-3.3,3.6-6.4,7.2-9.1,10.9C21.3,743.9,19.9,744.6,18.5,744.6 M38.6,723c-1.3,0-2.5-0.5-3.4-1.6
	c-1.7-1.9-1.5-4.8,0.4-6.5c3.7-3.2,7.6-6.4,11.8-9.5c2-1.5,4.9-1.1,6.4,1c1.5,2,1.1,4.9-1,6.4c-4,2.9-7.8,6-11.2,9
	C40.7,722.6,39.6,723,38.6,723 M62.3,705.3c-1.5,0-3-0.7-3.9-2.1c-1.4-2.1-0.7-5,1.4-6.3c4.1-2.6,8.4-5.2,12.9-7.8
	c2.2-1.2,5-0.5,6.2,1.7c1.2,2.2,0.5,5-1.7,6.2c-4.3,2.5-8.5,5-12.4,7.5C64,705.1,63.1,705.3,62.3,705.3 M88,690.7
	c-1.7,0-3.3-0.9-4.1-2.5c-1.1-2.3-0.2-5,2-6.2c4.3-2.2,8.8-4.4,13.5-6.5c2.3-1.1,5-0.1,6.1,2.2c1.1,2.3,0.1,5-2.2,6.1
	c-4.5,2.1-9,4.2-13.2,6.4C89.4,690.6,88.7,690.7,88,690.7 M114.8,678.3c-1.8,0-3.5-1-4.2-2.8c-1-2.3,0.1-5,2.4-6
	c4.4-1.9,9.1-3.8,13.8-5.6c2.4-0.9,5,0.2,5.9,2.6c0.9,2.4-0.2,5-2.6,5.9c-4.7,1.8-9.2,3.7-13.6,5.5
	C116,678.2,115.4,678.3,114.8,678.3 M142.3,667.5c-1.9,0-3.6-1.1-4.3-3c-0.9-2.4,0.3-5,2.7-5.9c4.5-1.6,9.2-3.3,14-5
	c2.4-0.8,5,0.4,5.8,2.8c0.8,2.4-0.4,5-2.8,5.8c-4.8,1.7-9.5,3.3-13.9,5C143.4,667.4,142.9,667.5,142.3,667.5 M170.3,657.7
	c-1.9,0-3.7-1.2-4.3-3.1c-0.8-2.4,0.5-5,2.9-5.8c4.5-1.5,9.1-3,14.1-4.6c2.4-0.8,5,0.6,5.7,3c0.8,2.4-0.6,5-3,5.7
	c-4.9,1.6-9.5,3.1-14,4.6C171.3,657.7,170.8,657.7,170.3,657.7 M198.5,648.7c-1.9,0-3.8-1.3-4.4-3.2c-0.8-2.4,0.6-5,3-5.7
	c4.8-1.5,9.5-2.9,14.2-4.4c2.4-0.7,5,0.6,5.7,3c0.7,2.4-0.6,5-3,5.7c-4.7,1.4-9.4,2.9-14.1,4.3C199.4,648.7,198.9,648.7,198.5,648.7
	 M226.8,640.1c-2,0-3.8-1.3-4.4-3.2c-0.7-2.4,0.6-5,3-5.7c4.8-1.5,9.5-2.9,14.1-4.3c2.4-0.7,5,0.6,5.7,3c0.7,2.4-0.6,5-3,5.7
	c-4.6,1.4-9.4,2.9-14.2,4.3C227.7,640,227.2,640.1,226.8,640.1 M255.1,631.4c-1.9,0-3.7-1.3-4.4-3.2c-0.8-2.4,0.6-5,3-5.7
	c5.1-1.6,9.7-3.1,14-4.5c2.4-0.8,5,0.5,5.8,2.9c0.8,2.4-0.5,5-2.9,5.8c-4.3,1.4-9,2.9-14.1,4.6C256,631.3,255.5,631.4,255.1,631.4
	 M283.2,622c-1.9,0-3.6-1.2-4.3-3c-0.8-2.4,0.4-5,2.8-5.8c4.9-1.8,9.5-3.5,13.7-5.1c2.3-0.9,5,0.2,5.9,2.6c0.9,2.3-0.2,5-2.6,5.9
	c-4.3,1.7-9,3.5-14,5.3C284.2,621.9,283.7,622,283.2,622 M310.6,610.9c-1.7,0-3.3-0.9-4.1-2.5c-1.1-2.3-0.2-5,2.1-6.1
	c4.4-2.2,8.6-4.5,12.5-7c2.1-1.4,5-0.7,6.3,1.4c1.4,2.1,0.7,5-1.4,6.3c-4.2,2.6-8.7,5.2-13.3,7.5
	C311.9,610.7,311.2,610.9,310.6,610.9 M335.4,595c-1.3,0-2.6-0.6-3.5-1.7c-1.6-2-1.3-4.8,0.6-6.4c3.7-3,7.2-6.3,10.3-9.7
	c1.7-1.8,4.6-1.9,6.5-0.2c1.8,1.7,1.9,4.6,0.2,6.5c-3.4,3.7-7.2,7.2-11.2,10.5C337.5,594.7,336.4,595,335.4,595 M355.5,573.5
	c-0.9,0-1.8-0.3-2.6-0.8c-2.1-1.4-2.6-4.3-1.2-6.4c2.7-3.9,5.1-7.9,7.1-12.1c1.1-2.3,3.9-3.2,6.1-2.1c2.3,1.1,3.2,3.9,2.1,6.1
	c-2.3,4.6-4.9,9.1-7.8,13.3C358.4,572.8,356.9,573.5,355.5,573.5 M368.5,547c-0.5,0-0.9-0.1-1.4-0.2c-2.4-0.8-3.7-3.3-3-5.7
	c1.4-4.5,2.5-9.1,3.3-13.7c0.4-2.5,2.8-4.2,5.3-3.8c2.5,0.4,4.2,2.8,3.8,5.3c-0.8,5.1-2.1,10.1-3.6,15
	C372.2,545.8,370.4,547,368.5,547"/>
<path class="st0" d="M4.9,766.7c-0.6,0-1.2-0.1-1.8-0.4c-2.3-1-3.4-3.7-2.4-6.1c1.1-2.4,2.2-4.8,3.5-7.2c1.2-2.2,4-3.1,6.2-1.9
	c2.2,1.2,3.1,4,1.9,6.2c-1.2,2.2-2.2,4.4-3.2,6.6C8.4,765.7,6.7,766.7,4.9,766.7"/>
<path class="st1" d="M416,221.6c0,0-73.9-43-115.2,38.1c-40.3,79.1-137.7,185-149.3,201.7c0,0,41.6,3.3,56.5,5.3
	c54.9,7.2,56.4,34.6,70.1,37.4c32.2,6.5,85.1-14.8,124-8.4c17.7,2.9,38.7,26.9,76.5,35.9c16.8,4,43.3-23.2,97.6-8.8
	c0,0-28.4-294.8-123-300.8L416,221.6z"/>
<path class="st2" d="M372.6,226.9c0,0-29.9-12.4-54.9,32.8c-25,45.2-98.5,144.5-148.8,194.3c0,0,0,18.6,151.3-141.4
	C378.6,250.9,381.5,228.5,372.6,226.9"/>
<path class="st2" d="M490,259.7c0,0,54.2,72.3,72.2,251.2c0,0-38.9-187.6-79.5-217.2C442.1,264.2,483.2,249,490,259.7"/>
<rect x="308.9" y="416.2" transform="matrix(0.1604 -0.987 0.987 0.1604 -152.2717 665.9064)" class="st3" width="12.8" height="12.5"/>
<path class="st4" d="M321.8,431.2c-0.5,3.1-3.7,5.2-7.2,4.6l-17.5-2.8c-3.5-0.6-5.8-3.6-5.3-6.7c0.5-3.1,3.7-5.2,7.2-4.6l21.3,3.5
	C323.8,425.7,322.3,428.1,321.8,431.2"/>
<rect x="451" y="439.3" transform="matrix(0.1604 -0.987 0.987 0.1604 -55.7607 825.5858)" class="st3" width="12.8" height="12.5"/>
<path class="st4" d="M448.5,451.8c-0.5,3.1,1.9,6.1,5.3,6.7l17.5,2.8c3.5,0.6,6.7-1.5,7.2-4.6c0.5-3.1-1.9-6.1-5.3-6.7l-21.3-3.5
	C448.4,446,449,448.7,448.5,451.8"/>
<path class="st5" d="M514.2,176.6c0,0,2.7,0,3.8-6.6c1.1-6.6,12.9-73.7,12.9-73.7S583,63.4,554.8,7.6c0,0-8.7,34-35.8,24.6
	C492,22.8,430.8,2.8,411.7,0.6c-19.2-2.2-58.1,6-62.7,56.1c-4.5,50.1-9,108.4-7.4,118.1c1.8,11.5,142.6,13.2,142.6,13.2L514.2,176.6
	z"/>
<path class="st6" d="M360.4,163.2c-0.6,3.9-4.4,6.6-8.3,6l-9-1.5c-3.9-0.6-6.6-4.4-6-8.3l2.6-15.9c0.6-3.9,4.4-6.6,8.3-6l9,1.5
	c3.9,0.6,6.6,4.4,6,8.3L360.4,163.2z"/>
<path class="st6" d="M518.2,188.9c-0.6,3.9-4.4,6.6-8.3,6l-9-1.5c-3.9-0.6-6.6-4.4-6-8.3l2.6-15.9c0.6-3.9,4.4-6.6,8.3-6l9,1.5
	c3.9,0.6,6.6,4.4,6,8.3L518.2,188.9z"/>
<path class="st7" d="M277.8,99.8c0.2,3.7-2.6,6.9-6.4,7.1c-3.7,0.2-6.9-2.6-7.1-6.3l-1.9-33.2c-0.2-3.7,2.6-6.9,6.4-7.1
	c3.7-0.2,6.9,2.6,7.1,6.4L277.8,99.8z"/>
<path class="st8" d="M456.3,360.8l-113.2-18.4l-21.7-3.5l-3.5,21.7l-10,61.5l14.8,2.4l7.4-45.3c2-8.5,10-14.3,18.7-13.5l94.9,15.4
	c8.4,2,14.1,9.7,13.5,18.3l-7.4,45.8l14.8,2.4l10-61.5l3.5-21.7L456.3,360.8z"/>
<path class="st3" d="M506.6,209.6c-1.2-0.4-2-0.6-2.9-0.9c-0.4-0.3-157.2-25.7-157.7-25.6c-0.8,0-1.3,0-2.5-0.1l-25.3,155.7
	l-0.4,2.3c-0.4,2.2,1.1,4.7,3.3,5.1l154.6,25.1c2.2,0.4,4.9-1.5,5.3-3.7l0.4-2.3l22.6-139.1L506.6,209.6z"/>
<path class="st3" d="M341,200.2c-0.8-0.4-19.8-9.9-39.1-29.8c-25.8-26.6-40-59.4-41.2-94.9L278,75c2.5,75.3,70,109.4,70.7,109.7
	L341,200.2z"/>
<path class="st7" d="M598.1,155.7c-1.5,3.4,0,7.4,3.4,8.9c3.4,1.5,7.4,0,8.9-3.4l13.6-30.3c1.5-3.4,0-7.4-3.4-8.9
	c-3.4-1.5-7.4,0-8.9,3.4L598.1,155.7z"/>
<path class="st3" d="M503.2,226.9c0.9-0.1,22-2.1,47.2-13.9c33.6-15.6,58.6-41.2,72.4-73.9l-16-6.7
	c-29.2,69.4-104.5,77.1-105.2,77.2L503.2,226.9z"/>
<polygon class="st9" points="417.9,307 406.6,312.6 397.6,303.7 412,243.3 423.6,245.2 "/>
<path class="st7" d="M495.2,247.8c-1.3,7.9-9.8,13.2-19,11.7l-121.5-19.8c-9.2-1.5-15.6-9.1-14.3-17.1l21.7-133.8
	c1.3-7.9,9.8-13.2,19-11.7l121.5,19.8c9.2,1.5,15.6,9.1,14.3,17.1L495.2,247.8z"/>
<path class="st10" d="M388.5,172.6c-0.7,4.4-4.8,7.3-9.2,6.6c-4.4-0.7-7.3-4.8-6.6-9.2c0.7-4.4,4.8-7.3,9.2-6.6
	C386.3,164.2,389.3,168.3,388.5,172.6"/>
<path class="st3" d="M380,169.2c-0.2,1.1-1.2,1.9-2.4,1.7c-1.1-0.2-1.9-1.3-1.7-2.4c0.2-1.1,1.3-1.9,2.4-1.7
	C379.4,167,380.2,168.1,380,169.2"/>
<path class="st10" d="M482.6,187.9c-0.7,4.4-4.8,7.3-9.2,6.6c-4.4-0.7-7.3-4.8-6.6-9.2c0.7-4.4,4.8-7.3,9.2-6.6
	C480.3,179.4,483.3,183.6,482.6,187.9"/>
<path class="st11" d="M441,212.5c-0.4-0.9-1.2-1.4-2.1-1.6l-33.4-5.4c-1-0.2-2,0.2-2.6,0.9c-0.7,0.7-0.9,1.8-0.6,2.7
	c0.2,0.7,5.3,17.7,17.4,19.7c12.3,2,20.9-13,21.3-13.6C441.3,214.3,441.4,213.3,441,212.5"/>
<polygon class="st5" points="475.9,88.8 409.8,78 438,113.2 "/>
<path class="st3" d="M474.2,184.5c-0.2,1.1-1.3,1.9-2.4,1.7c-1.1-0.2-1.9-1.3-1.7-2.4c0.2-1.1,1.2-1.9,2.4-1.7
	C473.6,182.3,474.4,183.4,474.2,184.5"/>
</svg>
