<?xml version="1.0" encoding="utf-8"?>
<!-- Generator: Adobe Illustrator 22.1.0, SVG Export Plug-In . SVG Version: 6.00 Build 0)  -->
<svg version="1.1" id="圖層_1" xmlns="http://www.w3.org/2000/svg" xmlns:xlink="http://www.w3.org/1999/xlink" x="0px" y="0px"
	 viewBox="0 0 407 406" style="enable-background:new 0 0 407 406;" xml:space="preserve">
<style type="text/css">
	.st0{fill:#6D5746;}
	.st1{fill:#FCDBB1;}
	.st2{fill:#EEEEEE;}
	.st3{fill:#222226;}
	.st4{fill:#606168;}
</style>
<g>
	<g>
		<path class="st0" d="M92,347.6l-24.5-6.7l1.8-6.4l0.4-1.4l0.1-0.5c0.3-1.1-0.3-1.7-1.2-1.9l-21.4-5.9c-0.9-0.2-1.7-0.1-2,1
			l-0.2,0.5l-0.4,1.4l-1.8,6.4l-23.5-6.5c-2.8-0.8-5.5,0.4-6.3,3.2L0.4,376.9c-0.8,2.8,0.7,6.1,3.5,6.9l72.7,19.9
			c2.8,0.8,5.8-1.4,6.5-4.1l12.6-46.1C96.5,350.7,94.8,348.3,92,347.6 M46.9,331l18.7,5.1l-1.1,3.9l-18.7-5.1L46.9,331z"/>
		<path class="st1" d="M49.9,325.2l0.8,5.6c0.4,3.2,3.5,5.5,6.5,5.1s5.4-3.4,5-6.6l-0.8-5.6L49.9,325.2z"/>
		<rect x="48.6" y="318" transform="matrix(0.99 -0.1408 0.1408 0.99 -44.7676 10.9556)" class="st2" width="12.9" height="7.7"/>
		<path class="st3" d="M117,208.2l-9.6-8.7c-5.1,1.4-8.2,2.2-8.2,2.2c-0.6,0.2-1.2,0.5-1.9,0.8l0,0c-8,5.4-46.8,32.9-50.3,53.4
			c-3.3,19.2,1.4,65.9,1.6,67.9l14.1-1.5c0-0.5-4.8-46.7-1.8-64c1.7-9.6,23-28.2,40.3-40.6L117,208.2z"/>
		<path class="st4" d="M53.2,319.6c0.3,1.3-0.4,2.6-1.7,2.9s-2.6-0.4-2.9-1.7c-0.3-1.3,0.4-2.6,1.7-2.9S52.9,318.4,53.2,319.6"/>
		<path class="st4" d="M53.1,313.4c0.3,1.3-0.4,2.6-1.7,2.9s-2.6-0.4-2.9-1.7c-0.3-1.3,0.4-2.6,1.7-2.9
			C51.5,311.3,52.8,312.1,53.1,313.4"/>
	</g>
</g>
</svg>
