<?xml version="1.0" encoding="utf-8"?>
<!-- Generator: Adobe Illustrator 22.1.0, SVG Export Plug-In . SVG Version: 6.00 Build 0)  -->
<svg version="1.1" id="圖層_1" xmlns="http://www.w3.org/2000/svg" xmlns:xlink="http://www.w3.org/1999/xlink" x="0px" y="0px"
	 viewBox="0 0 636 193" style="enable-background:new 0 0 636 193;" xml:space="preserve">
<style type="text/css">
	.st0{fill:#A7CCCE;}
	.st1{fill:#FFF7E9;}
	.st2{fill:#FFCC73;}
	.st3{fill:#EFB75E;}
	.st4{fill:#8E6538;}
	.st5{fill:#444342;}
	.st6{fill:#898683;}
	.st7{fill:#B7B7B7;}
</style>
<g>
	<path class="st0" d="M406.5,0.1h-99.9c-17,0-30.4,13.7-30.4,30.6v98.6c0,17,13.5,30.5,30.4,30.5h54.6c14.8,11.1,37.3,24.9,60.5,33
		c0,0-15.8-15.5-25.9-33h10.6c17,0,31-13.5,31-30.5V30.8C437.5,13.8,423.4,0.1,406.5,0.1"/>
	<path class="st1" d="M309.3,69.5c0-25.3,20.5-45.8,45.8-45.8c25.3,0,45.8,20.5,45.8,45.8c0,25.3-20.5,45.8-45.8,45.8
		C329.8,115.3,309.3,94.8,309.3,69.5"/>
	<path class="st2" d="M313.1,69c0-23.2,18.8-42,42-42c23.2,0,42,18.8,42,42c0,23.2-18.8,42-42,42C331.9,111,313.1,92.2,313.1,69"/>
	<path class="st3" d="M391.9,52.9c0.4,2.2,0.6,4.5,0.6,6.8c0,21.9-19.8,39.7-44.3,39.7c-8.9,0-17.2-2.4-24.2-6.4
		c7.3,9.4,18.6,15.5,31.5,15.5c21.9,0,39.7-17.8,39.7-39.7C395.2,63.2,394,57.8,391.9,52.9"/>
	<path class="st4" d="M357.8,56.6c0.3,0,0.5,0.1,0.7,0.3l4.7,4.4c0.2,0.2,0.4,0.4,0.4,0.7v63.5c0,0.5-0.6,1-1.2,1
		c-0.5,0-1.2-0.4-1.2-1V62.4l-2.4-2.5v2.3c0,0.4-0.2,0.7-0.6,0.9c-0.4,0.2-0.6,0.1-0.9-0.2l-3.3-3.2v2.4c0,0.4-0.4,0.7-0.8,0.9
		c-0.4,0.2-0.8,0.1-1.1-0.2l-3.7-3.2v65.7c0,0.5-0.7,1-1.2,1c-0.5,0-1.2-0.4-1.2-1V57.6c0-0.4,0.4-0.7,0.7-0.9
		c0.3-0.2,0.8-0.1,1.1,0.2l3.7,3.2v-2.5c0-0.4,0.2-0.7,0.6-0.9c0.4-0.2,0.6-0.1,0.9,0.2l3.3,3.2v-2.4c0-0.4,0.4-0.8,0.8-0.9
		C357.3,56.6,357.7,56.6,357.8,56.6"/>
	<path class="st5" d="M338.6,132.7c0-0.7,1.7-0.5,3.8-0.5l24.7,0c2.1,0,3.8-0.2,3.8,0.5l-6.3,4.2c-1.1,0.8-1.7,1.3-3.8,1.3l-12.4,0
		c-2.1,0-2.7-0.5-3.8-1.2L338.6,132.7z"/>
	<path class="st6" d="M376.3,114.6v-2.2c0-0.7-0.8-1-1.3-1h-40.1c-0.5,0-0.7,0.3-0.7,1v2.2H376.3z"/>
	<path class="st7" d="M376.3,114.6v2.5c0,0.7-0.8,1.5-1.3,1.5h-40.1c-0.5,0-0.7-0.8-0.7-1.5v-2.5H376.3z"/>
	<path class="st6" d="M376.3,121.7v-2.1c0-0.7-0.8-1-1.3-1h-40.1c-0.5,0-0.7,0.3-0.7,1v2.1H376.3z"/>
	<path class="st7" d="M376.3,121.7v2.5c0,0.7-0.8,1.5-1.3,1.5h-40.1c-0.5,0-0.7-0.8-0.7-1.5v-2.5H376.3z"/>
	<path class="st6" d="M376.3,128.9v-2.1c0-0.7-0.8-1-1.3-1h-40.1c-0.5,0-0.7,0.3-0.7,1v2.1H376.3z"/>
	<path class="st7" d="M376.3,128.9v2.5c0,0.7-0.8,1.5-1.3,1.5h-40.1c-0.5,0-0.7-0.8-0.7-1.5v-2.5H376.3z"/>
</g>
</svg>
