<?xml version="1.0" encoding="utf-8"?>
<!-- Generator: Adobe Illustrator 24.3.0, SVG Export Plug-In . SVG Version: 6.00 Build 0)  -->
<svg version="1.1" id="Layer_5" xmlns="http://www.w3.org/2000/svg" xmlns:xlink="http://www.w3.org/1999/xlink" x="0px" y="0px"
	 viewBox="0 0 87 91" style="enable-background:new 0 0 87 91;" xml:space="preserve">
<style type="text/css">
	.st0{fill:#897762;}
	.st1{fill:#9B886D;}
	.st2{fill:#FFFFFF;}
	.st3{fill:#FFFFFF;stroke:#FFFFFF;stroke-width:0.3891;stroke-miterlimit:10;}
	.st4{fill:#D3E2E2;}
</style>
<g>
	<rect x="35.4" y="29" transform="matrix(0.9864 -0.1646 0.1646 0.9864 -9.1515 7.0111)" class="st0" width="4.6" height="59.4"/>
	<polygon class="st1" points="55.1,14 16.3,56.1 4.6,46 39.9,0.8 52.9,0.1 	"/>
	<g>
		<path class="st2" d="M16.5,54.2l-10-8.6l0.1-0.1L40.4,2.8l11.1-0.6l1.9,11.7L53.3,14L16.5,54.2z M7,45.5l9.5,8.2L53,13.8L51.2,2.5
			L40.5,3.1L7,45.5z"/>
	</g>
	<g>
		<path class="st3" d="M22.2,44.1c0.4-0.5,0.7-1,0.8-1.4c0-0.2,0-0.4-0.1-0.6c-0.1-0.2-0.2-0.4-0.4-0.5c-0.5-0.4-1-0.6-1.5-0.5
			c-0.5,0.1-1.1,0.2-1.8,0.5c-0.3,0.1-0.6,0.2-0.9,0.3C18,41.9,17.7,42,17.4,42c-0.5,0.1-0.9,0.1-1.2,0c-0.3-0.1-0.7-0.3-1-0.5
			c-0.3-0.3-0.6-0.6-0.7-1c-0.1-0.4-0.1-0.8,0-1.3c0.1-0.5,0.3-1,0.7-1.4c0.1-0.1,0.2-0.2,0.3-0.3c0.1-0.1,0.2-0.3,0.4-0.4
			c0.1-0.1,0.2-0.2,0.4-0.3c0.1-0.1,0.2,0,0.3,0c0,0,0,0.1,0.1,0.1c-0.2,0.1-0.3,0.3-0.5,0.4c-0.2,0.2-0.3,0.3-0.5,0.5
			c-0.2,0.2-0.3,0.4-0.5,0.6c-0.1,0.2-0.2,0.4-0.3,0.7c-0.1,0.4-0.1,0.8,0.1,1.2c0.1,0.4,0.3,0.7,0.6,1c0.4,0.3,0.9,0.5,1.4,0.4
			c0.5-0.1,1.1-0.2,1.7-0.4l1-0.4c0.3-0.1,0.6-0.2,0.9-0.3c0.3-0.1,0.6-0.1,0.8-0.1c0.3,0,0.6,0.1,0.8,0.2c0.2,0.1,0.4,0.3,0.6,0.4
			c0.4,0.3,0.6,0.8,0.6,1.3c0,0.5-0.2,1.1-0.7,1.7c-0.3,0.3-0.6,0.6-0.9,0.8c-0.4,0.2-0.7,0.4-0.9,0.5c-0.1,0-0.3,0.1-0.5,0.1
			c-0.2,0.1-0.3,0.1-0.4,0c0,0,0-0.1,0-0.2c0.1-0.1,0.2-0.1,0.4-0.2c0.2-0.1,0.4-0.1,0.6-0.2c0.2-0.1,0.4-0.2,0.7-0.3
			C21.7,44.5,22,44.4,22.2,44.1z"/>
		<path class="st3" d="M17.7,34.9c0-0.1,0.1-0.1,0.1-0.1c0.1-0.1,0.2-0.1,0.3,0.1l0.1,0.1c0.4,0.3,0.8,0.7,1.2,0.9
			c0.4,0.3,0.8,0.6,1.3,1c0.2,0.2,0.4,0.3,0.6,0.5c0.2,0.2,0.4,0.3,0.6,0.5c0.4,0.3,0.8,0.6,1.1,0.9c0.4,0.3,0.8,0.5,1.2,0.7
			c0.2,0.1,0.3,0.1,0.5,0.1c0.2,0,0.4,0,0.6,0c0.2,0,0.4-0.1,0.6-0.1c0.2-0.1,0.4-0.2,0.6-0.4c0.1-0.1,0.1-0.2,0.2-0.3
			c0-0.1,0-0.2,0.1-0.3c0-0.1,0-0.3,0-0.5c-0.1-0.2-0.1-0.4-0.2-0.6c-0.1-0.2-0.2-0.4-0.3-0.6c-0.1-0.2-0.2-0.3-0.3-0.4
			c0-0.1-0.1-0.2-0.2-0.4c-0.1-0.2-0.3-0.4-0.5-0.6c-0.2-0.2-0.4-0.4-0.7-0.7c-0.2-0.2-0.5-0.4-0.7-0.6c-0.2-0.2-0.4-0.3-0.5-0.5
			c-0.1-0.1-0.2-0.2-0.2-0.2c0,0-0.2-0.1-0.4-0.3c-0.2-0.2-0.4-0.3-0.7-0.5c-0.2-0.2-0.5-0.4-0.7-0.6c-0.2-0.2-0.4-0.4-0.6-0.5
			c-0.1-0.1-0.1-0.1-0.1-0.2c0,0,0,0,0-0.1c0,0,0.1-0.1,0.1-0.1c0,0,0.1,0,0.1,0c0.2,0.2,0.5,0.4,0.7,0.5c0.2,0.2,0.4,0.3,0.7,0.5
			c0.2,0.2,0.4,0.4,0.7,0.6c0.2,0.2,0.5,0.4,0.8,0.6c0.5,0.4,1,0.9,1.4,1.4c0.4,0.5,0.9,1,1.3,1.5l0.4,0.8c0.1,0.3,0.3,0.6,0.3,0.8
			c0.1,0.3,0,0.6-0.2,0.9c0,0.1-0.1,0.1-0.2,0.3c-0.2,0.3-0.5,0.5-0.7,0.5c-0.3,0.1-0.5,0.1-0.8,0.2c-0.4,0-0.7,0-1.1-0.1
			c-0.4-0.1-0.7-0.3-1.1-0.5c-0.4-0.2-0.7-0.4-1.1-0.7c-0.3-0.3-0.7-0.6-1-0.9l-0.2-0.2c-0.2-0.2-0.4-0.4-0.7-0.5
			c-0.2-0.2-0.4-0.3-0.6-0.5c-0.3-0.2-0.5-0.4-0.7-0.5c-0.2-0.1-0.4-0.3-0.5-0.4c-0.1-0.1-0.2-0.2-0.3-0.3
			C18,35.2,17.9,35.1,17.7,34.9z"/>
		<path class="st3" d="M28.1,34.5c-0.4-0.2-0.7-0.3-1-0.5c-0.3-0.2-0.6-0.4-0.9-0.6c-0.1-0.1-0.2-0.1-0.2-0.2
			c-0.1-0.1-0.2-0.2-0.3-0.3c-0.3-0.3-0.6-0.7-1-1.2c-0.3-0.5-0.6-1-0.8-1.5c-0.2-0.5-0.3-1.1-0.2-1.6c0-0.6,0.3-1.1,0.7-1.6
			l0.1-0.1c0.1-0.1,0.1-0.1,0.2-0.2c0.1-0.1,0.1-0.1,0.2,0c0,0,0,0,0,0c0,0,0,0,0,0.1c0,0.1,0,0.2-0.1,0.3c-0.1,0.1-0.2,0.2-0.3,0.4
			c-0.4,0.5-0.5,1-0.5,1.3c0,0.4,0.1,0.8,0.2,1.1c0.1,0.1,0.1,0.3,0.2,0.5c0.1,0.2,0.2,0.3,0.2,0.5c0.2,0.3,0.4,0.6,0.7,1
			c0.3,0.3,0.5,0.6,0.8,0.8c0.2,0.2,0.5,0.4,0.9,0.7c0.4,0.3,0.8,0.5,1.3,0.8c0.5,0.2,0.9,0.3,1.4,0.3c0.5,0,0.9-0.2,1.2-0.6
			c0.2-0.2,0.3-0.3,0.3-0.5c0-0.1,0-0.2,0-0.3c0-0.1,0-0.2,0.1-0.2c0,0,0.1,0,0.2-0.1c0.1,0,0.2,0,0.2,0c0.1,0.1,0.1,0.3,0,0.5
			c-0.1,0.3-0.2,0.5-0.4,0.6c-0.3,0.3-0.5,0.5-0.8,0.6c-0.3,0.1-0.6,0.2-0.8,0.2c-0.3,0-0.6,0-0.8-0.1
			C28.6,34.7,28.4,34.6,28.1,34.5z"/>
		<path class="st3" d="M31.9,30.1c-0.4-0.2-0.7-0.3-1-0.5c-0.3-0.2-0.6-0.4-0.9-0.6c-0.1-0.1-0.2-0.1-0.2-0.2
			c-0.1-0.1-0.2-0.2-0.3-0.3c-0.3-0.3-0.6-0.7-1-1.2c-0.3-0.5-0.6-1-0.8-1.5c-0.2-0.5-0.3-1.1-0.2-1.6c0-0.6,0.3-1.1,0.7-1.6
			l0.1-0.1c0.1-0.1,0.1-0.1,0.2-0.2c0.1-0.1,0.1-0.1,0.2,0c0,0,0,0,0,0c0,0,0,0,0,0.1c0,0.1,0,0.2-0.1,0.3c-0.1,0.1-0.2,0.2-0.3,0.4
			c-0.4,0.5-0.5,1-0.5,1.3c0,0.4,0.1,0.8,0.2,1.1c0.1,0.1,0.1,0.3,0.2,0.5c0.1,0.2,0.2,0.3,0.2,0.5c0.2,0.3,0.4,0.6,0.7,1
			c0.3,0.3,0.5,0.6,0.8,0.8c0.2,0.2,0.5,0.4,0.9,0.7c0.4,0.3,0.8,0.5,1.3,0.8c0.5,0.2,0.9,0.3,1.4,0.3c0.5,0,0.9-0.2,1.2-0.6
			c0.2-0.2,0.3-0.3,0.3-0.5c0-0.1,0-0.2,0-0.3c0-0.1,0-0.2,0.1-0.2c0,0,0.1,0,0.2-0.1c0.1,0,0.2,0,0.2,0c0.1,0.1,0.1,0.3,0,0.5
			c-0.1,0.3-0.2,0.5-0.4,0.6c-0.3,0.3-0.5,0.5-0.8,0.6c-0.3,0.1-0.6,0.2-0.8,0.2c-0.3,0-0.6,0-0.8-0.1
			C32.4,30.3,32.2,30.2,31.9,30.1z"/>
		<path class="st3" d="M30,20.9c0.3-0.4,0.5-0.7,0.7-1.1c0.2-0.4,0.5-0.7,0.8-1.1c0.2-0.2,0.4-0.4,0.6-0.6c0.1,0,0.1,0,0.2,0
			c0.1,0,0.1,0,0.1,0c0,0.1,0,0.2-0.1,0.3c-0.1,0.1-0.1,0.1-0.2,0.2c-0.1,0-0.1,0.1-0.2,0.2l-0.2,0.2c-0.2,0.3-0.5,0.6-0.7,0.9
			c-0.2,0.3-0.4,0.7-0.6,1c0.1,0.2,0.3,0.3,0.5,0.5c0.2,0.2,0.4,0.3,0.6,0.5l1.1,1c0,0,0,0,0,0.1c0,0,0,0,0.1,0.1c0,0,0.1,0,0.1,0
			c0,0,0.1,0,0.1-0.1c0.1-0.1,0.1-0.2,0.2-0.3c0.1-0.1,0.1-0.2,0.2-0.3c0.1-0.2,0.2-0.3,0.3-0.5c0.1-0.2,0.3-0.3,0.4-0.5
			c0.2-0.2,0.4-0.4,0.6-0.6c0.1,0,0.2,0,0.4,0c0,0.1,0,0.2-0.2,0.3c-0.1,0.1-0.1,0.1-0.2,0.2c-0.1,0.1-0.1,0.1-0.2,0.2
			c-0.2,0.3-0.5,0.6-0.7,0.9c-0.2,0.3-0.4,0.6-0.6,0.9c0.1,0.1,0.2,0.2,0.3,0.3c0.1,0.1,0.2,0.2,0.3,0.3c0.1,0.1,0.2,0.2,0.3,0.3
			c0.1,0.1,0.2,0.2,0.3,0.3c0.2,0.2,0.4,0.4,0.6,0.6c0.2,0.2,0.4,0.3,0.5,0.5c0.2,0.2,0.5,0.4,0.7,0.6c0.2,0.2,0.5,0.3,0.8,0.5
			c0,0,0.1-0.1,0.2-0.2c0.1-0.1,0.1-0.2,0.2-0.2l0.5-0.5c0.2-0.2,0.3-0.4,0.5-0.6c0.2-0.2,0.3-0.4,0.4-0.5c0,0,0-0.1,0.1-0.2
			c0-0.1,0-0.1,0.1-0.2c0,0,0.1,0,0.1-0.1c0.1-0.1,0.2,0,0.3,0.1c0,0,0.1,0.1,0.1,0.1c-0.1,0.3-0.3,0.5-0.5,0.7
			c-0.2,0.2-0.4,0.4-0.5,0.7c-0.4,0.5-0.7,0.9-1,1.3C37.3,27,37.2,27,37.2,27c0,0-0.1,0-0.2,0c-0.3-0.2-0.5-0.4-0.8-0.6
			c-0.3-0.2-0.5-0.4-0.8-0.6l-0.1-0.1c-0.3-0.2-0.5-0.4-0.7-0.7c-0.2-0.2-0.5-0.5-0.7-0.7c-0.3-0.3-0.6-0.5-0.9-0.8
			c-0.3-0.2-0.6-0.5-0.9-0.8c-0.1-0.1-0.2-0.2-0.2-0.2c-0.1-0.1-0.2-0.2-0.3-0.2L31,21.8c-0.1-0.1-0.2-0.2-0.4-0.3
			c-0.1-0.1-0.2-0.2-0.3-0.3L30.1,21C30,21,30,20.9,30,20.9z"/>
		<path class="st3" d="M42,21.1c0.4-0.5,0.7-1,0.8-1.4c0-0.2,0-0.4-0.1-0.6c-0.1-0.2-0.2-0.4-0.4-0.5c-0.5-0.4-1-0.6-1.5-0.5
			c-0.5,0.1-1.1,0.2-1.8,0.5c-0.3,0.1-0.6,0.2-0.9,0.3c-0.3,0.1-0.6,0.2-0.9,0.2c-0.5,0.1-0.9,0.1-1.2,0c-0.3-0.1-0.7-0.3-1-0.5
			c-0.3-0.3-0.6-0.6-0.7-1c-0.1-0.4-0.1-0.8,0-1.3c0.1-0.5,0.3-1,0.7-1.4c0.1-0.1,0.2-0.2,0.3-0.3c0.1-0.1,0.2-0.3,0.4-0.4
			c0.1-0.1,0.2-0.2,0.4-0.2c0.1-0.1,0.2,0,0.3,0c0,0,0,0.1,0.1,0.1c-0.2,0.1-0.3,0.3-0.5,0.4c-0.2,0.2-0.3,0.3-0.5,0.5
			c-0.2,0.2-0.3,0.4-0.5,0.6c-0.1,0.2-0.2,0.4-0.3,0.7c-0.1,0.4-0.1,0.8,0.1,1.2c0.1,0.4,0.3,0.7,0.6,1c0.4,0.3,0.9,0.5,1.4,0.4
			c0.5-0.1,1.1-0.2,1.7-0.4l1-0.4c0.3-0.1,0.6-0.2,0.9-0.3c0.3-0.1,0.6-0.1,0.8-0.1c0.3,0,0.6,0.1,0.8,0.2c0.2,0.1,0.4,0.3,0.6,0.4
			c0.4,0.3,0.6,0.8,0.6,1.3c0,0.5-0.2,1.1-0.7,1.7c-0.3,0.3-0.6,0.6-0.9,0.8c-0.4,0.2-0.7,0.4-0.9,0.5c-0.1,0-0.3,0.1-0.5,0.1
			c-0.2,0.1-0.3,0.1-0.4,0c0,0,0-0.1,0-0.2c0.1-0.1,0.2-0.1,0.4-0.2c0.2-0.1,0.4-0.1,0.6-0.2c0.2-0.1,0.4-0.2,0.7-0.3
			C41.6,21.5,41.8,21.3,42,21.1z"/>
		<path class="st3" d="M46.1,16.3c0.4-0.5,0.7-1,0.8-1.4c0-0.2,0-0.4-0.1-0.6c-0.1-0.2-0.2-0.4-0.4-0.5c-0.5-0.4-1-0.6-1.5-0.5
			c-0.5,0.1-1.1,0.2-1.8,0.5c-0.3,0.1-0.6,0.2-0.9,0.3c-0.3,0.1-0.6,0.2-0.9,0.2c-0.5,0.1-0.9,0.1-1.2,0c-0.3-0.1-0.7-0.3-1-0.5
			c-0.3-0.3-0.6-0.6-0.7-1c-0.1-0.4-0.1-0.8,0-1.3c0.1-0.5,0.3-1,0.7-1.4c0.1-0.1,0.2-0.2,0.3-0.3c0.1-0.1,0.2-0.3,0.4-0.4
			C40,9,40.1,9,40.3,8.9c0.1,0,0.2,0,0.3,0c0,0,0,0.1,0.1,0.1c-0.2,0.1-0.3,0.3-0.5,0.4C40,9.6,39.8,9.8,39.7,10
			c-0.2,0.2-0.3,0.4-0.5,0.6C39.1,10.8,39,11,39,11.3c-0.1,0.4-0.1,0.8,0.1,1.2c0.1,0.4,0.3,0.7,0.6,1c0.4,0.3,0.9,0.5,1.4,0.4
			c0.5-0.1,1.1-0.2,1.7-0.4l1-0.4c0.3-0.1,0.6-0.2,0.9-0.3c0.3-0.1,0.6-0.1,0.8-0.1c0.3,0,0.6,0.1,0.8,0.2c0.2,0.1,0.4,0.3,0.6,0.4
			c0.4,0.3,0.6,0.8,0.6,1.3c0,0.5-0.2,1.1-0.7,1.7c-0.3,0.3-0.6,0.6-0.9,0.8c-0.4,0.2-0.7,0.4-0.9,0.5c-0.1,0-0.3,0.1-0.5,0.1
			c-0.2,0.1-0.3,0.1-0.4,0c0,0,0-0.1,0-0.2c0.1-0.1,0.2-0.1,0.4-0.2c0.2-0.1,0.4-0.1,0.6-0.2c0.2-0.1,0.4-0.2,0.7-0.3
			C45.7,16.7,45.9,16.5,46.1,16.3z"/>
	</g>
	<path class="st4" d="M86.5,90.9c-3-8.7-12.2-15.1-23-15.1c-0.8,0-1.7,0-2.5,0.1c-0.4-11.4-9.8-20.6-21.3-20.6
		c-10.2,0-18.7,7.1-20.8,16.7c-0.1,0-0.2,0-0.4,0c-9.9,0-18,8.1-18,18c0,0.3,0,0.6,0,1H86.5z"/>
</g>
</svg>
