<?xml version="1.0" encoding="utf-8"?>
<!-- Generator: Adobe Illustrator 24.3.0, SVG Export Plug-In . SVG Version: 6.00 Build 0)  -->
<svg version="1.1" id="圖層_1" xmlns="http://www.w3.org/2000/svg" xmlns:xlink="http://www.w3.org/1999/xlink" x="0px" y="0px"
	 viewBox="0 0 899.9 1534.1" style="enable-background:new 0 0 899.9 1534.1;" xml:space="preserve">
<style type="text/css">
	.st0{display:none;}
	.st1{display:inline;}
	.st2{display:inline;fill:#8AB7B6;}
	.st3{display:inline;fill:#6D5746;}
	.st4{display:inline;fill:#EEEEEE;}
	.st5{display:inline;fill:#020202;}
	.st6{display:inline;fill:#313238;}
	.st7{display:inline;fill:#FCDBB1;}
	.st8{display:inline;fill:#604B32;}
	.st9{display:inline;fill:#E8AB74;}
	.st10{display:inline;fill:#EF7348;}
	.st11{display:inline;fill:#222226;}
	.st12{display:inline;fill:#606168;}
	.st13{display:inline;fill:#0F0100;}
	.st14{display:inline;fill:#FF7F5C;}
	.st15{display:inline;fill:#91B7B7;}
	.st16{display:inline;fill:#A7CCCE;}
	.st17{display:inline;fill:#FFF7E9;}
	.st18{display:inline;fill:#FFCC73;}
	.st19{display:inline;fill:#EFB75E;}
	.st20{display:inline;fill:#8E6538;}
	.st21{display:inline;fill:#444342;}
	.st22{display:inline;fill:#898683;}
	.st23{display:inline;fill:#B7B7B7;}
	.st24{display:inline;fill:#A0856E;}
	.st25{display:inline;fill:#314856;}
	.st26{display:inline;fill:#F7F7F7;}
	.st27{display:inline;fill:#9E9E9E;}
	.st28{display:inline;fill:#E5E5E5;}
	.st29{display:inline;fill:#665848;}
	.st30{display:inline;fill:none;}
	.st31{fill:#EFF4F4;}
</style>
<g id="圖層_2_1_" class="st0">
	<g id="_x31_200x3000.2.psd_1_" class="st1">
		
			<image style="overflow:visible;enable-background:new    ;" width="1200" height="601" id="_x31_200x3000.2" xlink:href="484A386573B4037A.jpg"  transform="matrix(3.0184 0 0 3.0184 4.4969 -213.6908)">
		</image>
	</g>
</g>
<g id="圖層_3" class="st0">
	<path class="st2" d="M1084.7,379.5c0,11-90.1,19.8-201.3,19.8s-201.3-8.9-201.3-19.8c0-11,90.1-19.8,201.3-19.8
		S1084.7,368.6,1084.7,379.5"/>
	<path class="st3" d="M769.9,299.7l-24.5-6.7l1.8-6.4l0.4-1.4l0.1-0.5c0.3-1.1-0.3-1.7-1.2-1.9l-21.4-5.9c-0.9-0.2-1.7-0.1-2,1
		l-0.2,0.5l-0.4,1.4l-1.8,6.4l-23.5-6.5c-2.8-0.8-5.5,0.4-6.3,3.2L678.3,329c-0.8,2.8,0.7,6.1,3.5,6.9l72.7,19.9
		c2.8,0.8,5.8-1.4,6.5-4.1l12.6-46.1C774.4,302.8,772.7,300.4,769.9,299.7 M724.8,283.1l18.7,5.1l-1.1,3.9l-18.7-5.1L724.8,283.1z"
		/>
	
		<rect x="802.3" y="334.4" transform="matrix(0.6804 -0.7328 0.7328 0.6804 9.2643 700.2343)" class="st4" width="10.4" height="10.2"/>
	<path class="st5" d="M798.7,339.7c-1.7,1.9-1.5,5,0.6,6.9l10.5,9.8c2.1,1.9,5.2,2,6.9,0.1c1.8-1.9,1.5-5-0.6-6.9l-12.8-11.9
		C801.2,335.7,800.4,337.8,798.7,339.7"/>
	
		<rect x="967.6" y="279.8" transform="matrix(0.6467 -0.7627 0.7627 0.6467 126.243 842.5956)" class="st4" width="10.2" height="10.4"/>
	<path class="st5" d="M973.3,293.8c2,1.7,5,1.3,6.9-0.9l9.3-11c1.8-2.2,1.7-5.3-0.2-6.9c-2-1.7-5-1.3-6.9,0.9L971,289.3
		C969.2,291.4,971.3,292.1,973.3,293.8"/>
	<path class="st6" d="M918,252.7l-89.9,23.7l-17.3,4.6l4.6,17.3l1.3,23L803,336.5l7.9,7.4l18.9-20.5c0,0,3.4-29.4,10.1-31.6
		l75.4-19.9c6.9-1.3,37.7,2.6,37.7,2.6l16.7,15.3l7.2-8.5l-17.3-15.4l-24.3-17.6L918,252.7z"/>
	<path class="st7" d="M998.3,81.5c-3-0.3-5.8,1.9-6.1,4.9l-1.7,16.5l11,1.5l1.8-16.7C1003.6,84.6,1001.3,81.9,998.3,81.5"/>
	
		<rect x="991.8" y="90.5" transform="matrix(0.1285 -0.9917 0.9917 0.1285 772.2982 1073.3682)" class="st4" width="10.1" height="13.5"/>
	<path class="st8" d="M901.5,93.1c0,0,2.1-0.9,0.7-6.3c-1.4-5.4-14.8-59.8-14.8-59.8s28.3-42-11.4-74.7c0,0,4.7,28.5-18.8,30.4
		c-23.5,2-76.2,7.3-91.3,12c-15.2,4.7-41.8,23.8-28.6,63s29.2,84.6,33.6,91.4c5.2,8.1,111.8-37.4,111.8-37.4L901.5,93.1z"/>
	<path class="st9" d="M781.3,134.1c0.8,3.2-1.1,6.4-4.3,7.3l-7.3,1.9c-3.2,0.8-6.4-1.1-7.2-4.3l-3.3-12.8c-0.8-3.2,1.1-6.4,4.3-7.3
		l7.3-1.9c3.2-0.8,6.4,1.1,7.2,4.3L781.3,134.1z"/>
	<path class="st9" d="M908.6,101c0.8,3.2-1.1,6.4-4.3,7.3l-7.3,1.9c-3.2,0.8-6.4-1.1-7.3-4.3l-3.3-12.8c-0.8-3.2,1.1-6.4,4.3-7.3
		l7.3-1.9c3.2-0.8,6.4,1.1,7.3,4.3L908.6,101z"/>
	<path class="st4" d="M904.2,120.8c-0.4-0.1-126.8,32.8-127.2,33.1c-0.6,0.2-1.2,0.5-1.9,0.8l3.5,13.4L807,277.4l1.2,4.7
		c0.5,1.8,2.1,2.4,3.9,2l124.7-32.4c1.8-0.5,2.8-1.8,2.4-3.6L909.6,134l0,0l-3.5-13.4C905.2,120.6,905.1,120.7,904.2,120.8"/>
	<polygon class="st10" points="872.3,223.3 865.6,231.2 855.9,227.5 846.7,177.3 856.1,174.9 	"/>
	<path class="st7" d="M727.8,277.3l0.8,5.6c0.4,3.2,3.5,5.5,6.5,5.1s5.4-3.4,5-6.6l-0.8-5.6L727.8,277.3z"/>
	
		<rect x="726.5" y="270.2" transform="matrix(0.99 -0.1408 0.1408 0.99 -31.2848 105.9298)" class="st4" width="12.9" height="7.7"/>
	<path class="st11" d="M990,93.6c-3.7,20.6-10.8,34.2-20,38.4c-7.5,3.4-15.6,0.2-21.1-3.2c-13.7-8.3-37.4-8.4-42.7-8.2v-0.1
		c-1.3,0.1-1.1,0.1-1.9,0.2c-0.1,0-3.2,0.8-8.6,2.2l-32.3,99.6l-78.1-70.9c-5.1,1.4-8.2,2.2-8.2,2.2c-0.6,0.2-1.2,0.5-1.9,0.8l0,0
		c-8,5.4-46.8,32.9-50.3,53.4c-3.3,19.2,1.4,65.9,1.6,67.9l14.1-1.5c0-0.5-4.8-46.7-1.8-64c1.7-9.6,23-28.2,40.3-40.6L808.2,282
		c0.5,1.8,2.1,2.4,3.9,2l124.7-32.4c1.8-0.5,2.8-1.8,2.4-3.6l-29.3-113c8.1,0.3,23.8,1.5,31.6,6.2c10.2,6.2,20.3,8.1,29.4,5.7
		c1.7-0.4,3.4-1,5-1.8c14.1-6.4,23.5-22.8,28.2-49L990,93.6z"/>
	<path class="st12" d="M731.1,271.7c0.3,1.3-0.4,2.6-1.7,2.9s-2.6-0.4-2.9-1.7c-0.3-1.3,0.4-2.6,1.7-2.9
		C729.5,269.7,730.8,270.5,731.1,271.7"/>
	<path class="st12" d="M731,265.5c0.3,1.3-0.4,2.6-1.7,2.9s-2.6-0.4-2.9-1.7c-0.3-1.3,0.4-2.6,1.7-2.9
		C729.4,263.4,730.7,264.2,731,265.5"/>
	<polygon class="st6" points="862.9,222.7 820.3,206.1 815.3,193.9 795.3,181.5 784.8,151.8 	"/>
	<polygon class="st6" points="862.9,222.7 892.1,187.5 890.5,174.3 901.9,153.8 895.2,123.1 	"/>
	<path class="st7" d="M910.8,153c1.7,6.4-3,13.2-10.4,15.1l-98,25.5c-7.4,1.9-14.8-1.7-16.4-8.1L758,77.6c-1.7-6.4,3-13.2,10.4-15.1
		l98-25.5c7.4-1.9,14.8,1.7,16.4,8.1L910.8,153z"/>
	<path class="st13" d="M805.6,131.8c0.9,3.5-1.2,7.1-4.7,8s-7.1-1.2-8-4.7s1.2-7.1,4.7-8C801.1,126.2,804.7,128.3,805.6,131.8"/>
	<path class="st4" d="M798,132.1c0.2,0.9-0.3,1.8-1.2,2.1c-0.9,0.2-1.8-0.3-2.1-1.2c-0.2-0.9,0.3-1.8,1.2-2.1
		C796.8,130.6,797.8,131.2,798,132.1"/>
	<path class="st13" d="M881.4,112.1c0.9,3.5-1.2,7.1-4.7,8s-7.1-1.2-8-4.7s1.2-7.1,4.7-8S880.5,108.6,881.4,112.1"/>
	<path class="st14" d="M858.3,144.5c-0.6-0.5-1.4-0.7-2.1-0.5l-27,7c-0.8,0.2-1.4,0.8-1.7,1.6c-0.2,0.8-0.1,1.6,0.4,2.3
		c0.4,0.5,9.9,11.6,19.7,9c9.9-2.6,11.4-16.7,11.5-17.3C859.2,145.7,858.9,145,858.3,144.5"/>
	<polygon class="st8" points="843.5,39.7 790.2,53.6 823.1,70.7 	"/>
	<path class="st4" d="M874,112.4c0.2,0.9-0.3,1.8-1.2,2.1c-0.9,0.2-1.8-0.3-2.1-1.2c-0.2-0.9,0.3-1.8,1.2-2.1
		C872.9,110.9,873.8,111.4,874,112.4"/>
	<path class="st12" d="M1002.7,98.1c0.3,1.3-0.4,2.6-1.7,2.9s-2.6-0.4-2.9-1.7c-0.3-1.3,0.4-2.6,1.7-2.9S1002.4,96.9,1002.7,98.1"/>
	<path class="st12" d="M1000.9,104.1c0.3,1.3-0.4,2.6-1.7,2.9s-2.6-0.4-2.9-1.7c-0.3-1.3,0.4-2.6,1.7-2.9S1000.6,102.8,1000.9,104.1
		"/>
	<path class="st15" d="M1081.7,1078.8c0,7.8-40.1,14.1-89.5,14.1s-89.5-6.3-89.5-14.1c0-7.8,40.1-14.1,89.5-14.1
		C1041.6,1064.6,1081.7,1071,1081.7,1078.8"/>
	<path class="st7" d="M841.7,918.3l-12.1-1.6c-2.8-0.4-5.3,1.7-5.6,4.4c-0.4,2.7,1.6,5.3,4.3,5.7l12.1,1.6L841.7,918.3z"/>
	<rect x="1039.1" y="1066.4" class="st4" width="8.6" height="9.6"/>
	<path class="st5" d="M1037.5,1077.4c0,2.4,2.1,4.3,4.7,4.3h13.2c2.6,0,4.7-2,4.7-4.3c0-2.4-2.1-4.3-4.7-4.3h-16.1
		C1036.7,1073.1,1037.5,1075,1037.5,1077.4"/>
	<rect x="931.4" y="1066.4" class="st4" width="9.6" height="9.6"/>
	<path class="st5" d="M941.9,1077.4c0,2.4-2.1,4.3-4.7,4.3H924c-2.6,0-4.7-2-4.7-4.3c0-2.4,2.1-4.3,4.7-4.3h16.1
		C942.7,1073.1,941.9,1075,941.9,1077.4"/>
	<path class="st8" d="M926.4,867c0,0-2-0.3-2-5.3s-0.7-55.7-0.7-55.7s-34.3-30.3-7-68c0,0,2.3,26,23.3,22.3s68.4-11,82.7-10.3
		s42,11.3,39.3,48.7c-2.7,37.3-6.4,80.7-8.7,87.7c-2.7,8.2-106.4-7.3-106.4-7.3L926.4,867z"/>
	<path class="st9" d="M1058.3,863.2c0-3-2.4-5.4-5.4-5.4h-6.5c-3,0-5.4,2.4-5.4,5.4v12.3c0,3,2.4,5.4,5.4,5.4h6.5
		c3,0,5.4-2.4,5.4-5.4V863.2z"/>
	<path class="st9" d="M939.1,863.2c0-3-2.4-5.4-5.4-5.4h-6.5c-3,0-5.4,2.4-5.4,5.4v12.3c0,3,2.4,5.4,5.4,5.4h6.5
		c3,0,5.4-2.4,5.4-5.4V863.2z"/>
	<path class="st7" d="M1070.8,981.8c0-2.7-2.2-4.8-4.8-4.8c-2.7,0-4.8,2.2-4.8,4.8v25c0,2.7,2.2,4.8,4.8,4.8c2.7,0,4.8-2.2,4.8-4.8
		V981.8z"/>
	<path class="st6" d="M946.9,1009.6h85.4h16.4v16v46.5h-11.5v-34.3c0-6.5-5.3-11.8-11.8-11.8h-71.6c-6.4,0-11.8,5.1-11.8,11.4v34.7
		h-11.5v-46.5v-16L946.9,1009.6L946.9,1009.6z"/>
	<polygon class="st4" points="990.5,975.8 960,931.8 1021.1,931.8 	"/>
	<polygon class="st10" points="981.5,974.2 989.2,979.7 996.9,974.1 993.5,927.9 984.7,927.9 	"/>
	<polygon class="st4" points="1059.3,992 1059.3,1002.9 1071.8,1002.9 1071.8,991.9 	"/>
	<polygon class="st4" points="843.1,917.6 834.5,916.4 832.8,928.4 841.5,929.6 	"/>
	<path class="st11" d="M1063.6,898c-4.8-4.3-10.4-5.7-14.5-6.2c-0.1,0-2.9,0-7.7-0.1l-52.2,79.9l-50.9-79.9c-5,0-7.9,0-8,0.1
		c-0.3,0-0.4,0-0.6,0.1c-0.9,0.1-21.4,2.9-41.7,16.5c-19.3,13-50.2,8.3-50.5,8.2l-2,12.4c0.6,0.1,6.8,1.1,15.5,1.1
		c12.5,0,30.2-2,44-11.3c13.7-9.2,27.8-12.9,33.6-14.2v106.6c0,1.7,1.2,3.2,2.9,3.2H1048c1.7,0,2.6-1.5,2.6-3.2V904.7
		c1.9,0.5,3.1,1.3,4.5,2.5c2.8,2.5,4.1,6.7,4.1,12.4v78.5h12.5v-78.5C1071.8,910.3,1069.1,903,1063.6,898"/>
	<polygon class="st6" points="989.6,971.7 1023.2,947.4 1024.8,935.6 1039.4,920.2 1041.9,891.8 	"/>
	<polygon class="st6" points="989.6,971.7 956,947.4 954.4,935.6 939.8,920.2 938.7,891.8 	"/>
	<path class="st7" d="M1047.7,820.6c0-6-5.6-10.8-12.6-10.8H944c-6.9,0-12.6,4.9-12.6,10.8v101.3c0,6,5.6,10.9,12.6,10.9h91.2
		c6.9,0,12.6-4.9,12.6-10.9L1047.7,820.6L1047.7,820.6z"/>
	<path class="st13" d="M1019.2,879.1c0,3.3,2.7,6,6,6c3.3,0,6-2.7,6-6s-2.7-6-6-6C1021.8,873.1,1019.2,875.8,1019.2,879.1"/>
	<path class="st4" d="M1025.9,877.6c0,0.9,0.7,1.5,1.5,1.5c0.9,0,1.5-0.7,1.5-1.5c0-0.9-0.7-1.5-1.5-1.5
		C1026.5,876,1025.9,876.7,1025.9,877.6"/>
	<path class="st13" d="M948.2,879.1c0,3.3,2.7,6,6,6s6-2.7,6-6s-2.7-6-6-6S948.2,875.8,948.2,879.1"/>
	<path class="st14" d="M975.9,902c0.4-0.6,1.1-1,1.8-1h25.2c0.7,0,1.4,0.4,1.8,1.1c0.4,0.6,0.4,1.4,0.1,2.1
		c-0.2,0.5-6,12.4-15.2,12.4c-9.3,0-13.8-12.1-14-12.6C975.4,903.4,975.5,902.6,975.9,902"/>
	<polygon class="st8" points="965,806.8 1014.9,806.8 989.9,829.3 	"/>
	<path class="st4" d="M954.8,877.6c0,0.9,0.7,1.5,1.5,1.5c0.9,0,1.5-0.7,1.5-1.5c0-0.9-0.7-1.5-1.5-1.5
		C955.5,876,954.8,876.7,954.8,877.6"/>
	<path class="st12" d="M1066.8,995.2c0,1.2,1,2.2,2.2,2.2s2.2-1,2.2-2.2s-1-2.2-2.2-2.2S1066.8,994,1066.8,995.2"/>
	<path class="st12" d="M843.1,919.9c0,1.2,1,2.2,2.2,2.2s2.2-1,2.2-2.2s-1-2.2-2.2-2.2S843.1,918.7,843.1,919.9"/>
	<path class="st12" d="M1066.8,989.6c0,1.2,1,2.2,2.2,2.2s2.2-1,2.2-2.2s-1-2.2-2.2-2.2C1067.8,987.5,1066.8,988.5,1066.8,989.6"/>
	<path class="st12" d="M837.9,919.5c0,1.2,1,2.2,2.2,2.2s2.2-1,2.2-2.2s-1-2.2-2.2-2.2C838.9,917.4,837.9,918.3,837.9,919.5"/>
	<path class="st16" d="M852.4,659.8h-99.9c-17,0-30.4,13.7-30.4,30.6V789c0,17,13.5,30.5,30.4,30.5h54.6
		c14.8,11.1,37.3,24.9,60.5,33c0,0-15.8-15.5-25.9-33h10.6c17,0,31-13.5,31-30.5v-98.6C883.4,673.4,869.3,659.8,852.4,659.8"/>
	<path class="st17" d="M755.2,729.2c0-25.3,20.5-45.8,45.8-45.8s45.8,20.5,45.8,45.8S826.3,775,801,775S755.2,754.5,755.2,729.2"/>
	<path class="st18" d="M759,728.7c0-23.2,18.8-42,42-42s42,18.8,42,42s-18.8,42-42,42S759,751.9,759,728.7"/>
	<path class="st19" d="M837.8,712.6c0.4,2.2,0.6,4.5,0.6,6.8c0,21.9-19.8,39.7-44.3,39.7c-8.9,0-17.2-2.4-24.2-6.4
		c7.3,9.4,18.6,15.5,31.5,15.5c21.9,0,39.7-17.8,39.7-39.7C841.1,722.8,839.9,717.5,837.8,712.6"/>
	<path class="st20" d="M803.7,716.2c0.3,0,0.5,0.1,0.7,0.3l4.7,4.4c0.2,0.2,0.4,0.4,0.4,0.7v63.5c0,0.5-0.6,1-1.2,1
		c-0.5,0-1.2-0.4-1.2-1V722l-2.4-2.5v2.3c0,0.4-0.2,0.7-0.6,0.9c-0.4,0.2-0.6,0.1-0.9-0.2l-3.3-3.2v2.4c0,0.4-0.4,0.7-0.8,0.9
		c-0.4,0.2-0.8,0.1-1.1-0.2l-3.7-3.2v65.7c0,0.5-0.7,1-1.2,1s-1.2-0.4-1.2-1v-67.8c0-0.4,0.4-0.7,0.7-0.9s0.8-0.1,1.1,0.2l3.7,3.2
		v-2.5c0-0.4,0.2-0.7,0.6-0.9c0.4-0.2,0.6-0.1,0.9,0.2l3.3,3.2v-2.4c0-0.4,0.4-0.8,0.8-0.9C803.2,716.3,803.5,716.2,803.7,716.2"/>
	<path class="st21" d="M784.5,792.3c0-0.7,1.7-0.5,3.8-0.5H813c2.1,0,3.8-0.2,3.8,0.5l-6.3,4.2c-1.1,0.8-1.7,1.3-3.8,1.3h-12.4
		c-2.1,0-2.7-0.5-3.8-1.2L784.5,792.3z"/>
	<path class="st22" d="M822.2,774.2V772c0-0.7-0.8-1-1.3-1h-40.1c-0.5,0-0.7,0.3-0.7,1v2.2H822.2z"/>
	<path class="st23" d="M822.2,774.2v2.5c0,0.7-0.8,1.5-1.3,1.5h-40.1c-0.5,0-0.7-0.8-0.7-1.5v-2.5H822.2z"/>
	<path class="st22" d="M822.2,781.4v-2.1c0-0.7-0.8-1-1.3-1h-40.1c-0.5,0-0.7,0.3-0.7,1v2.1H822.2z"/>
	<path class="st23" d="M822.2,781.4v2.5c0,0.7-0.8,1.5-1.3,1.5h-40.1c-0.5,0-0.7-0.8-0.7-1.5v-2.5H822.2z"/>
	<path class="st22" d="M822.2,788.5v-2.1c0-0.7-0.8-1-1.3-1h-40.1c-0.5,0-0.7,0.3-0.7,1v2.1H822.2z"/>
	<path class="st23" d="M822.2,788.5v2.5c0,0.7-0.8,1.5-1.3,1.5h-40.1c-0.5,0-0.7-0.8-0.7-1.5v-2.5H822.2z"/>
	<path class="st15" d="M767.3,1083c0,7.9-55.6,14.2-124.2,14.2s-124.2-6.4-124.2-14.2c0-7.9,55.6-14.2,124.2-14.2
		S767.3,1075.1,767.3,1083"/>
	<path class="st24" d="M534.7,1008.7l-23.7-6.5l1.7-6.2l0.4-1.4l0.1-0.5c0.3-1.1-0.3-1.6-1.2-1.8l-20.7-5.7c-0.9-0.2-1.7-0.1-1.9,1
		l-0.1,0.5l-0.4,1.4l-1.7,6.2l-22.7-6.2c-2.7-0.7-5.3,0.4-6.1,3l-12.2,44.5c-0.7,2.7,0.7,5.9,3.4,6.7l70.2,19.2
		c2.7,0.7,5.6-1.3,6.3-4l12.2-44.5C539.1,1011.8,537.4,1009.5,534.7,1008.7 M491.2,992.7l18.1,5l-1,3.8l-18.1-5L491.2,992.7z"/>
	<path class="st7" d="M757.7,938l10.9-4.4c2.5-1,3.7-4,2.6-6.5c-1-2.5-3.9-3.9-6.4-2.8l-10.9,4.4L757.7,938z"/>
	<path class="st7" d="M500.1,980.7L497,992c-0.7,2.6,1,5.3,3.6,6s5.4-0.8,6.1-3.4l3-11.3L500.1,980.7z"/>
	
		<rect x="558.1" y="1061.5" transform="matrix(0.7617 -0.6479 0.6479 0.7617 -556.5902 618.6298)" class="st4" width="9.3" height="9.1"/>
	<path class="st5" d="M554.9,1065.3c-1.8,1.5-1.8,4.3-0.2,6.2l8.3,9.8c1.6,1.9,4.4,2.3,6.1,0.8c1.8-1.5,1.8-4.3,0.2-6.2l-10.2-11.9
		C557.6,1062,556.6,1063.8,554.9,1065.3"/>
	
		<rect x="710.8" y="1030.2" transform="matrix(0.7313 -0.6821 0.6821 0.7313 -513.6603 766.0079)" class="st4" width="9.1" height="9.3"/>
	<path class="st5" d="M714.9,1042.8c1.6,1.7,4.3,1.6,6.2-0.1l9.4-8.8c1.9-1.7,2.1-4.5,0.5-6.2s-4.3-1.6-6.2,0.1l-11.5,10.7
		C711.5,1040.3,713.3,1041.1,714.9,1042.8"/>
	<path class="st8" d="M672.4,858.5c0,0,1.9-0.6,1.2-5.4c-0.7-4.8-7-53.8-7-53.8s29-34-2.5-66.6c0,0,1.3,25.4-19.5,24.7
		s-67.4-1.3-81.2,1.3c-13.7,2.6-39,16.7-31.3,52.3c7.7,35.7,17.1,77,20.3,83.4c3.8,7.6,101.6-21.6,101.6-21.6L672.4,858.5z"/>
	<path class="st9" d="M563.1,882.3c0.4,2.9-1.6,5.5-4.5,5.9l-6.6,0.9c-2.9,0.4-5.5-1.6-5.9-4.5l-1.6-11.6c-0.4-2.9,1.6-5.5,4.5-5.9
		l6.6-0.9c2.9-0.4,5.5,1.6,5.9,4.5L563.1,882.3z"/>
	<path class="st9" d="M677.9,866.1c0.4,2.9-1.6,5.5-4.5,5.9l-6.6,0.9c-2.9,0.4-5.5-1.6-5.9-4.5l-1.6-11.6c-0.4-2.9,1.6-5.5,4.5-5.9
		l6.6-0.9c2.9-0.4,5.5,1.6,5.9,4.5L677.9,866.1z"/>
	<path class="st6" d="M670.1,1000.5l-82.4,11.7l-15.8,2.2l2.2,15.8l-1.2,20.6l-13.8,12.1l6.3,7.4l18.9-16.3c0,0,6.1-25.7,12.3-27.1
		l69-9.8c6.2-0.5,33.2,6.3,33.2,6.3l13.2,15.3l7.3-6.8l-13.7-15.5l-19.8-18.2L670.1,1000.5z"/>
	<path class="st4" d="M759.6,925.4c-0.2,0.1-21.6,8.8-39-13.8c-19.7-25.7-42-28.4-47-28.6c-0.5,0-1,0-1.5,0
		c-0.4-0.1-114.4,16.1-114.7,16.2c-0.5,0.1-1,0.3-1.5,0.4c-1.4,0.7-33.8,17.3-42.6,38.6c-8.3,20-15.6,47.7-15.9,48.9l11.4,3
		c0.1-0.3,7.5-28.2,15.4-47.4c5.6-13.5,24.6-25.9,33-30.9v0.1l14.5,102.8c0.2,1.6,1.9,2.6,3.5,2.4l112.5-15.9
		c1.6-0.2,2.4-1.6,2.2-3.2l-14.5-102.8c6,0.8,21.5,4.7,35.9,23.6c14.3,18.6,32.2,21.5,44.3,19.8c3.4-0.5,6.3-1.3,8.6-2.3
		L759.6,925.4z"/>
	<polygon class="st25" points="633.9,969.5 627.3,975.8 619.1,971.6 616,926.7 624.5,925.5 	"/>
	<path class="st7" d="M674.7,911.8c0.8,5.8-3.9,11.2-10.6,12.2l-88.4,12.5c-6.7,0.9-12.8-3-13.6-8.8l-13.8-97.3
		c-0.8-5.8,3.9-11.2,10.6-12.2l88.4-12.5c6.7-0.9,12.8,3,13.6,8.8L674.7,911.8z"/>
	<path class="st13" d="M584.6,882.8c0.4,3.2-1.8,6.1-4.9,6.6c-3.2,0.4-6.1-1.8-6.6-4.9c-0.4-3.2,1.8-6.1,4.9-6.6
		C581.2,877.4,584.1,879.6,584.6,882.8"/>
	<path class="st4" d="M577.9,882.3c0.1,0.8-0.5,1.6-1.3,1.7c-0.8,0.1-1.6-0.5-1.7-1.3c-0.1-0.8,0.5-1.6,1.3-1.7
		C577,880.9,577.8,881.5,577.9,882.3"/>
	<path class="st13" d="M653,873.1c0.5,3.2-1.8,6.1-4.9,6.6c-3.2,0.4-6.1-1.8-6.6-4.9c-0.4-3.2,1.8-6.1,4.9-6.6
		C649.6,867.7,652.5,870,653,873.1"/>
	<path class="st14" d="M628.7,896.7c-0.5-0.5-1.1-0.7-1.8-0.6l-24.3,3.4c-0.7,0.1-1.3,0.6-1.6,1.2c-0.3,0.7-0.2,1.4,0.2,2
		c0.3,0.5,9.3,21.6,18.1,20.4c8.9-1.3,9.9-24,10-24.5C629.3,897.9,629.1,897.2,628.7,896.7"/>
	<polygon class="st8" points="627,805.9 578.9,812.7 606,831 	"/>
	<path class="st4" d="M646.5,872.6c0.1,0.8-0.5,1.6-1.3,1.7c-0.8,0.1-1.6-0.5-1.7-1.3c-0.1-0.8,0.5-1.6,1.3-1.7
		C645.6,871.2,646.3,871.8,646.5,872.6"/>
	
		<rect x="714.4" y="912.6" transform="matrix(0.289 -0.9573 0.9573 0.289 -326.9151 1399.6075)" class="st26" width="128.8" height="14.6"/>
	<path class="st27" d="M790.5,856.3c-0.2,0.8,2.7,2.3,6.6,3.5c3.9,1.2,7.2,1.5,7.4,0.7s-2.7-2.3-6.6-3.5
		C794,855.8,790.7,855.5,790.5,856.3"/>
	<path class="st26" d="M753.2,979.6c-0.2,0.8,2.7,2.3,6.6,3.5c3.9,1.2,7.2,1.5,7.4,0.7s-2.7-2.3-6.6-3.5
		C756.8,979.1,753.4,978.8,753.2,979.6"/>
	<path class="st28" d="M790.1,857.4l-6.4-1.9c0,0-7.2,53.1-20.6,91.3L790.1,857.4z"/>
	<path class="st29" d="M772.3,909.6c-0.2,0.7,0.2,1.4,0.9,1.7l14,4.2c0.7,0.2,1.4-0.2,1.7-0.9c0.2-0.7-0.2-1.4-0.9-1.7l-14-4.2
		C773.2,908.5,772.5,908.9,772.3,909.6"/>
	<path class="st29" d="M771.3,912.8c-0.2,0.7,0.2,1.4,0.9,1.7l14,4.2c0.7,0.2,1.4-0.2,1.7-0.9c0.2-0.7-0.2-1.4-0.9-1.7l-14-4.2
		C772.3,911.7,771.5,912.1,771.3,912.8"/>
	<polyline class="st30" points="1081.7,1097.2 446.1,1097.2 446.1,659.8 	"/>
</g>
<rect y="96.8" class="st31" width="899.9" height="220"/>
</svg>
