<?xml version="1.0" encoding="utf-8"?>
<!-- Generator: Adobe Illustrator 24.3.0, SVG Export Plug-In . SVG Version: 6.00 Build 0)  -->
<svg version="1.1" id="圖層_1" xmlns="http://www.w3.org/2000/svg" xmlns:xlink="http://www.w3.org/1999/xlink" x="0px" y="0px"
	 viewBox="0 0 840 390" style="enable-background:new 0 0 840 390;" xml:space="preserve">
<style type="text/css">
	.st0{fill:#E1EAEA;}
</style>
<g>
	<g>
		<path class="st0" d="M93.7,48.3c-3.3-9.4-13.2-16.5-24.9-16.5c-0.9,0-1.8,0-2.7,0C65.6,19.5,55.4,9.6,42.9,9.6
			c-11,0-20.2,7.7-22.5,18c-0.1,0-0.3,0-0.4,0c-10.7,0-19.5,8.9-19.5,19.6c0,0.3,0,0.6,0,1.1H93.7z"/>
		<path class="st0" d="M197,92.6c-3.3-9.4-13.2-16.4-24.9-16.4c-0.9,0-1.8,0-2.7,0.1C168.9,63.9,158.8,54,146.3,54
			c-11,0-20.2,7.7-22.5,18c-0.1,0-0.3,0-0.4,0c-10.7,0-19.5,8.8-19.5,19.6c0,0.3,0,0.5,0,1.1H197z"/>
		<path class="st0" d="M168,18c-1.5-4.2-5.9-7.3-11.2-7.3c-0.4,0-0.8,0-1.2,0.1c-0.2-5.5-4.7-10-10.3-10c-4.9,0-9.1,3.5-10.1,8.1
			c-0.1,0-0.1,0-0.2,0c-4.8,0-8.7,3.9-8.7,8.7c0,0.1,0,0.4,0,0.4H168z"/>
	</g>
	<g>
		<path class="st0" d="M746.3,344.8c3.3-9.4,13.2-16.5,24.9-16.5c0.9,0,1.8,0,2.7,0c0.4-12.4,10.6-22.3,23.1-22.3
			c11,0,20.2,7.7,22.5,18c0.1,0,0.3,0,0.4,0c10.7,0,19.5,8.9,19.5,19.6c0,0.3,0,0.6,0,1.1H746.3z"/>
		<path class="st0" d="M643,389.1c3.3-9.4,13.2-16.4,24.9-16.4c0.9,0,1.8,0,2.7,0.1c0.4-12.4,10.6-22.3,23.1-22.3
			c11,0,20.2,7.7,22.5,18c0.1,0,0.3,0,0.4,0c10.7,0,19.5,8.8,19.5,19.6c0,0.3,0,0.5,0,1.1H643z"/>
		<path class="st0" d="M672,314.6c1.5-4.2,5.9-7.3,11.2-7.3c0.4,0,0.8,0,1.2,0.1c0.2-5.5,4.7-10,10.3-10c4.9,0,9.1,3.5,10.1,8.1
			c0.1,0,0.1,0,0.2,0c4.8,0,8.7,3.9,8.7,8.7c0,0.1,0,0.4,0,0.4H672z"/>
	</g>
</g>
</svg>
