<?xml version="1.0" encoding="utf-8"?>
<!-- Generator: Adobe Illustrator 24.1.2, SVG Export Plug-In . SVG Version: 6.00 Build 0)  -->
<svg version="1.1" id="圖層_1" xmlns="http://www.w3.org/2000/svg" xmlns:xlink="http://www.w3.org/1999/xlink" x="0px" y="0px"
	 viewBox="0 0 320 198" style="enable-background:new 0 0 320 198;" xml:space="preserve">
<style type="text/css">
	.st0{fill:#333333;}
	.st1{fill:url(#SVGID_1_);}
	.st2{opacity:0.4;fill:url(#SVGID_2_);enable-background:new    ;}
	.st3{fill:#9F9F9F;}
	.st4{fill:#B6B6B6;}
	.st5{fill:#838383;}
	.st6{fill:#BFBFBF;}
	.st7{fill:#404040;}
	.st8{fill:#666666;}
</style>
<g>
	<g>
		<path class="st0" d="M217.69,3.81c101.6,58.62,87.93,50.73,94.2,54.37c2.25,1.32,7.27,3.85,7.29,8.63
			c0.02,2.66-1.7,5.31-5.21,7.34L127.91,181.57c-7.01,3.97-18.51,3.91-25.64-0.2L6.2,125.91c-3.6-2.11-5.44-4.79-5.38-7.57
			c-0.13-2.59,1.62-5.19,5-7.21L191.89,3.71C198.97-0.38,210.53-0.35,217.69,3.81z"/>
		
			<radialGradient id="SVGID_1_" cx="206.3247" cy="193.5629" r="188.9805" gradientTransform="matrix(1 0 0 -1 0 199)" gradientUnits="userSpaceOnUse">
			<stop  offset="0" style="stop-color:#39A5E3"/>
			<stop  offset="0.1885" style="stop-color:#389DE0"/>
			<stop  offset="0.4727" style="stop-color:#3789D8"/>
			<stop  offset="0.8158" style="stop-color:#3467CC"/>
			<stop  offset="1" style="stop-color:#3252C4"/>
		</radialGradient>
		<path class="st1" d="M8.51,124.59c-2.91-1.71-4.49-3.92-4.44-6.23v-0.08c-0.11-2.14,1.35-4.22,4.09-5.86L194.18,5.04
			c5.8-3.35,15.3-3.31,21.18,0.08c0,0,83.94,48.43,88.26,50.93c2.93,1.69,5.98,3.46,5.98,3.46l0.77,0.44
			c1.94,1.12,5.56,3.21,5.58,6.87c0.02,2.28-1.5,4.41-4.26,6.01L125.61,180.24c-5.75,3.26-15.2,3.17-21.06-0.2L8.51,124.59z"/>
		
			<linearGradient id="SVGID_2_" gradientUnits="userSpaceOnUse" x1="179.0349" y1="200.1043" x2="176.3106" y2="85.6853" gradientTransform="matrix(1 0 0 -1 0 199)">
			<stop  offset="0" style="stop-color:#FFFFFF"/>
			<stop  offset="0.0865" style="stop-color:#F7F7F7"/>
			<stop  offset="0.2172" style="stop-color:#E3E3E3"/>
			<stop  offset="0.3758" style="stop-color:#C1C1C1"/>
			<stop  offset="0.5564" style="stop-color:#919191"/>
			<stop  offset="0.7553" style="stop-color:#555555"/>
			<stop  offset="0.9668" style="stop-color:#0C0C0C"/>
			<stop  offset="1" style="stop-color:#000000"/>
		</linearGradient>
		<path class="st2" d="M310.36,59.94l-0.77-0.44c0,0-3.05-1.77-5.98-3.46c-4.32-2.5-88.26-50.93-88.26-50.93
			c-5.88-3.39-15.38-3.43-21.18-0.08L38.22,95.08c60.56,7.84,145.74,13.16,221.72,7.61l51.74-29.87c2.77-1.6,4.28-3.73,4.26-6.01
			C315.92,63.16,312.31,61.07,310.36,59.94z"/>
	</g>
	<path class="st3" d="M6.26,125.89c-0.61-0.35-1.14-0.72-1.65-1.11c-5.55,4.1-4.99,10.11,1.65,13.94c0.01,0,96.05,55.46,96.05,55.46
		v-12.84C102.3,181.35,6.26,125.9,6.26,125.89z"/>
	<path class="st4" d="M128.09,181.48c-7.06,4.08-18.61,4.01-25.79-0.13v12.84c7.18,4.14,18.73,4.21,25.79,0.13V181.48z"/>
	<polygon class="st3" points="313.97,74.15 128.09,181.48 128.09,194.32 313.97,86.99 	"/>
	<path class="st5" d="M313.97,86.99c3.47-2.01,5.14-4.65,5.14-7.31c0.07-0.02,0.07-12.85,0.07-12.85c0,2.27-1.27,4.52-3.79,6.39
		c-0.44,0.32-0.9,0.64-1.42,0.94V86.99z"/>
	<polygon class="st3" points="128.09,181.48 127.91,188.34 313.97,80.92 313.97,74.15 	"/>
	<path class="st6" d="M6.25,125.91v12.83c-3.63-2.08-5.44-4.84-5.44-7.55v-12.85c0,2.27,1.27,4.57,3.79,6.47
		C5.12,125.2,5.66,125.55,6.25,125.91z"/>
	<g>
		<g>
			<path class="st7" d="M58.01,165.25l-14.12-8.15c-1.27-0.73-2.29-2.51-2.29-3.97s1.03-2.06,2.29-1.32l14.12,8.15
				c1.27,0.73,2.29,2.51,2.29,3.97S59.27,165.98,58.01,165.25z"/>
			<path class="st8" d="M59.65,164.35l-14.12-8.15c-1.27-0.73-2.29-2.51-2.29-3.97c0-0.24,0.07-0.42,0.12-0.61
				c-1-0.29-1.76,0.26-1.76,1.51c0,1.46,1.03,3.24,2.29,3.97l14.12,8.15c1.06,0.61,1.91,0.26,2.18-0.72
				C60.01,164.48,59.84,164.46,59.65,164.35z"/>
		</g>
		<g>
			<path class="st7" d="M15.76,138.22c0,2-1.4,2.81-3.13,1.81S9.5,136.6,9.5,134.6s1.4-2.81,3.13-1.81
				C14.36,133.79,15.76,136.22,15.76,138.22z"/>
			<path class="st8" d="M14.27,139.12c-1.73-1-3.13-3.43-3.13-5.43c0-0.53,0.11-0.97,0.29-1.32c-1.13-0.1-1.93,0.72-1.93,2.23
				c0,2,1.4,4.43,3.13,5.43c1.27,0.73,2.35,0.48,2.84-0.49C15.1,139.5,14.7,139.37,14.27,139.12z"/>
		</g>
		<g>
			<g>
				<g>
					<path class="st7" d="M80.35,173.31c0,0.71-0.5,1-1.12,0.64s-1.12-1.22-1.12-1.93s0.5-1,1.12-0.64S80.35,172.6,80.35,173.31z"/>
					<path class="st7" d="M84.39,175.65c0,0.71-0.5,1-1.12,0.64s-1.12-1.22-1.12-1.93c0-0.71,0.5-1,1.12-0.64
						C83.89,174.07,84.39,174.94,84.39,175.65z"/>
					<path class="st7" d="M88.43,177.98c0,0.71-0.5,1-1.12,0.64s-1.12-1.22-1.12-1.93s0.5-1,1.12-0.64S88.43,177.27,88.43,177.98z"
						/>
					<path class="st7" d="M92.47,180.32c0,0.71-0.5,1-1.12,0.64s-1.12-1.22-1.12-1.93c0-0.71,0.5-1,1.12-0.64
						C91.98,178.74,92.47,179.6,92.47,180.32z"/>
					<path class="st7" d="M96.52,182.65c0,0.71-0.5,1-1.12,0.64s-1.12-1.22-1.12-1.93c0-0.71,0.5-1,1.12-0.64
						C96.02,181.07,96.52,181.94,96.52,182.65z"/>
				</g>
				<g>
					<path class="st7" d="M80.35,177.34c0,0.71-0.5,1-1.12,0.64s-1.12-1.22-1.12-1.93c0-0.71,0.5-1,1.12-0.64
						C79.85,175.76,80.35,176.63,80.35,177.34z"/>
					<path class="st7" d="M84.39,179.67c0,0.71-0.5,1-1.12,0.64s-1.12-1.22-1.12-1.93s0.5-1,1.12-0.64S84.39,178.96,84.39,179.67z"
						/>
					<path class="st7" d="M88.43,182.01c0,0.71-0.5,1-1.12,0.64s-1.12-1.22-1.12-1.93c0-0.71,0.5-1,1.12-0.64
						C87.93,180.43,88.43,181.3,88.43,182.01z"/>
					<path class="st7" d="M92.47,184.34c0,0.71-0.5,1-1.12,0.64s-1.12-1.22-1.12-1.93s0.5-1,1.12-0.64
						C91.98,182.76,92.47,183.63,92.47,184.34z"/>
					<path class="st7" d="M96.52,186.68c0,0.71-0.5,1-1.12,0.64s-1.12-1.22-1.12-1.93s0.5-1,1.12-0.64
						C96.02,185.1,96.52,185.96,96.52,186.68z"/>
				</g>
			</g>
			<path class="st8" d="M86.92,176.18c-0.39-0.33-0.72-0.05-0.72,0.52c0,0.71,0.5,1.58,1.12,1.93c0.53,0.31,0.96,0.11,1.07-0.4
				c-0.11-0.02-0.23-0.05-0.35-0.12C87.42,177.75,86.92,176.89,86.92,176.18z M78.83,171.51c-0.39-0.33-0.72-0.05-0.72,0.52
				c0,0.71,0.5,1.58,1.12,1.93c0.53,0.31,0.96,0.11,1.07-0.4c-0.11-0.02-0.23-0.05-0.35-0.12
				C79.33,173.08,78.83,172.22,78.83,171.51z M82.88,173.84c-0.39-0.33-0.72-0.05-0.72,0.52c0,0.71,0.5,1.58,1.12,1.93
				c0.53,0.31,0.96,0.11,1.07-0.4c-0.11-0.02-0.23-0.05-0.35-0.12C83.38,175.42,82.88,174.55,82.88,173.84z M90.96,178.51
				c-0.39-0.33-0.72-0.05-0.72,0.52c0,0.71,0.5,1.58,1.12,1.93c0.53,0.31,0.96,0.11,1.07-0.4c-0.11-0.02-0.23-0.05-0.35-0.12
				C91.46,180.09,90.96,179.22,90.96,178.51z M96.47,182.9c-0.11-0.02-0.23-0.05-0.35-0.12c-0.62-0.36-1.12-1.22-1.12-1.93
				c-0.39-0.33-0.72-0.05-0.72,0.52c0,0.71,0.5,1.58,1.12,1.93C95.93,183.6,96.36,183.41,96.47,182.9z M90.96,182.53
				c-0.39-0.33-0.72-0.05-0.72,0.52c0,0.71,0.5,1.58,1.12,1.93c0.53,0.31,0.96,0.11,1.07-0.4c-0.11-0.02-0.23-0.05-0.35-0.12
				C91.46,184.11,90.96,183.25,90.96,182.53z M95.01,184.87c-0.39-0.33-0.72-0.05-0.72,0.52c0,0.71,0.5,1.58,1.12,1.93
				c0.53,0.31,0.96,0.11,1.07-0.4c-0.11-0.02-0.23-0.05-0.35-0.12C95.5,186.44,95.01,185.58,95.01,184.87z M82.88,177.87
				c-0.39-0.33-0.72-0.05-0.72,0.52c0,0.71,0.5,1.58,1.12,1.93c0.53,0.31,0.96,0.11,1.07-0.4c-0.11-0.02-0.23-0.05-0.35-0.12
				C83.38,179.44,82.88,178.58,82.88,177.87z M86.92,180.2c-0.39-0.33-0.72-0.05-0.72,0.52c0,0.71,0.5,1.58,1.12,1.93
				c0.53,0.31,0.96,0.11,1.07-0.4c-0.11-0.02-0.23-0.05-0.35-0.12C87.42,181.78,86.92,180.91,86.92,180.2z M78.83,175.53
				c-0.39-0.33-0.72-0.05-0.72,0.52c0,0.71,0.5,1.58,1.12,1.93c0.53,0.31,0.96,0.11,1.07-0.4c-0.11-0.02-0.23-0.05-0.35-0.12
				C79.33,177.11,78.83,176.24,78.83,175.53z"/>
		</g>
	</g>
</g>
</svg>
