<?xml version="1.0" encoding="utf-8"?>
<!-- Generator: Adobe Illustrator 24.3.0, SVG Export Plug-In . SVG Version: 6.00 Build 0)  -->
<svg version="1.1" id="圖層_1" focusable="false" xmlns="http://www.w3.org/2000/svg" xmlns:xlink="http://www.w3.org/1999/xlink"
	 x="0px" y="0px" viewBox="0 0 48 48" style="enable-background:new 0 0 48 48;" xml:space="preserve">
<style type="text/css">
	.st0{fill:#00B900;}
	.st1{fill:#FFFFFF;}
</style>
<g>
	<circle class="st0" cx="24" cy="24" r="24"/>
	<g id="TYPE_A_19_">
		<g>
			<path class="st1" d="M40,22.6c0-7.1-7.2-13-16-13c-8.8,0-16,5.8-16,13c0,6.4,5.7,11.8,13.4,12.8c0.5,0.1,1.2,0.3,1.4,0.8
				c0.2,0.4,0.1,1,0.1,1.4c0,0-0.2,1.1-0.2,1.4c-0.1,0.4-0.3,1.6,1.4,0.9c1.7-0.7,9.2-5.4,12.5-9.3h0C38.9,28,40,25.4,40,22.6"/>
			<g>
				<path class="st0" d="M20.8,19.1h-1.1c-0.2,0-0.3,0.1-0.3,0.3v7c0,0.2,0.1,0.3,0.3,0.3h1.1c0.2,0,0.3-0.1,0.3-0.3v-7
					C21.1,19.2,20.9,19.1,20.8,19.1"/>
				<path class="st0" d="M28.5,19.1h-1.1c-0.2,0-0.3,0.1-0.3,0.3v4.1l-3.2-4.3c0,0,0,0,0,0c0,0,0,0,0,0c0,0,0,0,0,0c0,0,0,0,0,0
					c0,0,0,0,0,0c0,0,0,0,0,0c0,0,0,0,0,0c0,0,0,0,0,0c0,0,0,0,0,0c0,0,0,0,0,0c0,0,0,0,0,0c0,0,0,0,0,0c0,0,0,0,0,0c0,0,0,0,0,0
					c0,0,0,0,0,0c0,0,0,0,0,0c0,0,0,0,0,0c0,0,0,0,0,0c0,0,0,0,0,0h-1.1c-0.2,0-0.3,0.1-0.3,0.3v7c0,0.2,0.1,0.3,0.3,0.3h1.1
					c0.2,0,0.3-0.1,0.3-0.3v-4.1l3.2,4.3c0,0,0,0.1,0.1,0.1c0,0,0,0,0,0c0,0,0,0,0,0c0,0,0,0,0,0c0,0,0,0,0,0c0,0,0,0,0,0
					c0,0,0,0,0,0c0,0,0,0,0,0c0,0,0,0,0,0c0,0,0.1,0,0.1,0h1.1c0.2,0,0.3-0.1,0.3-0.3v-7C28.8,19.2,28.6,19.1,28.5,19.1"/>
				<path class="st0" d="M18.1,24.9h-3v-5.5c0-0.2-0.1-0.3-0.3-0.3h-1.1c-0.2,0-0.3,0.1-0.3,0.3v7v0c0,0.1,0,0.2,0.1,0.2
					c0,0,0,0,0,0c0,0,0,0,0,0c0.1,0.1,0.1,0.1,0.2,0.1h0h4.5c0.2,0,0.3-0.1,0.3-0.3v-1.1C18.4,25.1,18.2,24.9,18.1,24.9"/>
				<path class="st0" d="M34.6,20.8c0.2,0,0.3-0.1,0.3-0.3v-1.1c0-0.2-0.1-0.3-0.3-0.3h-4.5h0c-0.1,0-0.2,0-0.2,0.1c0,0,0,0,0,0
					c0,0,0,0,0,0c-0.1,0.1-0.1,0.1-0.1,0.2v0v7v0c0,0.1,0,0.2,0.1,0.2c0,0,0,0,0,0c0,0,0,0,0,0c0.1,0.1,0.1,0.1,0.2,0.1h0h4.5
					c0.2,0,0.3-0.1,0.3-0.3v-1.1c0-0.2-0.1-0.3-0.3-0.3h-3v-1.2h3c0.2,0,0.3-0.1,0.3-0.3v-1.1c0-0.2-0.1-0.3-0.3-0.3h-3v-1.2H34.6z"
					/>
			</g>
		</g>
	</g>
</g>
</svg>
